<svg version="1.2" xmlns="http://www.w3.org/2000/svg" viewBox="0 0 417 228" width="417" height="228"><style>.a{fill:#72c766}.b{fill:#141414}</style><path class="a" d="m90.6 0h-83.5l-6.3 34.7h66.9v77.5h-14.9v-73.9l-39.1 6.3v95.4h79.2l15.2-16.1v-103.5zm118.7 61.9h2.9l4.1-27.2h-83.6l-15.4 17.7v71.5l15.4 16.1h29l5.6-27.8h-9.6v-50.3h11.2v78.1h43.3l4.1-27.8h-7zm104.4 6v-17l-15.2-16.2h-61.4l-15.4 16.2v48.1h51.6v13.2h-11.2v-5.2h-40.4v17l15.2 16.1h61.4l15.4-16.1v-48.2h-51.6v-13.2h11.2v5.3zm84.8-33.2h-36.2v-7.7h19.5l4.6-26.9h-64.6v140h40.5v-78.2h11.2v78.2h25l15.4-0.1v-87.6z"/><path class="b" d="m301 176.9h-30.5l-2.3 12.7h24.4v28.2h-5.4v-26.9l-14.3 2.3v34.8h28.9l5.6-5.9v-37.7zm37.7 12.6h-22.4l-5.6 6.5v26.1l5.6 5.9h22.4l5.6-5.9v-26.1zm-9.2 28.2h-4.1v-18.3h4.1zm51.1-11.1v-10.8l-5.6-6.4h-22.4l-5.7 6.4v26.2l5.7 5.8h22.4l5.6-5.8v-11.7h-14.8v7.4h-4.1v-18.4h4.1v7.3zm36.1-5.1v-6.2l-5.5-5.9h-22.4l-5.7 5.9v17.5h18.9v4.9h-4.1v-2h-14.8v6.2l5.6 5.9h22.4l5.6-5.9v-17.5h-18.8v-4.9h4.1v2z"/></svg>