<svg xmlns="http://www.w3.org/2000/svg" width="305" height="90" version="1.2" viewBox="0 0 305 90"><style/><path d="m0.8 1.9h35q17.9 0 29.8 12.4 12 12.3 12 30.7 0 18.3-12 30.7-11.9 12.3-29.8 12.3h-35zm22.6 64.8h12.4q9 0 14.7-5.9 5.6-6 5.6-15.8 0-9.9-5.6-15.8-5.7-6-14.7-6h-12.4zm137.6 21.3h-23.7l-3.7-12.5h-28.7l-3.6 12.5h-23.9l28.4-86.1h26.8zm-41.8-60.7l-8.6 29.3h17.3zm76.9 62.5q-13.6 0-22.6-5.8-9-5.8-12.6-15.6l18.9-11q4.7 11.5 16.9 11.5 10.1 0 10.1-5.8 0-3.8-5.8-6.2-2.4-0.9-10.8-3.3-11.8-3.4-18.7-9.6-6.9-6.3-6.9-17.3 0-12 8.5-19.3 8.6-7.4 21.4-7.4 10.8 0 19.2 5 8.4 5.1 12.8 14.7l-18.5 10.8q-4-9.6-13.4-9.6-3.9 0-6 1.6-2 1.6-2 4.1 0 2.8 3 4.8 3.1 1.9 11.8 4.5 6.3 1.8 10.1 3.4 3.8 1.6 8.3 4.7 4.6 3 6.8 7.8 2.2 4.6 2.2 11 0 12.7-9 19.8-8.9 7.2-23.7 7.2zm87-56.1v-31.9h21.9v86.1h-21.9v-33.1h-24.3v33.1h-22v-86.1h22v31.9z"/></svg>