<svg version="1.2" xmlns="http://www.w3.org/2000/svg" viewBox="0 0 414 140" width="414" height="140"><style>.a{fill:#72c766}</style><path class="a" d="m108.1 20.4v103.5l-15.2 16.1h-79.2v-95.4l39.1-6.3v73.9h14.9v-77.5h-66.9l6.3-34.7h83.5zm101.2 91.8h7l-4.1 27.8h-43.3v-78.1h-11.2v50.3h9.6l-5.6 27.8h-29l-15.4-16.1v-71.5l15.4-17.7h83.6l-4.1 27.2h-2.9zm64-44.3v-5.3h-11.2v13.2h51.6v48.2l-15.4 16.1h-61.4l-15.2-16.1v-17h40.4v5.2h11.2v-13.2h-51.6v-48.1l15.4-16.2h61.4l15.2 16.2v17zm140.6-15.5v87.6l-15.4 0.1h-25v-78.2h-11.2v78.2h-40.5v-140h64.6l-4.6 26.9h-19.5v7.7h36.2z"/></svg>