<svg version="1.2" xmlns="http://www.w3.org/2000/svg" viewBox="0 0 2330 1231" width="2330" height="1231"><style>.a{opacity:.9;fill:#858585;stroke:#e9e9e9;paint-order:stroke fill markers;stroke-linejoin:round;stroke-width:12}.b{opacity:.7;fill:#e1e1e1}.c{opacity:.8;fill:#f7d664}.d{fill:#e32626}</style><path class="a" d="m1288.6 609.1q2.6 2.8 2.7 6.6-0.1 3.8-2.7 6.6l-35 37.4q-2.6 2.7-6.1 2.7-3.6 0-6.2-2.7-2.6-2.8-2.6-6.6v-18.7h-140.1v18.7q0 3.8-2.6 6.6-2.6 2.7-6.2 2.7-3.6 0-6.2-2.7l-35-37.4q-2.6-2.8-2.6-6.6 0-3.8 2.6-6.6l35-37.3q2.6-2.8 6.2-2.8 3.6 0 6.2 2.8 2.6 2.7 2.6 6.5v18.7h140.1v-18.7q0-3.8 2.6-6.5 2.6-2.8 6.2-2.8 3.5 0 6.1 2.8l35 37.3z"/><path class="b" d="m1389 22c0-12.2 9.8-22 22-22h897c12.2 0 22 9.8 22 22v1187c0 12.2-9.8 22-22 22h-897c-12.2 0-22-9.8-22-22z"/><path class="b" d="m0 22c0-12.2 9.8-22 22-22h897c12.2 0 22 9.8 22 22v1187c0 12.2-9.8 22-22 22h-897c-12.2 0-22-9.8-22-22z"/><path  d="m1812.9 85h12.3c9.6 0 16.1-6.2 16.1-15 0-8.9-6.5-15.1-16.1-15.1h-12.3zm3.2-2.8v-24.5h8.9c8 0 13.1 5 13.1 12.3 0 7.2-5.1 12.2-13.1 12.2zm39.6-20c-3.6 0-6.9 1.1-9.2 3.1l1.4 2.2c1.8-1.6 4.6-2.6 7.5-2.6 4.2 0 6.4 2.1 6.4 6v1.3h-7.2c-6.5 0-8.7 3-8.7 6.4 0 3.9 3.1 6.6 8.2 6.6 3.8 0 6.4-1.4 7.8-3.7v3.5h2.9v-14c0-5.9-3.3-8.8-9.1-8.8zm-1.1 20.6c-3.6 0-5.7-1.6-5.7-4.2 0-2.4 1.4-4.1 5.8-4.1h7.1v3.7c-1.2 3-3.7 4.6-7.2 4.6zm29.4-1.4c-0.9 0.8-2.1 1.2-3.4 1.2-2.5 0-3.9-1.5-3.9-4.1v-13.5h6.9v-2.6h-6.9v-5h-3v5h-4.1v2.6h4.1v13.6c0 4.2 2.3 6.6 6.6 6.6 1.7 0 3.6-0.5 4.8-1.6zm14.5-19.2c-3.6 0-6.9 1.1-9.2 3.1l1.4 2.2c1.8-1.6 4.6-2.6 7.5-2.6 4.2 0 6.4 2.1 6.4 5.9v1.4h-7.2c-6.5 0-8.7 2.9-8.7 6.4 0 3.9 3.1 6.6 8.2 6.6 3.8 0 6.4-1.4 7.8-3.7v3.5h2.9v-14c0-5.9-3.3-8.8-9.1-8.8zm-1.1 20.6c-3.6 0-5.7-1.6-5.7-4.3 0-2.3 1.4-4 5.8-4h7.1v3.7c-1.2 3-3.7 4.6-7.2 4.6z"/><path  d="m369.9 54.9v24.4l-19.4-24.4h-2.6v30.1h3.2v-24.4l19.3 24.4h2.7v-30.1zm32 18.8c0-6.8-4.6-11.5-11-11.5-6.3 0-11 4.8-11 11.5 0 6.7 4.8 11.5 11.8 11.5 3.6 0 6.8-1.3 8.8-3.7l-1.7-2c-1.8 2-4.2 3-7 3-4.9 0-8.5-3.1-8.9-7.9h18.9c0-0.3 0.1-0.7 0.1-0.9zm-11-8.9c4.5 0 7.7 3.1 8.1 7.6h-16.1c0.4-4.5 3.6-7.6 8-7.6zm28.1 16.6c-0.9 0.8-2.1 1.2-3.4 1.2-2.5 0-3.9-1.5-3.9-4.1v-13.5h6.9v-2.6h-6.9v-5h-3.1v5h-4v2.6h4v13.6c0 4.2 2.4 6.6 6.7 6.6 1.7 0 3.5-0.5 4.7-1.6zm36.6-19l-7.1 19.2-7.3-19.2h-2.6l-7.3 19.2-7.1-19.2h-2.9l8.5 22.6h2.9l7.2-18.5 7.1 18.5h2.9l8.5-22.6zm16 22.8c6.6 0 11.5-4.8 11.5-11.5 0-6.7-4.9-11.5-11.5-11.5-6.6 0-11.5 4.8-11.5 11.5 0 6.7 4.9 11.5 11.5 11.5zm0-2.7c-4.8 0-8.4-3.5-8.4-8.8 0-5.3 3.6-8.8 8.4-8.8 4.8 0 8.4 3.5 8.4 8.8 0 5.3-3.6 8.8-8.4 8.8zm20.7-15.7v-4.4h-3v22.6h3.1v-11.5c0-5.4 2.9-8.4 7.6-8.4 0.2 0 0.5 0.1 0.7 0.1v-3c-4.1 0-7 1.6-8.4 4.6zm31.4 18.2h3.8l-10.6-13.4 9.7-9.2h-3.8l-13.5 12.3v-21.6h-3.1v31.9h3.1v-6.5l5.3-4.9zm9.6-27.5c1.3 0 2.2-1 2.2-2.3 0-1.1-1-2.1-2.2-2.1-1.3 0-2.3 1-2.3 2.2 0 1.2 1 2.2 2.3 2.2zm-1.6 27.5h3.1v-22.6h-3.1zm23.1-22.8c-3.9 0-7 1.6-8.6 4.4v-4.2h-2.9v22.6h3v-11.8c0-5.2 3.1-8.2 8-8.2 4.3 0 6.7 2.4 6.7 7.2v12.8h3.1v-13.1c0-6.5-3.8-9.7-9.3-9.7zm35.7 0.2v4.3c-1.9-2.9-5.2-4.5-8.9-4.5-6.5 0-11.4 4.5-11.4 11 0 6.4 4.9 11 11.4 11 3.7 0 6.9-1.5 8.8-4.4v2.9c0 5.5-2.7 8.2-8.4 8.2-3.5 0-6.7-1.2-8.9-3.1l-1.5 2.3c2.3 2.2 6.4 3.5 10.5 3.5 7.5 0 11.3-3.5 11.3-11.3v-19.9zm-8.6 19.1c-5 0-8.6-3.4-8.6-8.3 0-4.9 3.6-8.3 8.6-8.3 5 0 8.6 3.4 8.6 8.3 0 4.9-3.6 8.3-8.6 8.3z"/><path class="c" d="m227 520.2c0-8.8 7.2-16 16-16h431c8.8 0 16 7.2 16 16v193c0 8.9-7.2 16-16 16h-431c-8.8 0-16-7.1-16-16z"/><path class="d" d="m257.2 704.8v-9.2h12.7v-2.2h-12.7v-8.7h14.3v-2.2h-16.9v24.5h17.4v-2.2zm27.6 2.4c6.3 0 9.2-3.1 9.2-6.7 0-8.9-15.2-4.9-15.2-11.6 0-2.4 2-4.4 6.5-4.4 2.2 0 4.7 0.6 6.8 2l0.8-2.1c-1.9-1.3-4.8-2.1-7.6-2.1-6.2 0-9 3.1-9 6.7 0 9.1 15.1 4.9 15.1 11.7 0 2.4-2 4.3-6.6 4.3-3.2 0-6.3-1.3-8.1-3l-1 2c1.8 1.9 5.4 3.2 9.1 3.2zm24-24.7h-9.2v24.5h2.6v-7.7h6.6c6.2 0 10-3.2 10-8.4 0-5.3-3.8-8.4-10-8.4zm-0.1 14.5h-6.5v-12.3h6.5c4.9 0 7.5 2.3 7.5 6.2 0 3.8-2.6 6.1-7.5 6.1zm14.1 1.6h9.2v-2.2h-9.2zm15.3 8.4h10c7.8 0 13.1-5 13.1-12.2 0-7.3-5.3-12.3-13.1-12.3h-10zm2.6-2.3v-20h7.2c6.6 0 10.8 4.1 10.8 10 0 5.9-4.2 10-10.8 10zm44.4 2.3h2.7l-11.2-24.5h-2.6l-11.2 24.5h2.7l3-6.6h13.6zm-15.6-8.6l5.8-13.2 5.9 13.2zm29.3 8.8c6.2 0 9.1-3 9.1-6.6 0-9-15.1-4.9-15.1-11.6 0-2.5 2-4.5 6.5-4.5 2.2 0 4.6 0.7 6.7 2l0.9-2c-2-1.4-4.8-2.2-7.6-2.2-6.2 0-9 3.1-9 6.7 0 9.1 15.1 5 15.1 11.7 0 2.4-2 4.3-6.6 4.3-3.3 0-6.4-1.2-8.1-2.9l-1 2c1.8 1.8 5.4 3.1 9.1 3.1zm32.7-24.7v10.9h-15.3v-10.9h-2.6v24.5h2.6v-11.3h15.3v11.3h2.6v-24.5z"/><path class="c" d="m1628 928.2c0-8.8 7.2-16 16-16h431c8.8 0 16 7.2 16 16v193c0 8.9-7.2 16-16 16h-431c-8.8 0-16-7.1-16-16z"/><path  d="m1660.4 1115h2.6v-22.3h8.6v-2.2h-19.8v2.2h8.6zm20.3-18.6c-2.9 0-5.7 0.9-7.5 2.5l1.1 1.9c1.5-1.4 3.7-2.2 6.1-2.2 3.5 0 5.2 1.7 5.2 4.9v1.1h-5.8c-5.3 0-7.1 2.4-7.1 5.2 0 3.2 2.5 5.4 6.7 5.4 3 0 5.2-1.2 6.3-3.1v2.9h2.4v-11.4c0-4.8-2.7-7.2-7.4-7.2zm-0.9 16.8c-3 0-4.7-1.3-4.7-3.5 0-1.8 1.2-3.2 4.8-3.2h5.7v3c-0.9 2.4-3 3.7-5.8 3.7zm24.6-16.8c-3 0-5.5 1.3-7 3.7v-11.1h-2.5v26h2.4v-3.6c1.5 2.5 4 3.8 7.1 3.8 5.2 0 9.2-3.8 9.2-9.4 0-5.6-4-9.4-9.2-9.4zm-0.2 16.6c-3.9 0-6.9-2.9-6.9-7.2 0-4.3 3-7.2 6.9-7.2 3.9 0 6.9 2.9 6.9 7.2 0 4.3-3 7.2-6.9 7.2z"/><path class="d" d="m1732.1 1121.8h2.4c-2.8-4.8-4-10.2-4-16.4 0-6.2 1.2-11.6 4-16.4h-2.4c-2.6 4.2-4.1 9.9-4.1 16.4 0 6.4 1.5 12.2 4.1 16.4zm26.2-31.3h-9.2v24.5h2.6v-7.7h6.6c6.2 0 10-3.2 10-8.4 0-5.3-3.8-8.4-10-8.4zm-0.1 14.5h-6.5v-12.3h6.5c4.9 0 7.5 2.3 7.5 6.2 0 3.8-2.6 6.1-7.5 6.1zm17.1-4.8v-3.6h-2.4v18.4h2.5v-9.4c0-4.3 2.4-6.8 6.2-6.8 0.2 0 0.4 0 0.6 0v-2.4c-3.4 0-5.7 1.3-6.9 3.8zm18.8 15c5.3 0 9.3-4 9.3-9.4 0-5.5-4-9.4-9.3-9.4-5.4 0-9.4 3.9-9.4 9.4 0 5.4 4 9.4 9.4 9.4zm0-2.2c-4 0-6.9-2.9-6.9-7.2 0-4.3 2.9-7.2 6.9-7.2 3.9 0 6.8 2.9 6.8 7.2 0 4.3-2.9 7.2-6.8 7.2zm23.9 8.8c2.6-4.2 4.1-10 4.1-16.4 0-6.5-1.5-12.2-4.1-16.4h-2.4c2.8 4.8 4 10.2 4 16.4 0 6.2-1.2 11.6-4 16.4z"/><path class="c" d="m1628 680.1c0-8.9 7.2-16 16-16h431c8.8 0 16 7.1 16 16v193c0 8.8-7.2 16-16 16h-431c-8.8 0-16-7.2-16-16z"/><path  d="m1662.4 867.2c6.3 0 9.1-3.1 9.1-6.7 0-8.9-15.1-4.9-15.1-11.6 0-2.4 2-4.4 6.5-4.4 2.2 0 4.7 0.6 6.8 2l0.8-2.1c-1.9-1.3-4.8-2.1-7.6-2.1-6.2 0-9 3.1-9 6.7 0 9.1 15.1 4.9 15.1 11.7 0 2.4-2 4.3-6.6 4.3-3.2 0-6.3-1.3-8.1-3l-1 2c1.8 1.9 5.4 3.2 9.1 3.2zm23.1-3.1c-0.7 0.6-1.7 0.9-2.7 0.9-2.1 0-3.2-1.2-3.2-3.3v-11h5.6v-2.1h-5.6v-4.1h-2.5v4.1h-3.3v2.1h3.3v11.1c0 3.4 1.9 5.4 5.4 5.4 1.4 0 2.9-0.4 3.9-1.3zm11.8-15.7c-2.9 0-5.6 0.9-7.5 2.5l1.1 1.9c1.5-1.4 3.8-2.2 6.2-2.2 3.4 0 5.2 1.7 5.2 4.9v1.1h-5.9c-5.2 0-7.1 2.4-7.1 5.2 0 3.2 2.6 5.4 6.8 5.4 3 0 5.2-1.2 6.3-3.1v2.9h2.4v-11.4c0-4.8-2.7-7.2-7.5-7.2zm-0.9 16.8c-2.9 0-4.6-1.3-4.6-3.5 0-1.9 1.1-3.3 4.7-3.3h5.8v3c-1 2.5-3.1 3.8-5.9 3.8zm24-1.1c-0.7 0.6-1.7 0.9-2.7 0.9-2.1 0-3.2-1.2-3.2-3.3v-11h5.6v-2.1h-5.6v-4.1h-2.5v4.1h-3.3v2.1h3.3v11.1c0 3.4 1.9 5.4 5.4 5.4 1.4 0 2.9-0.5 3.9-1.3zm6.6-19.6c1.1 0 1.8-0.8 1.8-1.8 0-1-0.8-1.7-1.8-1.7-1 0-1.8 0.8-1.8 1.7 0 1 0.8 1.8 1.8 1.8zm-1.2 22.5h2.4v-18.5h-2.4zm14.3 0.2c4.8 0 7.6-2.1 7.6-5.2 0-7.1-11.9-3.4-11.9-8.4 0-1.7 1.5-3 4.8-3 1.9 0 3.8 0.5 5.4 1.6l1.1-2c-1.5-1.1-4.1-1.7-6.5-1.7-4.7 0-7.3 2.2-7.3 5.2 0 7.3 11.9 3.5 11.9 8.3 0 1.8-1.4 3-4.9 3-2.6 0-5.1-0.9-6.5-2l-1.2 1.9c1.5 1.3 4.5 2.3 7.5 2.3zm21.1-3.1c-0.7 0.7-1.8 1-2.8 1-2 0-3.2-1.2-3.2-3.4v-11h5.6v-2.1h-5.6v-4h-2.5v4h-3.2v2.1h3.2v11.2c0 3.4 2 5.3 5.4 5.3 1.5 0 3-0.4 3.9-1.3zm6.7-19.5c1 0 1.8-0.8 1.8-1.9 0-0.9-0.8-1.7-1.8-1.7-1 0-1.8 0.8-1.8 1.8 0 1 0.8 1.8 1.8 1.8zm-1.3 22.4h2.5v-18.4h-2.5zm17.1 0.2c3.1 0 5.8-1.3 7.2-3.7l-1.8-1.2c-1.3 1.8-3.3 2.7-5.4 2.7-4 0-7-2.9-7-7.2 0-4.3 3-7.2 7-7.2 2.1 0 4.1 0.9 5.4 2.7l1.8-1.2c-1.4-2.5-4.1-3.7-7.2-3.7-5.5 0-9.5 3.9-9.5 9.4 0 5.5 4 9.4 9.5 9.4z"/><path class="c" d="m1628 434.4c0-8.9 7.2-16 16-16h431c8.8 0 16 7.1 16 16v193c0 8.8-7.2 16-16 16h-431c-8.8 0-16-7.2-16-16z"/><path  d="m1666.3 621.2c3.6 0 6.8-1.2 9-3.6l-1.6-1.6c-2 2-4.5 2.9-7.3 2.9-5.9 0-10.4-4.3-10.4-10.2 0-5.8 4.5-10.1 10.4-10.1 2.8 0 5.3 0.8 7.3 2.9l1.6-1.7c-2.2-2.4-5.4-3.5-9-3.5-7.4 0-12.8 5.2-12.8 12.4 0 7.2 5.4 12.5 12.8 12.5zm23.4-18.8c-3.1 0-5.5 1.2-6.9 3.4v-10.8h-2.5v26h2.5v-9.7c0-4.2 2.5-6.6 6.4-6.6 3.6 0 5.6 2 5.6 5.9v10.4h2.5v-10.7c0-5.3-3.1-7.9-7.6-7.9zm20.8 0c-2.9 0-5.7 0.9-7.5 2.5l1.1 1.9c1.5-1.4 3.8-2.2 6.1-2.2 3.5 0 5.3 1.7 5.3 4.9v1.1h-5.9c-5.3 0-7.1 2.4-7.1 5.2 0 3.2 2.6 5.4 6.7 5.4 3.1 0 5.3-1.2 6.4-3.1v2.9h2.4v-11.4c0-4.8-2.7-7.2-7.5-7.2zm-0.9 16.8c-2.9 0-4.6-1.3-4.6-3.5 0-1.9 1.1-3.3 4.7-3.3h5.8v3.1c-1 2.4-3.1 3.7-5.9 3.7zm17.5-13v-3.6h-2.4v18.4h2.5v-9.4c0-4.3 2.4-6.8 6.2-6.8 0.2 0 0.4 0 0.6 0v-2.4c-3.4 0-5.7 1.3-6.9 3.8zm21 11.9c-0.7 0.6-1.7 0.9-2.7 0.9-2.1 0-3.2-1.2-3.2-3.3v-11h5.6v-2.1h-5.6v-4.1h-2.5v4.1h-3.3v2.1h3.3v11.1c0 3.4 2 5.4 5.4 5.4 1.5 0 2.9-0.4 3.9-1.3z"/><path class="c" d="m1628 186.2c0-8.8 7.2-16 16-16h431c8.8 0 16 7.2 16 16v193c0 8.8-7.2 16-16 16h-431c-8.8 0-16-7.2-16-16z"/><path  d="m1666.3 373.2c3.6 0 6.8-1.2 9-3.6l-1.6-1.6c-2 2-4.5 2.9-7.3 2.9-5.9 0-10.4-4.3-10.4-10.2 0-5.8 4.5-10.1 10.4-10.1 2.8 0 5.3 0.8 7.3 2.9l1.6-1.7c-2.2-2.4-5.4-3.5-9-3.5-7.4 0-12.8 5.2-12.8 12.4 0 7.2 5.4 12.5 12.8 12.5zm20.2-18.8c-2.9 0-5.7 0.9-7.5 2.5l1.1 1.9c1.5-1.4 3.8-2.2 6.1-2.2 3.5 0 5.3 1.7 5.3 4.9v1.1h-5.9c-5.3 0-7.1 2.4-7.1 5.2 0 3.2 2.5 5.4 6.7 5.4 3.1 0 5.2-1.2 6.4-3.1v2.9h2.3v-11.4c0-4.8-2.7-7.2-7.4-7.2zm-0.9 16.8c-2.9 0-4.7-1.3-4.7-3.5 0-1.9 1.2-3.3 4.8-3.3h5.8v3.1c-1 2.4-3.1 3.7-5.9 3.7zm17.5-13v-3.6h-2.4v18.4h2.5v-9.4c0-4.3 2.3-6.8 6.2-6.8 0.2 0 0.4 0 0.6 0v-2.4c-3.4 0-5.7 1.3-6.9 3.8zm25.5-11.2v11.1c-1.5-2.4-4-3.7-7-3.7-5.2 0-9.1 3.8-9.1 9.4 0 5.6 3.9 9.4 9.1 9.4 3.1 0 5.6-1.4 7.2-3.8v3.6h2.3v-26zm-6.8 24c-3.9 0-6.8-2.9-6.8-7.2 0-4.3 2.9-7.2 6.8-7.2 3.9 0 6.9 2.9 6.9 7.2 0 4.3-3 7.2-6.9 7.2z"/></svg>