<svg xmlns="http://www.w3.org/2000/svg" viewBox="0 0 494.59 177.83"><title>logo</title><path d="M420.67,235a24.11,24.11,0,0,1,.55,4.62c.07,1.91.11,3.92.11,6.05a62,62,0,0,1-.33,6.38c-.22,2.13-.48,3.92-.77,5.39-.44,1.61-.77,3-1,4.18a11.6,11.6,0,0,1-.55,2.2,17.88,17.88,0,0,0-.77,2.42c-.37,1.32-.85,2.79-1.43,4.4a73.24,73.24,0,0,1-6.27,13.2,85.5,85.5,0,0,1-9.35,12.32q-19.8,21.78-49.28,32.12l-2,.77a13.1,13.1,0,0,0-1.32.55,7.06,7.06,0,0,1-2.53,1c-1.4.36-3,.84-4.73,1.43s-3.38.91-4.84,1.43-2.35.84-2.64,1a2.16,2.16,0,0,1-1.21.55,7.49,7.49,0,0,0-1.43.33,8.79,8.79,0,0,0-1.54.22,11.29,11.29,0,0,0-2.2.66c-1.47.14-2.2,0-2.2-.44s-.19-.85-.55-.77-.63.47-.77,1.21c-.3.73-1.32,1.17-3.08,1.32l-2.2.44a10.24,10.24,0,0,1-1.54.22c-.3.29-.74.14-1.32-.44-.3-.44-.55-.66-.77-.66a4.07,4.07,0,0,0-1.43.66c-.88.44-1.25.51-1.1.22q.66-.66,0-.66c-.15,0-.55,0-1.21-.11s-1.43-.19-2.31-.33a20,20,0,0,1-2.64-.22,18.66,18.66,0,0,0-2.64-.22,6.82,6.82,0,0,1-4.62-2,10.51,10.51,0,0,0-2.2-1.43c-.3-.08-.59.11-.88.55-.3.73-.74,1.1-1.32,1.1a7.25,7.25,0,0,1-1.1-.11,10.45,10.45,0,0,0-1.76-.11c-1.62,0-2.71-.44-3.3-1.32a3,3,0,0,0-2-1.1c-.29,0-.36-1.25-.22-3.74a42.71,42.71,0,0,1,.77-4.51c.22-.81.55-1.06,1-.77s.59.15,0-.44a3,3,0,0,1-.66-2.2q0-1.55-2-4a8.29,8.29,0,0,1-1.43-2c-.07-.29.11-.44.55-.44.59-.29.88-.51.88-.66-.44-.59-.47-1-.11-1.32a1.64,1.64,0,0,1,1.65,0c.74.29,1.18.37,1.32.22a3.68,3.68,0,0,0,.44-1.54,22.31,22.31,0,0,0,.44-2.86c.14-1.32.36-2.71.66-4.18s.62-3.56,1-6.27.69-5.24,1-7.59q.21-2.87,1-7.48t1.54-9.9q.76-5.28,1.76-10.78c.66-3.67,1.21-7,1.65-9.9q.43-1.75,1.43-8.36t2.31-14.08q1.32-7.26,2.53-14.41t1.65-9.79q2.42-14.29,3.74-19.91t2-5.61c.29,0,.44.22.44.66a.19.19,0,0,0,.22.22h.66a11.69,11.69,0,0,1,4,1.1c.73.29,1.32.51,1.76.66a3.48,3.48,0,0,0,1.54.11,14.68,14.68,0,0,0,2.31-.55c.95-.29,2.38-.81,4.29-1.54a11.45,11.45,0,0,1,2.2-.88c.58-.14,1.24-.33,2-.55a28,28,0,0,1,2.86-.66l5.06-1a64.06,64.06,0,0,1,7.37-1q4.07-.33,8.14-.44c2.71-.07,5.31,0,7.81.11a54.63,54.63,0,0,1,6.16.66,64.45,64.45,0,0,1,9.79,3.85,53.31,53.31,0,0,1,9.57,5.61q1.32,1.1,3.3,3c1.32,1.25,2.67,2.6,4.07,4.07s2.75,3,4.07,4.73,2.49,3.26,3.52,4.73a50.57,50.57,0,0,0,3.08,4.29q2,2.53,3.3,4.29a73,73,0,0,1,7.7,12.1A54,54,0,0,1,420.67,235ZM308.25,338.19c.29,0,.33,0,.11.11a2.55,2.55,0,0,1-.77.11,2.51,2.51,0,0,1-.77-.11c-.22-.08-.19-.11.11-.11A2,2,0,0,1,308.25,338.19Zm4.4-30.58a1,1,0,0,0,.22-1.32c-.3-.15-.48-.7-.55-1.65a6.7,6.7,0,0,1,.33-2.75c.29-1.91.07-2.71-.66-2.42a1.26,1.26,0,0,0-.22.88c.14.29,0,.44-.44.44a.78.78,0,0,0-.88.88c0,.44-.22.51-.66.22s-.66.07-.66,1.54a3.55,3.55,0,0,0-.55,1.65,4.94,4.94,0,0,1-.33,1.43c0,.73.22.81.66.22,1-1.47,1.54-1.54,1.54-.22,0,.59-.22.88-.66.88s-.22.29.22.88.8.88,1.1.88.44-.37.44-1.1c0-.88.14-1.32.44-1.32s.44.29.44.88C312.13,307.9,312.21,307.9,312.65,307.61Zm.88-12.54a17.51,17.51,0,0,0,.66-2.75,17.73,17.73,0,0,0,.22-1.87c0-1-.15-1.39-.44-1.1a3.24,3.24,0,0,0-.66,1.76,14.48,14.48,0,0,0-.22,2.42c0,.59-.15.88-.44.88s-.22.66-.22,2c.29,1,.47,1.47.55,1.32S313.23,296.68,313.53,295.07Zm1.32-8.36a6,6,0,0,1,.44-.77,1.42,1.42,0,0,0,.22-.77c0-.29-.22-.44-.66-.44a3.82,3.82,0,0,0-.44,1.76C314.41,287.22,314.55,287.3,314.85,286.71Zm2.86-11.22q-1.54-.66,0-3.3a2.74,2.74,0,0,0,0-2.64l-.44-1.76-.22,1.54a1.89,1.89,0,0,1-1.1,2c-.74.29-1.1.59-1.1.88,0,.88.14.88.44,0s.58-.92.88-.55a2.45,2.45,0,0,1,.22,1.87,2.82,2.82,0,0,0,0,1.65,1,1,0,0,0,.88.33Zm-2.2,4.4c0,.73.14.95.44.66V279C315.65,278.86,315.51,279.16,315.51,279.89Zm.44,15.18c.44,0,.66-.07.66-.22a.19.19,0,0,1-.22-.22l-.44-.44c-.3-.29-.44-.22-.44.22S315.65,295.07,316,295.07Zm0-17.16c.44,0,.66-.29.66-.88,0-.15,0-.22-.11-.22s-.11-.07-.11-.22v-.22q-.45,0-.66.66C315.58,277.62,315.65,277.91,316,277.91Zm1.32-44.44c0,.44.14.66.44.66s.44-.22.44-.66-.08-.66-.22-.66Zm.88,33.88c.29,0,.36-.44.22-1.32-.3-1-.52-1.54-.66-1.54V266C317.71,266.91,317.85,267.35,318.15,267.35Zm.44-3.52c.29-.29.29-.66,0-1.1-.3-.59-.44-.51-.44.22C318.15,263.83,318.29,264.13,318.59,263.83Zm.22-4.4a.39.39,0,0,0,.44.44c.29,0,.44-.29.44-.88s-.15-.73-.44-.44C319,258.55,318.81,258.84,318.81,259.43Zm1.32,43.78a2.83,2.83,0,0,0-.55,1.76q-.12,1.32.33,1.32c.44,0,.66-.07.66-.22v-.88a8.05,8.05,0,0,1,.22-2,5.15,5.15,0,0,0-.22-2.86c-.3-.44-.59-.07-.88,1.1,0,.88.14,1.32.44,1.32C320.71,302.77,320.71,302.92,320.13,303.21Zm.22-49.72c-.3-.88-.44-.81-.44.22a1.46,1.46,0,0,0,.11.66c.07.15.11.15.11,0C320.57,254.08,320.64,253.78,320.35,253.49Zm.66,81.62c.29-.15.36-.26.22-.33a.92.92,0,0,0-.44-.11c-.59,0-.88.14-.88.44s.22.44.66.44A.39.39,0,0,0,321,335.11Zm1.1-44.22a1.41,1.41,0,0,0,.88-1.32c.14-.73.11-1-.11-.88a3.18,3.18,0,0,0-.77,1.32C321.23,290.89,321.23,291.18,322.11,290.89Zm.44-51c-.3-.59-.44-.51-.44.22a2.27,2.27,0,0,0,.11.77c.07.22.11.26.11.11A1.79,1.79,0,0,0,322.55,239.85Zm78.1-8.14A24.79,24.79,0,0,0,401,228q.11-2.86,0-5.94c-.08-2.05-.22-4-.44-5.83s-.41-3.12-.55-3.85a4.33,4.33,0,0,0-1.43-2.31,42.12,42.12,0,0,0-4.73-2.75,48.26,48.26,0,0,0-13.09-4.84,64.91,64.91,0,0,0-15.73-.88c-2.94.15-5.87.4-8.8.77a82.94,82.94,0,0,0-8.25,1.43,46.05,46.05,0,0,0-6.38,1.87c-1.69.66-2.61,1.28-2.75,1.87a31.11,31.11,0,0,0-.88,4.29q-.66,3.85-1.32,8.91-.88,5.06-1.87,11.88t-1.87,11.66q-.88,5.07-2,12.43t-2.2,13.09q-.88,5.72-1.65,10.56t-1,5.94a12.64,12.64,0,0,0-.66,3.41c-.15,1.54-.37,3-.66,4.51s-.59,3-.88,4.51l-.66,3.41c-.59,1.61-.66,2.57-.22,2.86.14.29,1.39,0,3.74-.77s6.08-2.38,11.22-4.73l5.61-2.64q2.31-1.09,4.29-2.09t4-2.2q2-1.21,4.62-3a146.72,146.72,0,0,0,19.8-15,88.8,88.8,0,0,0,13.42-14.52,57.59,57.59,0,0,0,5.94-11.66A139,139,0,0,0,400.65,231.71Zm-75.9-5.94c-.3-.59-.44-.44-.44.44,0,.73.14,1,.44.66S325,226.21,324.75,225.77Zm.44,43.12c0,.59.14.88.44.88l.22-.22c0-.15,0-.22.11-.22s.11-.15.11-.44c.58-.59.58-.88,0-.88-.3,0-.44.07-.44.22S325.48,268.6,325.19,268.89Zm7.26-42c-.15.44-.08.66.22.66a.58.58,0,0,0,.66-.66.39.39,0,0,0-.44-.44l-.22.22A.19.19,0,0,0,332.45,226.87Zm1.76-15.62q-.45.44,0,1.32c.29.88.44,1.1.44.66.29,0,.29-.37,0-1.1a.47.47,0,0,0-.11-.33.41.41,0,0,1-.11-.33Zm48,88.44c1.17-.44,1.76-.81,1.76-1.1s-.3-.51-.88-.22a2.51,2.51,0,0,0-.77.11,2,2,0,0,1-.55.11c-.3,0-.59.29-.88.88C380.7,299.91,381.14,300,382.17,299.69Z" transform="translate(-283.7 -173.47)" style="fill:#2b354f"/><path d="M537.05,313.77c-.74,0-1.18-.95-1.32-2.86a20.87,20.87,0,0,1-.44-4.18,6,6,0,0,1-.44-2.31,6.39,6.39,0,0,0-.22-1.87,4.42,4.42,0,0,1-.22-1.43,1.65,1.65,0,0,0-.44-1.21,2,2,0,0,0-.22-.88,1.91,1.91,0,0,1-.22-.88,1.42,1.42,0,0,0-.22-.77,1,1,0,0,1-.22-.55c-.44,0-.44-.37,0-1.1,0-.59-.22-.88-.66-.88s-.59.59-.44,1.76a15.11,15.11,0,0,1,.77,3.74c.07,1.17,0,1.76-.33,1.76s-.44.07-.44.22.14.29.44.44.58,1.1.44,2.42c-.3,1.32-.22,2,.22,2,.29,0,.44.22.44.66-.15,0-.08.81.22,2.42.29,1.32.29,1.83,0,1.54-.59-.15-.59.37,0,1.54a11.94,11.94,0,0,1,.66,2.75c.14,1.1.07,1.72-.22,1.87s-.22.59.22.88a3.68,3.68,0,0,1,.44,1.43q.21,1.22.33,2.64a15.2,15.2,0,0,1,0,2.53c-.08.73-.19,1.1-.33,1.1a.39.39,0,0,1-.44-.44q-.23,0-.33-.66a7.35,7.35,0,0,1-.11-1.32,17.07,17.07,0,0,1-.44-4.18c0-1.61-.22-2.64-.66-3.08a1.24,1.24,0,0,1-.44-.88v-.88c.29-.73.14-1.25-.44-1.54q-.22-.23,0-1.32a6.06,6.06,0,0,0,.44-1c0-.07-.15,0-.44.33s-.37-.15-.22-.88c.29-1,.22-1.54-.22-1.54-.3-.29-.44-.15-.44.44s-.26,1-.77.77a1.38,1.38,0,0,1-.77-1.43c-.3-.73-.08-1.1.66-1.1.58,0,.88-.66.88-2s-.22-2-.66-2c-.74,0-.88.95-.44,2.86,0,.59-.3.44-.88-.44a3.5,3.5,0,0,1-.88-2.2,5.49,5.49,0,0,0-.66-2.42,9.09,9.09,0,0,1-1.21-3.85q-.33-2.54.33-3,.66,0,0-1.32a2.52,2.52,0,0,1-.44-2.42c0-.73-.22-1.1-.66-1.1q-1.54-.66.44-2.64c.44-.44.36-.51-.22-.22-.59,0-1-.37-1.1-1.1a1.46,1.46,0,0,1-.44-1.1v-1.1a.68.68,0,0,0,.11-.66,3.32,3.32,0,0,1-.11-.88,10,10,0,0,1-.55-2,33.06,33.06,0,0,1-.55-3.74c-.3-1.61-.48-2.82-.55-3.63a3.33,3.33,0,0,1,.11-1.65c.58-.29.51-.81-.22-1.54l-.88-.88c0-1-.22-1.1-.66-.22a8.47,8.47,0,0,0-.44,2.75c0,.95.14,1.43.44,1.43.58,0,.73.81.44,2.42a12.53,12.53,0,0,0,.11,1.87,1.19,1.19,0,0,0,.55,1,2.73,2.73,0,0,1,.44,1,12.93,12.93,0,0,1,.44,3.08c0,.37-.08.48-.22.33-.44-.29-.7-.18-.77.33a1.62,1.62,0,0,0,.55,1.43,2.43,2.43,0,0,0,.44.66.94.94,0,0,1,.22.66,4.77,4.77,0,0,0,.22,1.54q1.1,4.85.44,4.18c-.44,0-.66.29-.66.88s.22,1.1.66,1.1c.29,0,.29.51,0,1.54a2.66,2.66,0,0,0-.11,2c.22.44.62.44,1.21,0,.44-.15.62.18.55,1a2.09,2.09,0,0,1-.77,1.65,3.89,3.89,0,0,0-.44,2.64c.58,1.17.58,1.76,0,1.76-.3,0-.3.37,0,1.1,0,.73.29,1.1.88,1.1s.88.22.88.66-.22.51-.66.22-.44-.22-.44.22c0,.29.29.59.88.88s.58.22,0,.22a.58.58,0,0,0-.66.66,2.84,2.84,0,0,1,.22,1.21,6.7,6.7,0,0,0,.22,1.65,5,5,0,0,1,.11,1.65c-.08.22-.26.26-.55.11s-.7-.07-.77.22.18.59.77.88c.14.15-.15.22-.88.22q-1.11-.44-1.32,0a11,11,0,0,0-.22,3.08q.43,3.53.66,3.3c.29,0,.44.44.44,1.32,0,1.17-.22,1.76-.66,1.76s-.44.26-.44.77.14.84.44,1,.58,1.39.88,3.74c.14,1,.29,1.94.44,2.75a3.12,3.12,0,0,0,.66,1.65q.21.66,0,.66a1.9,1.9,0,0,1-1.32-.66,3.23,3.23,0,0,1-.66-2c0-.15-.15-.08-.44.22-.74.73-.22,2.12,1.54,4.18,1.32,1.32,1.61,2,.88,2a1.9,1.9,0,0,1-1.32-.66c-.59-.59-.74-.37-.44.66a8.12,8.12,0,0,0,.44,2.64c0,.88.18,1.32.55,1.32s.55-.52.55-1.54c0-.74.14-1.1.44-1.1s.58.36.88,1.1a4.37,4.37,0,0,1,.11,2.53c-.22.66-.63.84-1.21.55s-.88-.22-.88.22c0,.14.36.36,1.1.66,1,.29,1.39.66,1.1,1.1-.3.73-.08,1.1.66,1.1.73.29,1,.62.88,1s-.59.55-1.32.55a1.17,1.17,0,0,1-1.32-1.32v-1.32l-.44,1.54c-.3,1-.37,1.61-.22,1.76s-.44.44-1.32.44-1.18.22-1.32.66-.44.44-.88,0-.74-.59-.88,0-.59.69-1.32.77a2.74,2.74,0,0,1-2-.55,4.48,4.48,0,0,1-1.65-3c-.37-1.54-.26-2.24.33-2.09s.95.07.66-.66a19.24,19.24,0,0,0-.77-3.41c-.22-.52-.41-.7-.55-.55q-.66.66-.66,0c0-.3.22-.59.66-.88a.94.94,0,0,0,.22-.66,15.41,15.41,0,0,0-.66-3.3,16.39,16.39,0,0,0-.55-3.19c-.22-.66-.33-.63-.33.11,0,.44-.15.66-.44.66s-.44-.66-.44-2v-2c-.15,0-.33-.33-.55-1s-.44-1.43-.66-2.31a16.68,16.68,0,0,1-.44-2.42c-.08-.73,0-1.17.11-1.32s.07-.51-.22-1.1a10,10,0,0,1-.55-1.87c-.22-.95-.41-1.94-.55-3a30.57,30.57,0,0,1-.55-3.52c-.08-.88-.19-1.8-.33-2.75s-.33-2.05-.55-3.3-.55-3-1-5.17c-.44-2.35-1-5.13-1.54-8.36s-1.18-6.31-1.76-9.24-1.07-5.5-1.43-7.7a26.13,26.13,0,0,0-.77-3.74q-.22-.66-5.28.66c-1.18.44-2.46.84-3.85,1.21a18.6,18.6,0,0,0-2.53.77c-.44.15-1.1.33-2,.55A19.16,19.16,0,0,0,486,277q-1.11.44-4.84,1.43c-2.5.66-5.06,1.36-7.7,2.09-3.52,1-6.2,1.83-8,2.42s-3.16,1-4,1.32a2.87,2.87,0,0,0-1.54,1c-.22.37-.48.84-.77,1.43a8.44,8.44,0,0,0-1.1,3.08,8.22,8.22,0,0,1-1.32,2.86c-.88,1.47-1.47,2.2-1.76,2.2-.3-.29-.3-.15,0,.44s.25.88-.11.88-.7-.29-1-.88a1.12,1.12,0,0,0-1.32-.44c-.59.15-.74.44-.44.88.29.29.29.44,0,.44s-.63.37-1,1.1a4.2,4.2,0,0,0-.55,1.76c.29.29.14.44-.44.44-.3,0-.55.37-.77,1.1a6.48,6.48,0,0,0-.33,1.76c.29.29.07.44-.66.44-.15,0-.22.29-.22.88.29.44.14.81-.44,1.1a.86.86,0,0,0-.66.22c-.15.15-.08.29.22.44,0,.44-.15.66-.44.66-.44,0-.52.22-.22.66.29.29.22.59-.22.88s-.81.29-1.1,0-.37-1,.22-2.64a10.59,10.59,0,0,0,.66-2.75q0-.77-.66,1a3,3,0,0,1-1.21,1.76c-.52.29-.77.07-.77-.66,0-.29.22-.44.66-.44s.51-.15.22-.44a2.22,2.22,0,0,1,.44-1.76c.88-.88,1.46-2.49,1.76-4.84a3.65,3.65,0,0,1,.44-1.1c.29-.59.58-1.25.88-2s.58-1.43.88-2.09a4.25,4.25,0,0,0,.44-1.43c0-.44.14-.66.44-.66s.44-.29.44-.88c0-.88-.74-.95-2.2-.22-.88.59-1.25,1.1-1.1,1.54,0,.29-.37.44-1.1.44s-.81-.29-.66-.88.22-.81-.22-.22c-.44.29-.44,1,0,2.2.73,1.61.51,2.42-.66,2.42-.74,0-1.1.44-1.1,1.32q0,1.75-.66,2c-.15,0-.41.29-.77.88a16.66,16.66,0,0,0-1.1,2.09c-.37.81-.74,1.58-1.1,2.31a4.2,4.2,0,0,0-.55,1.76c0,.44-.44.95-1.32,1.54-1.18.59-1.47.88-.88.88.29,0,.14.15-.44.44s-.22.66.66.66,1.1,0,1.1.11-.22.26-.66.55a4.81,4.81,0,0,1-1.54.22c-.44-.44-.52-.07-.22,1.1a4.35,4.35,0,0,1,.22,1.32c0,.44-.15.66-.44.66a1.46,1.46,0,0,0-.44,1.1c.29.29.14.44-.44.44s-.88.59-.88,1.76-.15,1.61-.44,1.32c-.3-.44-.66-.29-1.1.44-.59.59-.52.88.22.88a.92.92,0,0,1,.55.11c.07.07,0,.11-.11.11a3.81,3.81,0,0,0-1.1,1.76c-.15.73-.44,1.1-.88,1.1-.44-.44-.52-.37-.22.22a1.44,1.44,0,0,1-.22,1.65q-.66,1-1.32,1c-.44,0-.66,0-.66-.11a7.37,7.37,0,0,1,.66-1.21,3,3,0,0,0,.66-1c.14-.37.07-.55-.22-.55,0-.59.14-.95.44-1.1a1.27,1.27,0,0,0-.44-1.32c-.59-.59-.88-.59-.88,0a4.73,4.73,0,0,1-.88,3.3c-.3,0-.44.44-.44,1.32a1.9,1.9,0,0,1-.66,1.32c-.88.29-1,0-.44-.88.29-.88.15-1-.44-.44a2.55,2.55,0,0,0-.77.11,1.9,1.9,0,0,1-.55.11c-.15,0-.07.15.22.44a1,1,0,0,1-.66,1.1c-.59.29-.88.59-.88.88s.29.44.88.44a.78.78,0,0,0,.88-.88q0-.88.66-.66c.44,0,.66.37.66,1.1-.29.73,0,1.1.88,1.1s1.46.25,1.76.33a4.44,4.44,0,0,1,1.32.77c.58.73.73,1.24.44,1.54s-1.58.55-3.85.77a35.94,35.94,0,0,1-7.37-.11,28.07,28.07,0,0,1-3.3-.44,1.4,1.4,0,0,1-1.1-.88c-.29-.74-.59-1.1-.88-1.1s-.44-.33-.44-1a5.68,5.68,0,0,1,.44-2.09c.29-.44.51-.51.66-.22.44.44.81.07,1.1-1.1a9.71,9.71,0,0,0,.44-1.21q0-.11-.66.33a3.27,3.27,0,0,1-.77.44c-.07,0,0-.37.33-1.1q.88-1.32,1.32-1.32c.59,0,.73-.37.44-1.1s.37-2.71,1.54-5.94,2.57-6.53,4.18-9.9c.29-.73.55-1.32.77-1.76a2.63,2.63,0,0,0,.33-.88c.73-1.91,1.36-3.48,1.87-4.73s1.1-2.6,1.76-4.07,1.21-2.79,1.65-4a14.19,14.19,0,0,0,1.1-2.31c.44-1.1.88-2.24,1.32-3.41s.88-2.31,1.32-3.41a13.39,13.39,0,0,1,1.1-2.31,4.37,4.37,0,0,0,.77-2.42,5.23,5.23,0,0,0-1.65-2.42c-1-1.47-1.91-2.82-2.64-4.07s-1-2.24-.66-3a2.56,2.56,0,0,1,1.54-1.76,34.68,34.68,0,0,1,5.28-1.76,23.7,23.7,0,0,0,3.85-1.43,6.59,6.59,0,0,0,1.87-1.65,4.41,4.41,0,0,0,1.32-2.42,12,12,0,0,1,1.21-2.86q1.2-2.42,4.51-9.46a30.26,30.26,0,0,1,1.87-4.51q1.42-3,2.75-6.05,13-29.48,26.84-55l1.76-3.3,4.4.22a18.54,18.54,0,0,1,3.63.33,10.67,10.67,0,0,1,2.53.77c1.17.73,1.9.81,2.2.22a1.25,1.25,0,0,1,1.32-.44,1.34,1.34,0,0,1,.88.88,1.17,1.17,0,0,0,1.21,1.1,1.11,1.11,0,0,0,1.21-.88c.14-.44.84-.66,2.09-.66a3,3,0,0,1,2.53.88,1.69,1.69,0,0,0,2,.44c.73-.29,1.9,1.39,3.52,5.06a114.14,114.14,0,0,1,5.06,15.18c.44,1.47,1.13,4,2.09,7.48l3,11q1.53,5.72,2.86,10.89c.88,3.45,1.46,5.83,1.76,7.15s.55,2.2.77,3.08a11.58,11.58,0,0,1,.33,1.54c0,.15.25.22.77.22a3.78,3.78,0,0,0,1.65-.44,5.56,5.56,0,0,1,2.09-.33,4,4,0,0,1,1.43.77c.44.44.69.66.77.66s0-.15-.33-.44c-.3-.44-.37-.73-.22-.88a5.46,5.46,0,0,1,1.54-.66c2.2-.44,3.66.66,4.4,3.3a3.46,3.46,0,0,0,1.1,2,1.72,1.72,0,0,1,1,1.21q.33,1-.33,1c-.3,0-.15.29.44.88a1.08,1.08,0,0,1,.66,1.32c-.15.59-.44.73-.88.44q-.66-.66-.66,0c0,.29-.52.59-1.54.88a4.92,4.92,0,0,0-2.2.44c-.15.29-.3.44-.44.44s-.22-.15-.22-.44h-.44a2.51,2.51,0,0,0-.77.11,2.55,2.55,0,0,1-.77.11,4.55,4.55,0,0,0-1.43.77,1.34,1.34,0,0,0-.33,1q.21,1.32-.66,1.32-2,0-1.32,3.3a3.06,3.06,0,0,0,1.54,2.64c.88,0,1,.3.44.88-.59.29-.59.37,0,.22a1.63,1.63,0,0,1,1.76.66,2.14,2.14,0,0,0,.77.55c.22.07.33,0,.33-.11.44-.29.36-.59-.22-.88-.74-.29-.81-.73-.22-1.32.14-.29.58-.15,1.32.44a2.43,2.43,0,0,0,.44.66c.14.15.22.07.22-.22s.58-.44,1.76-.44c1.17.29,1.87.26,2.09-.11s-.11-.77-1-1.21a1,1,0,0,1-.66-1.1,1.31,1.31,0,0,1,1.32-.22.81.81,0,0,1,.66,1.1c0,.29.36.44,1.1.44a2.38,2.38,0,0,1,1.76.66c1,.3-1,.95-5.94,2a.89.89,0,0,1-.66.22.6.6,0,0,0-.44.22l-.22.22h-.44a1.26,1.26,0,0,1-.88.22c0,.29-.37.44-1.1.44a2.6,2.6,0,0,0-1.65.44,2.43,2.43,0,0,0-.66,1.76,16.78,16.78,0,0,0,.33,4q.43,2.64,1.1,7.26.66,3.3,1,5.39c.22,1.39.36,2.57.44,3.52s.14,1.76.22,2.42.18,1.43.33,2.31.29,1.69.44,2.86.29,2.27.44,3.3a13.3,13.3,0,0,1,.55,3.3c.07,1.32.18,2.49.33,3.52,0,2.49.14,3.89.44,4.18a6.88,6.88,0,0,1,.44,2.86,14.93,14.93,0,0,0,.11,2c.07.59.11.95.11,1.1C537.56,313.11,537.63,313.77,537.05,313.77Zm-107.14-2.2a.39.39,0,0,0,.44-.44c0-.15,0-.22-.11-.22s-.11-.07-.11-.22v-.22q-.45,0-.66.66A.39.39,0,0,0,429.91,311.57Zm5.5-4.84c.44-.44.29-.66-.44-.66a.58.58,0,0,0-.66.66,5.49,5.49,0,0,1-.55,1.32c-.37.73-.77,1.61-1.21,2.64a25.8,25.8,0,0,0-1.65,3.63c-.08.37.25.55,1,.55a2.32,2.32,0,0,0,1-.11c.07-.07,0-.48-.11-1.21a1.72,1.72,0,0,1,.66-2.2c.58-.44.73-.73.44-.88s-.37-.15.22-.44a5.26,5.26,0,0,0,.88-1.32,2.66,2.66,0,0,1,.22-1A2.88,2.88,0,0,0,435.41,306.73Zm.88,19.8c.44-.44.88-.15,1.32.88a3.77,3.77,0,0,1,.66,1.54c0,.29-.37.73-1.1,1.32l-1.32,1.1v-1.1q-.45-1.32-1.32-1.32c-.88,0-1.29-.26-1.21-.77s.55-.77,1.43-.77C435.77,327.11,436.29,326.82,436.29,326.53Zm.22-2.42c-.3,1.61-.74,2.13-1.32,1.54-.3-.29-.3-.77,0-1.43a2.38,2.38,0,0,1,.88-1.21C436.51,323,436.65,323.38,436.51,324.11Zm-.88-18.7c.44,0,.66-.15.66-.44,0-.44-.15-.66-.44-.66s-.44.22-.88.66C435,305.26,435.19,305.41,435.63,305.41Zm.44-2c.29.29.47.4.55.33a8.57,8.57,0,0,0,.55-1.43c.14-.73.18-1.1.11-1.1s-.26.22-.55.66C436.14,302.77,435.92,303.28,436.07,303.43Zm2,15a.73.73,0,0,0,.22-.88c-.15-.15-.19-.26-.11-.33s.18,0,.33.33c.58.15.29,1.1-.88,2.86-.44.59-.59.44-.44-.44a1.58,1.58,0,0,0,.33-.55,1.33,1.33,0,0,1,.33-.55A.66.66,0,0,0,438.05,318.39ZM437.61,305c.29,0,.44-.22.44-.66s-.08-.44-.22-.44-.37.15-.66.44C437.17,304.75,437.31,305,437.61,305Zm2.2,17.6c0,.29-.26.48-.77.55a1.16,1.16,0,0,1-1.21-.55.62.62,0,0,1-.22-.44C439.07,321.69,439.81,321.84,439.81,322.57Zm-.88-24.2a.2.2,0,0,0,.22-.22c-.59-.29-1-.29-1.1,0-.3,0-.41,0-.33.11a.87.87,0,0,0,.55.11Zm1.1,16.72a4.2,4.2,0,0,1-.88,1c-.3.22-.44.18-.44-.11s.29-.51.88-1.1C440,314.58,440.17,314.65,440,315.09Zm0,13a.78.78,0,0,1,.88.88q0,1.53-1.32.66a1,1,0,0,1-.33-1C439.33,328.25,439.59,328.07,440,328.07Zm.22,2.86c.58,0,.66.22.22.66,0,.29-.3.44-.88.44-.3,0-.3-.15,0-.44A.58.58,0,0,1,440.25,330.93Zm-.44-12.54c0-.29.22-.44.66-.44l.88.44c0,.15-.3.37-.88.66S439.81,319.12,439.81,318.39Zm5.06-9.68q1.32-.43-.66,2.86a17.62,17.62,0,0,0-2.2,4.84c-.15,1.17-.44,1.39-.88.66-.3-.29-.3-1,0-2.2s.22-1.54-.22-1.54c-.3.29-.44,0-.44-.88s.14-1.32.44-1.32.44-.29.44-.88.36-.81,1.1-.66,1.1.22,1.1-.22S444,308.71,444.87,308.71ZM442,312.23c.29,0,.44-.29.44-.88s-.08-.88-.22-.88c.14,0-.08.29-.66.88C441.57,311.94,441.71,312.23,442,312.23Zm1.54-5.5c-.3,0-.44-.22-.44-.66s.14-.66.44-.66a.66.66,0,0,1,0,1.32Zm4.62-6.16c.58-.59.8-.95.66-1.1a1,1,0,0,0-1.21-.11,1.06,1.06,0,0,0-.77,1C446.85,300.94,447.29,301,448.17,300.57Zm.66-3.3c.14-.44,0-.66-.44-.66a.58.58,0,0,0-.66.66.7.7,0,0,0,.66.44h.22Zm2.2,4.4a6.34,6.34,0,0,1,1.32-3.63c.88-1.25,1.61-1.65,2.2-1.21a12.33,12.33,0,0,1-.77,2.53c-.52,1.39-.92,2.16-1.21,2.31q-.45,0-.66.66c-.15.44-.3.88-.44,1.32a5.3,5.3,0,0,1-1.1,1.76c-.44.44-.66.29-.66-.44a1.81,1.81,0,0,1,.66-1.1A3,3,0,0,0,451,301.67Zm2.86-7.7c.44,0,.58-.22.44-.66-.3-.29-.52-.44-.66-.44-.44,0-.66.15-.66.44S453.3,294,453.89,294Zm.44-2.2a2,2,0,0,0,1.1-1.43c.14-.66,0-.92-.44-.77s-.66.59-.66.88a1,1,0,0,1-.66,1.1c-.44.44-.59.66-.44.66A1.52,1.52,0,0,0,454.33,291.77Zm1.54-2.86c.58,0,.88-.44.88-1.32,0-.73-.3-1.1-.88-1.1a1.71,1.71,0,0,0-.66,1.54C455.21,288.62,455.43,288.91,455.87,288.91Zm10.78-37.84c.29-.73.14-.95-.44-.66-.3.3-.44.22-.44-.22,0-.59-.3-.48-.88.33a3.92,3.92,0,0,0-.88,1.65c0,.73.44.88,1.32.44S466.65,251.66,466.65,251.07Zm.88-2a.36.36,0,0,0-.22-.33,1.13,1.13,0,0,1-.44-.55c-.44,0-.66.15-.66.44s.22.44.66.44Zm.88-6.38-.88,1.54c-.88.88-1,1.54-.22,2,.29.29.51.44.66.44l.22.22v-.66a2.27,2.27,0,0,1,.11-.77,2.55,2.55,0,0,0,.11-.77Zm2.86-4.84a11.15,11.15,0,0,0,1.1-2.64l.44-1.32-1.32,1.54c-.3.59-.59,1.14-.88,1.65a2.84,2.84,0,0,0-.44,1.43,3.79,3.79,0,0,1-.11.88,1,1,0,0,1-.55.66q-1.11.66,0,.66a.78.78,0,0,0,.88-.88c.14-.29.29-.62.44-1A10.4,10.4,0,0,1,471.27,237.87Zm2.42,10.78c0-.88-.15-1.25-.44-1.1a1.18,1.18,0,0,0-.77,1.1c-.08.59,0,.88.33.88S473.39,249.24,473.69,248.65Zm.44-2c.73-.29.95-.59.66-.88h-.22c-.15,0-.37.15-.66.44C473.47,246.67,473.54,246.82,474.13,246.67Zm.66-2c-.15.29.07.37.66.22s.88-.51.88-.66c0-.44-.22-.58-.66-.44A1.32,1.32,0,0,0,474.79,244.69Zm21.12.44a29.76,29.76,0,0,0-.66-4.18c-.15-1-.48-2.78-1-5.28s-1-5.06-1.43-7.7c-.44-2.49-.85-4.69-1.21-6.6a23.14,23.14,0,0,0-.77-3.3c-.15-.44-.55,0-1.21,1.32s-1.87,3.89-3.63,7.7c-.44,1-1.1,2.38-2,4.07s-1.69,3.34-2.42,5l-1.87,4.07a9.65,9.65,0,0,0-.77,1.87,5.49,5.49,0,0,1-.55,1.32,14.67,14.67,0,0,0-1,2.64c-1.18,2.05-1.76,3.37-1.76,4,0,.29.51.29,1.54,0a8,8,0,0,1,1.32-.33,3.76,3.76,0,0,0,1.1-.33q6.38-1.55,11.11-2.64C493.89,245.94,495.61,245.42,495.91,245.13Zm-18.48-5.94c-.44.29-.52.44-.22.44s.51.29.22.88c0,.59.14.88.44.88.58,0,.73-.15.44-.44s-.22-.66.22-1.1c.29-.29.29-.55,0-.77S477.87,238.9,477.43,239.19Zm13.64,33.88c0-.29-.3-.44-.88-.44-.74.29-1.1.59-1.1.88s.29.37.88.22A1.63,1.63,0,0,0,491.07,273.07Zm1.1-8.36c.58.44.66.37.22-.22s-1.1-1.1-1.54-1.1-.52.37-.22,1.1c0,.73.14.81.44.22C491.07,264,491.43,264,492.17,264.71Zm18-48.84a1.79,1.79,0,0,0,.22-1.1c-.3-.88-.44-.81-.44.22a2.27,2.27,0,0,0,.11.77C510.17,216,510.21,216,510.21,215.87ZM512,321c.14,0,.22-.22.22-.66a.39.39,0,0,0-.44-.44.39.39,0,0,0-.44.44Q511.52,321,512,321Zm1.76,18c0-.88.14-1,.44-.44a.8.8,0,0,1,0,1.1C513.87,340,513.73,339.8,513.73,339.07ZM514,234.13c.14,1,.36,1.61.66,1.76s.44-.29.44-1.32a2.38,2.38,0,0,0-.66-1.76C514.09,232.52,514,233,514,234.13Zm2.64,114.62c.44,0,.51-.37.22-1.1s-.52-1.32-.66-1.32v1.32C516.15,348.38,516.29,348.75,516.59,348.75Zm4.18-25.08c.29-.29.22-.44-.22-.44s-.66.15-.66.44.14.66.44.66a.2.2,0,0,0,.22-.22Zm-.22-26c-.15-.15-.22.15-.22.88s.07.88.22.88.44-.22.44-.66C521,298.08,520.84,297.71,520.55,297.71Zm2,11a2.26,2.26,0,0,0-.55-1.32c-.22-.15-.33.15-.33.88s.22,1.1.66,1.1C522.45,309.37,522.53,309.15,522.53,308.71Zm.44,18c-.15-.15-.44-.07-.88.22s-.37.58.22.44C522.89,327.11,523.11,326.9,523,326.75Zm-.22,4.18a2,2,0,0,0,.22-2c-.3-.74-.59-.85-.88-.33a2,2,0,0,0,0,1.87C522.23,331.51,522.45,331.66,522.75,330.93Zm0-42.46a.39.39,0,0,0-.44.44c0,.44.14.66.44.66s.44-.22.44-.66A.39.39,0,0,0,522.75,288.47Zm0,25.3c.29,0,.44-.22.44-.66,0-.73-.11-1.14-.33-1.21s-.41.26-.55,1S522.45,313.77,522.75,313.77Zm3.3,3.08a.89.89,0,0,1-.11.55.41.41,0,0,0-.11.33v.44a.2.2,0,0,0-.22-.22,1.25,1.25,0,0,1-.88-.22c-.59-.15-.74-.51-.44-1.1.44-.44.66-.51.66-.22,0,.59.14.44.44-.44C525.83,315.53,526.05,315.82,526.05,316.85Zm-.88,5.28q2-1.54,2,0c0,.44-.3.51-.88.22-.88-.29-1.1-.22-.66.22.14.44,0,.66-.44.66s-.66,0-.66-.11A5,5,0,0,1,525.17,322.13Zm-.44-2.64c0-.73.14-1,.44-.88a.9.9,0,0,0,.11.44,1.61,1.61,0,0,1,.11.66.66.66,0,0,1-.22.44v.22C524.87,320.37,524.73,320.08,524.73,319.49Zm1.32,7.48c.44,0,.66.36.66,1.1s-.15,1.32-.44,1.32a.2.2,0,0,1-.22-.22,1,1,0,0,0-.11-.44,1.46,1.46,0,0,1-.11-.66C525.83,327.33,525.9,327,526.05,327Zm.66,6.16a3.13,3.13,0,0,1,.11-1c.07-.22.18-.19.33.11v2C526.85,334.81,526.71,334.45,526.71,333.13Zm1.54-61.82c-.59,0-.59.29,0,.88s.8,1.1,1.1,1.1.36-.37.22-1.1a13.28,13.28,0,0,0-.55-2.86c-.22-.59-.48-.66-.77-.22s-.3,1,0,1.32C528.69,271,528.69,271.31,528.25,271.31Zm.66,27.28c.29.73.55,1.1.77,1.1s.18-.37-.11-1.1c0-.88-.3-1.32-.88-1.32S528.32,297.71,528.91,298.59Zm.88-48.4c-.3-.88-.44-.81-.44.22a2.24,2.24,0,0,0,.11.77c.07.22.11.18.11-.11.29,0,.44-.11.44-.33A.78.78,0,0,0,529.79,250.19Zm-.22,27.06c0,1.17.14,1.76.44,1.76s.44-.59.44-1.76-.15-1.54-.44-1.54S529.57,276.22,529.57,277.25Zm1.54,34.54c.44.59.29.88-.44.88-.44,0-.66-.29-.66-.88v-.44a.19.19,0,0,1,.22-.22C530.81,311.13,531.11,311.35,531.11,311.79Zm-.88-31.68c-.15.29-.08.44.22.44s.66-.15.66-.44c0-.44-.15-.66-.44-.66a.19.19,0,0,0-.22.22A.62.62,0,0,0,530.23,280.11Zm0,2.2c.29.73.58,1.1.88,1.1s.29-.37,0-1.1c0-.73-.22-1.1-.66-1.1C530.3,281.21,530.23,281.58,530.23,282.31Zm2,12.1c.44,0,.58-.73.44-2.2-.3-1.47-.66-2.35-1.1-2.64q-1.11-.66,0-.66c.29,0,.44-.37.44-1.1s-.15-.95-.44-1.1-.44.07-.44.66a13.62,13.62,0,0,1-.44,2.2c-.44.88-.37,1.17.22.88s.51-.15.22.44a2.12,2.12,0,0,0,.44,1.54,1.28,1.28,0,0,1,.44.88V294C531.69,294.26,531.77,294.41,532.21,294.41Zm-.66-9.24c0-.88-.15-1.32-.44-1.32-.59,0-.59.73,0,2.2,0,.29.07.33.22.11A1.86,1.86,0,0,0,531.55,285.17Zm-.44,28.6c0-.44.14-.51.44-.22a.72.72,0,0,1,.44.66c0,.15-.15.22-.44.22S531.11,314.21,531.11,313.77Zm0,3.74c0-1.76.22-1.91.66-.44.29.88.22,1.39-.22,1.54S531.11,318.54,531.11,317.51Zm1.54-53.9c.88-.73,1.61-.88,2.2-.44s.36.73-.66.88c-1.18.44-1.87.59-2.09.44S532.06,264.05,532.65,263.61Zm.44-13.2c0-.59.44-.66,1.32-.22a2.14,2.14,0,0,0,.77.55q.33.1.33.33c0,.15-.37.22-1.1.22S533.09,251,533.09,250.41Zm3.74,87.78c0,.44-.15.51-.44.22a1.79,1.79,0,0,1-.44-1.32c0-.59.22-.66.66-.22A1.6,1.6,0,0,1,536.83,338.19Zm0-88.44c.73-.29.88-.07.44.66s-.63.92-1,1-.41-.18-.11-.77A3.16,3.16,0,0,1,536.83,249.75Zm0,65.12c.44,0,.66.59.66,1.76.29,1,.22,1.54-.22,1.54l-.22-.44c-.15,0-.22-.51-.22-1.54Q536.38,314.87,536.83,314.87Zm-.22,25.74c0-.59.07-.66.22-.22a.55.55,0,0,1,0,.88C536.68,341.41,536.61,341.19,536.61,340.61Zm2.2-79.42c.44-.44.44-.37,0,.22-.74,1-1.25,1.1-1.54.22-.15-.15-.22-.25-.22-.33s.07,0,.22.11C537.71,261.71,538.22,261.63,538.81,261.19Zm-1.76,82.06c0-1.32.22-1.47.66-.44.29.29.4.55.33.77s-.19.33-.33.33Q537.05,344.57,537.05,343.25Zm2-93.72c.73-.29,1.13-.4,1.21-.33a2.25,2.25,0,0,1,.11,1c0,.59-.26.92-.77,1a1.13,1.13,0,0,1-1.21-.77C538.37,249.82,538.59,249.53,539,249.53Zm.88,12.32c.44,0,.51.15.22.44a.66.66,0,0,1-.22.44l-.22.22c-.3,0-.44-.22-.44-.66S539.47,261.85,539.91,261.85Zm1.1-5.06c-.3,0-.37-.15-.22-.44a.64.64,0,0,1,.22-.44l.22-.22v.22c0,.15,0,.22.11.22s.11.08.11.22A.39.39,0,0,1,541,256.79Zm.66-6.16c-.3,0-.44-.22-.44-.66s.14-.59.44-.44l.22.22a.62.62,0,0,0,.22.44.66.66,0,0,1-.22.44Zm.66,10.12a1.9,1.9,0,0,1,.66,1.32c-.59.29-.88.37-.88.22l-.44-1.1C541.67,260.6,541.89,260.46,542.33,260.75Zm-.22-4.84c0-.59.14-.73.44-.44a.9.9,0,0,1,.44.88C542.4,257.08,542.11,256.94,542.11,255.91Zm5.06,1.1c.29.59.22.88-.22.88h-1a1.37,1.37,0,0,0-1,.44c-.88,0-1.32-.15-1.32-.44q-.66-.88,1.32-.66c1,0,1.54-.15,1.54-.44S546.87,256.57,547.17,257Zm-2.86-1.1c-.15.3-.3.37-.44.22a.89.89,0,0,1-.22-.66c0-.59.22-.88.66-.88a.66.66,0,1,1,0,1.32Zm1.32,4.62c0-.59.14-.73.44-.44.14,0,.22.22.22.66C545.85,261.34,545.63,261.26,545.63,260.53Z" transform="translate(-283.7 -173.47)" style="fill:#2b354f"/><path d="M659.59,186.39a4.37,4.37,0,0,1,2.09,2.31c.22.81,0,2.24-.77,4.29s-1.58,4.8-2.53,7.81-1.84,6-2.64,8.91-1.54,5.72-2.2,8.36-1.14,4.77-1.43,6.38c-.3,1.18-.52,2.2-.66,3.08a12,12,0,0,1-.66,2.42,11.5,11.5,0,0,0-.66,2.2c-.59,0-.66.22-.22.66a2.07,2.07,0,0,1,.22,1.21,11.18,11.18,0,0,1-.22,2.09c-.15.73-.3,1.47-.44,2.2a7.4,7.4,0,0,1-.44,1.54c-.3.59-.48.84-.55.77a6.91,6.91,0,0,1-.55-1.43,1.9,1.9,0,0,0-.88-1.43c-.44-.22-.66,0-.66.77s0,1-.55.88a1.5,1.5,0,0,1-1-1.32c-.3-1.32-.48-2.05-.55-2.2s-.26.07-.55.66c-.59,1-1,1.21-1.21.55a22.63,22.63,0,0,1-.11-5.61l.22-2-.66,2.2c-.44,2.64-1.18,3.67-2.2,3.08a3.72,3.72,0,0,1-.88-.11,3.37,3.37,0,0,0-.66-.11,11.83,11.83,0,0,1-3.52-1.1c-1.76-.73-2.72-1.25-2.86-1.54a1,1,0,0,1-.44-.11,1.06,1.06,0,0,0-.44-.11,2.15,2.15,0,0,1-1.1-.44,15.07,15.07,0,0,0-1.54-.88c-1.32-.88-2.06-1.17-2.2-.88s-.3-1.91-.44-6.16a9.16,9.16,0,0,1,.22-1.76,13.54,13.54,0,0,1,.44-1.76,15.92,15.92,0,0,0,.44-2.42c.14-1.17.29-2.57.44-4.18.29-1.32.51-2.49.66-3.52a4.36,4.36,0,0,1,.44-1.76,1.72,1.72,0,0,0,.44-1.54c-.15-.44-.52-.59-1.1-.44a8.4,8.4,0,0,1-1.32-.11,7.37,7.37,0,0,0-1.1-.11.87.87,0,0,1-.55-.11.49.49,0,0,0-.33-.11h-.22c0,.44-.74.81-2.2,1.1a55.82,55.82,0,0,0-18.92,6.82,60.67,60.67,0,0,0-6.27,3.74c-1.69,1.17-3.93,2.94-6.71,5.28q-2.21,2-5,4.84T580,233.14q-2.43,3-4,5.28a8.27,8.27,0,0,0-1.54,3c0,.29,1.61.81,4.84,1.54s6.67,1.39,10.34,2q13.2,2.21,13.42,3.52c0,.29.36.44,1.1.44A6.84,6.84,0,0,1,608,250a42.28,42.28,0,0,1,5.5,3.52c2,1.47,4,3,5.94,4.73a39.78,39.78,0,0,1,4.95,4.95,43.64,43.64,0,0,0,3.19,3.74q1.86,2,3,3.3a64.17,64.17,0,0,1,7.59,9.68,20.39,20.39,0,0,1,3,8.36,22.45,22.45,0,0,1-1.21,10.23,55.67,55.67,0,0,1-5.28,11.22,66.76,66.76,0,0,1-8.36,10.89,58.91,58.91,0,0,1-10.67,9A55.35,55.35,0,0,1,603.27,336a73.5,73.5,0,0,1-13.42,3.08,61.25,61.25,0,0,1-6.16.55c-2.06.07-3.6.11-4.62.11a27.55,27.55,0,0,1-7.48-1.43,15,15,0,0,1-5.06-3.85q-1.32-1.32-3.63-3.74a52.07,52.07,0,0,0-4.73-4.4q-2-2.21-4-4.18a31.78,31.78,0,0,1-2.64-2.86q-3.3-3.74-1.32-6.82l.88-1.32,2.42,2.42a27.55,27.55,0,0,0,5,4.29,8.76,8.76,0,0,0,4.07.77c.88,0,2.12,0,3.74-.11s3.3-.18,5.06-.33,3.41-.33,5-.55a16.26,16.26,0,0,0,3.41-.77,3.7,3.7,0,0,1,1.54-.77c.73-.22,1.46-.48,2.2-.77a12.86,12.86,0,0,1,2.2-.66,3.13,3.13,0,0,0,1.54-.66,28.33,28.33,0,0,0,5.61-2.53q3.84-2.08,6.93-4.07a66.23,66.23,0,0,0,8.58-7.15,48.58,48.58,0,0,0,6.82-8,41.17,41.17,0,0,0,3.63-5.83,43.37,43.37,0,0,0,2.64-6.16,30.73,30.73,0,0,0,1.32-5.28,5.33,5.33,0,0,0-.33-3.41,4.59,4.59,0,0,0-1.87-1.32c-1-.44-2.17-.92-3.63-1.43s-3-1-4.62-1.43-3.16-.81-4.62-1.1q-7-1.1-11.44-2c-2.94-.59-6.09-1.39-9.46-2.42a63.61,63.61,0,0,1-6.16-2.09,36.89,36.89,0,0,1-4.18-2,17.05,17.05,0,0,1-3.3-2.42q-1.54-1.43-3.3-3.41c-.88-1-2.17-2.49-3.85-4.4s-3.34-3.67-5-5.28a89.93,89.93,0,0,1-6.6-7.7,6.77,6.77,0,0,1-1.32-4.62,20.16,20.16,0,0,1,.77-4.4,21.89,21.89,0,0,1,2.53-4.84,34.29,34.29,0,0,1,4.4-6.16q2.85-3.3,6.16-6.6t6.82-6.27a75.81,75.81,0,0,1,6.82-5.17,72.23,72.23,0,0,1,24.31-10.45,58.85,58.85,0,0,1,25-.55,19.62,19.62,0,0,0,3.08.55c.88.07,1.39.11,1.54.11q0-.88,2-4.84a29.65,29.65,0,0,1,2.86-5.61c.88-1.25,1.46-1.58,1.76-1,0,.44.29.66.88.66a3.88,3.88,0,0,1,1.54.66c.73.44,1.54,1,2.42,1.65s1.65,1.28,2.31,1.87,1.13,1,1.43,1.32c.44.88,1,1.1,1.76.66a1.38,1.38,0,0,1,.88-.11c.14.07.29.48.44,1.21,0,1.17.14,1.61.44,1.32a.52.52,0,0,1,.55.33,1.27,1.27,0,0,0,.33.55q0,1.32.66,0c.44-.73.88-1,1.32-.88A21.1,21.1,0,0,1,659.59,186.39Zm-82.5,36.74c-1,.73-1.32,1.1-.88,1.1C576.5,224.23,576.79,223.86,577.09,223.13Zm66.44,2.2c0-1.17-.15-1.54-.44-1.1a4.3,4.3,0,0,0-.44,2q.21.43,0,.66t-.66,0c-.59-.15-.88-.07-.88.22s.29.66.88,1.1c.44.29.77.26,1-.11A8.53,8.53,0,0,0,643.53,225.33Zm.66-4.84a7.41,7.41,0,0,0,.44-1.76.2.2,0,0,0-.22-.22.19.19,0,0,0-.22.22,2.51,2.51,0,0,0-.44,1.76C643.89,221.22,644,221.22,644.19,220.49Zm1.1-4.84a3,3,0,0,0,.44-2c0-.44-.22-.37-.66.22a3.79,3.79,0,0,1-.11.88,3.32,3.32,0,0,0-.11.88C644.85,216.24,645,216.24,645.29,215.65ZM660,188.81c.44,0,.58-.29.44-.88a.45.45,0,0,0-.11-.33.41.41,0,0,1-.11-.33v-.22c.14,0-.08.29-.66.88C659.59,188.52,659.73,188.81,660,188.81Z" transform="translate(-283.7 -173.47)" style="fill:#2b354f"/><path d="M777.5,178a5.34,5.34,0,0,1,.78,2.31,19.77,19.77,0,0,1-.33,4.07c-.45,5.28-1.21,11.88-2.32,19.8s-2.75,18.55-5,31.9q-1.53,8.14-2,11.22c-.3,2-.3,3.38,0,4,.29,1,.29,1.54,0,1.54-.45,0-.81.51-1.1,1.54a11.75,11.75,0,0,0-.44,3.3,3.3,3.3,0,0,1-.45,2.86l-.43,1.54q.44.44-.45,2a24.3,24.3,0,0,0-1.09,4.62,51.42,51.42,0,0,1-1.1,5.28c-.44,1.61-.81,2.35-1.11,2.2-.29,0-.43-.48-.43-1.43a19.43,19.43,0,0,1,.43-3.63c.3-1.17.22-1.76-.21-1.76s-.66.33-1.11,1-.51,1.21-.22,1.65c.15.29,0,.81-.43,1.54s-.44.88,0,.88.43.44,0,1.32a6.17,6.17,0,0,0-.89,1.54,1,1,0,0,1-.1.44.91.91,0,0,0-.12.44,3.35,3.35,0,0,0-.33,1.87c.08.66.26,1.06.55,1.21s.23.22-.22.22-.73.51-.88,1.54.08,1.69.67,2c.14.29.07.44-.22.44-.45,0-.66.44-.66,1.32a7,7,0,0,1-.88,2.42c-.74.73-.81,1.1-.23,1.1q.45,0,.45.66c-.15.15-.08.51.21,1.1s.63.84,1,.33a4.53,4.53,0,0,0,.54-2.53c0-1.61.15-2.57.45-2.86a10.47,10.47,0,0,0,.66-2.64c0-1.61.14-2.57.43-2.86a3.84,3.84,0,0,0,.45-1.76,2.69,2.69,0,0,1,.66-2c.29-.29.47-.33.55-.11a7.83,7.83,0,0,1-.12,2.09,28.21,28.21,0,0,1-.21,3,16.62,16.62,0,0,1-.66,3.19,39.38,39.38,0,0,0-.77,4.95c-.08,1.1-.26,2.53-.56,4.29-.14.73-.29,1.65-.43,2.75a11.94,11.94,0,0,1-.66,2.75,5.51,5.51,0,0,0-.45,2.09v1.43c0,.15,0,.51-.1,1.1a10.31,10.31,0,0,1-.45,1.87c-.21.66-.4,1.28-.54,1.87s-.3.88-.45.88c-.43,0-.69-.15-.76-.44a.89.89,0,0,1,.33-.88c.43-.88.88-4.25,1.32-10.12a14.14,14.14,0,0,1,.43-4.62c.45-.44.3-.66-.43-.66-.3,0-.63.73-1,2.2a5,5,0,0,0-.12,3.08c.3.29.08.44-.66.44-.43,0-.66.66-.66,2,.3,1,.23,1.76-.22,2.2a1.81,1.81,0,0,0-.21,1.1c.43.44.36,1-.22,1.54a2.8,2.8,0,0,0-.23,2.42c.3,1.17.23,1.76-.21,1.76s-.59.81-.88,2.42c-.15,2.64-.52,4.11-1.1,4.4s-.59.44,0,.44c.43,0,.65.15.65.44s-.29.44-.88.44a.72.72,0,0,1-.66-.44,5.24,5.24,0,0,1,.23-2.42q.43-3.07-.45-3.3-.21-.44-.33-.33t.12.33q.21.43-.66,1.32a.64.64,0,0,1-.45.22.2.2,0,0,0-.22.22v-.44a1.84,1.84,0,0,0-.1-.55,2.27,2.27,0,0,1-.11-.77c0-1,.43-1.61,1.32-1.76s1.54-.66,1.54-1.54a1.76,1.76,0,0,0-.44-1.43c-.3-.22-.45,0-.45.55,0,.29-.29.44-.88.44s-.88-.15-.88-.44a.59.59,0,0,1,.67-.66c.44,0,.44-.29,0-.88a2.28,2.28,0,0,1,0-2c.44-.44.36-.81-.22-1.1s-.37-.44.22-.88.51-.66.21-.66-.66-.29-.66-.88a.78.78,0,0,1,.89-.88c.58,0,.65.22.22.66s-.22.59.21.44c.59-.29.52-1-.21-2.2a9.66,9.66,0,0,1-.66-1.43c0-.07.21,0,.66.33q2,1.54.43-1.1c-.43-.73-.36-1.1.23-1.1.29,0,.22-.15-.23-.44s-.36-.44.23-.44.88-.22.88-.66-.15-.66-.45-.66a.59.59,0,0,1-.66-.66c0-.59.23-.88.66-.88s.52-.59.23-1.76c-.15-1.47,0-2.27.43-2.42s.3-.22,0-.22a.59.59,0,0,1-.66-.66c0-.29.23-.37.66-.22.15.29.22.37.22.22a1.6,1.6,0,0,0-.22-.66c-.14-.59.15-.88.88-.88a.94.94,0,0,0,.88.33q.45-.11.45-.33c.29-.59.29-.73,0-.44a2.64,2.64,0,0,1-1.54-.33c-.3-.22-.37-.77-.22-1.65s.14-1.54.43-1.54c.45,0,.52-.59.22-1.76a1.5,1.5,0,0,1,.23-1.76,2.57,2.57,0,0,0,.43-1.76,3.57,3.57,0,0,1,.45-2.86c.43-1,.43-1.61,0-1.76q-.45,0-.45-.33a7.62,7.62,0,0,1,.45-1.65q1.32-3.08-.45-3.08c-.43,0-.88,1-1.31,2.86q-.22,3.08-.66,2l-.45-.88-.43,1.1a4.31,4.31,0,0,0-.45,2c.3.44.15,1.32-.43,2.64q-.45,2,0,2c.29,0,.22.51-.23,1.54s-.73,1.69-.43,2c0,.15-.15.22-.45.22s-.43.37,0,1.1c.59.59.67,1,.22,1.1A1.33,1.33,0,0,0,750,285c0,.44.08.7.22.77s.3,0,.45-.33.44-.44.44,0a2.43,2.43,0,0,1-.89,1.54c-.88.44-1,.66-.22.66s.67.22.22.66a1.63,1.63,0,0,0-.65.55,4.59,4.59,0,0,1-.44.55,3.18,3.18,0,0,1-.67,2q-.44,1.32-.21,1.32c.29,0,.14.29-.45.88q-.64,1.1,0,.66c.45-.15.81.07,1.11.66q.87,1.75,0,.66c-.74-.59-1.18-.29-1.33.88a13.85,13.85,0,0,1-.11,1.65,16,16,0,0,0-.1,1.65,11.86,11.86,0,0,1-.66,3.74c-.45,1.32-.81,1.83-1.1,1.54a.39.39,0,0,0-.44.44c0,.29-.37.44-1.1.44a2.54,2.54,0,0,0-1.77.88c-.58.59-.73,1-.43,1.32.29,0,.33.33.1,1s-.55,2-1,4.07a3.81,3.81,0,0,0-.45,1.1v1.32q0,.89-.21.66c-.3-.29-.59,0-.88.88a9.56,9.56,0,0,0-.45,3.08c0,2.05-.43,2.79-1.32,2.2a1.58,1.58,0,0,1,.23-1.32c.43-.44.43-.73,0-.88q-.23-.22-.45.33c-.14.37-.29.77-.43,1.21a4.08,4.08,0,0,0-.23,1.32,1.26,1.26,0,0,0,.23.88,1,1,0,0,1-.23,1.1c-.43.44-.65,1.54-.65,3.3-.3,2-.66,2.93-1.11,2.64a.44.44,0,0,0-.33.11c-.07.07,0,.11.12.11a4.94,4.94,0,0,1,.33,1.43,18.75,18.75,0,0,1,.1,2v1.87c0,.58-.07.88-.22.88s-.43.44-.43,1.32-.15,1.24-.44.66a.59.59,0,0,0-.67.66c0,.73.22.95.67.66.29-.3.36.07.21,1.1a12.94,12.94,0,0,0-.43,2.2.59.59,0,0,1-.66.66c-.45,0-.48.29-.12.88a3.41,3.41,0,0,0,1.66,1.32q1.32.66.21.66c-.58,0-.87.14-.87.44s-.45.73-1.33,1.32a2.55,2.55,0,0,1-2.85,0,2.19,2.19,0,0,0-2.65,0c-.73.44-1,.36-.88-.22.45-.3.37-.59-.21-.88s-.45-1.76,0-4c.14-1,.29-2.28.43-3.74s.3-2.79.45-4a19.78,19.78,0,0,1,.21-3.08q.23-1.32.45-1.32c.43-.15.29-.59-.45-1.32-.73-.3-1.13-.63-1.21-1s.26-.41,1-.11c.58,0,.87-.15.87-.44,0-.44-.36-.66-1.09-.66-.45,0-.59-.44-.45-1.32a3.5,3.5,0,0,0,.45-1.54l.22-.22c.14,0,.21,0,.21-.11s.08-.11.23-.11c.58,0,.88-.37.88-1.1s-.3-1.1-.88-1.1-.66-.22-.23-.66a6,6,0,0,0,.23-1.87c0-.81.07-2.24.22-4.29a9,9,0,0,1,.33-1.76c.07-.15.33.07.76.66s.48.88.55.88.11-.37.11-1.1q-.43-1.32-.66-1.32c-.29,0-.4-.59-.33-1.76a5.29,5.29,0,0,1,.56-2.42.73.73,0,0,0,.22-.88c-.3,0-.45-.51-.45-1.54a16.07,16.07,0,0,1,.45-3.52c.29-2.49.55-4.62.76-6.38s.41-3.26.56-4.51.29-2.38.43-3.41.3-2.13.45-3.3a27.88,27.88,0,0,1,.33-3.74c.22-1.61.43-3.26.65-4.95l.66-4.84c.23-1.54.41-2.6.55-3.19l.45-1.54-4.41.44q-1.75.23-3.63.33c-1.24.08-2.23.11-3,.11a26.68,26.68,0,0,1-3.42.44c-1.68.15-3.41.37-5.17.66s-3.41.55-5.38.77-3.49.4-4.52.55a17,17,0,0,1-2.85.22,7.58,7.58,0,0,0-2.2.22c-1.18.15-1.91.51-2.21,1.1a33.24,33.24,0,0,0-1.31,5.72c-.3,1.17-.59,2.49-.89,4s-.58,2.86-.88,4.18-.55,2.42-.76,3.3-.41,1.32-.55,1.32c-.3,0-.63-.26-1-.77s-.41-.77-.12-.77.3-.33.45-1a20.19,20.19,0,0,0,.33-2.2,10.36,10.36,0,0,0,0-2.09c-.08-.59-.19-.88-.33-.88-.3,0-.45.29-.45.88a1,1,0,0,1-.66,1.1c-.29.15-.29.22,0,.22s.37.33.23,1a2.24,2.24,0,0,1-.88,1.43c-.3.29-.15.44.43.44.88,0,1,.15.45.44a5.55,5.55,0,0,0-1,1.76,3.54,3.54,0,0,0-.33,2.2c.14.29.14.44,0,.44a.64.64,0,0,1-.45-.22c-.29-.29-.43-.22-.43.22,0,.59.21.88.66.88.58.29.58.44,0,.44s-.74.22-.45.66c.3.59.22.88-.21.88a.39.39,0,0,0-.45.44,21.88,21.88,0,0,1-.43,2.64,7.17,7.17,0,0,1-.88,3.08c-.45,1-.45,1.76,0,2.2a1.51,1.51,0,0,1-.23,2,2,2,0,0,1-1.76,1c-.58-.07-.87-.48-.87-1.21q0-.66-.45-.66c-.29,0-.43.44-.43,1.32s-.37,1.32-1.11,1.32c-.58,0-.65-.15-.22-.44.59-.29.88-1.54.88-3.74.15-.88.26-1.72.33-2.53a3.16,3.16,0,0,1,.33-1.43q.22-.66-.21-.66l.43-.44c.3-.29.23-.73-.22-1.32s-.58-.95,0-1.1.67-.81.67-2v-2c.14,0,.21-.37.21-1.1v-4.4c0-.73-.07-1.1-.21-1.1,0-.44-.37-.29-1.1.44-.44.59-.37.81.22.66.43-.29.43-.22,0,.22q-.88.89-1.11,0c-.43-.44-.73-.22-.88.66,0,1,.15,1.54.45,1.54.58,0,.88.15.88.44s-.3.44-.88.44c-.45-.29-.81,0-1.1.77a8.61,8.61,0,0,0-.44,3q0,1.32-.45,1.32t-1.76,10.34c0,.59-.14.88-.43.88s-.23.15-.23.44a3.31,3.31,0,0,1,0,2.42c-.29,1-.73,1.54-1.31,1.54-1,0-1,.15.22.44.73.44.8.73.21.88h-1.09q-.45-.23-.33.33a1,1,0,0,0,.54.77c.3.15.08.22-.66.22s-1-.15-.88-.44-.07-.44-.66-.44a1.43,1.43,0,0,0-.88,1.76,5.55,5.55,0,0,1-.43,2.42c-.44.44-.74,1.58-.89,3.41s0,2.75.45,2.75q.21,0,.66-.66c0-.59.21-.66.66-.22a.67.67,0,0,1,0,1,1.6,1.6,0,0,1-1.32.55c-.88,0-1.33.22-1.33.66s-.36.44-1.09,0a2.56,2.56,0,0,0-1.76.44c-.15.44-.23.44-.23,0,0-.88-.22-.88-.65,0-.3.59-1.47.88-3.53.88s-3.29-.37-3.29-1.1l-.88-.66c-.45.44-.66.29-.66-.44a1,1,0,0,1,1.09-1.1h.45c-.15-.29.14-.73.88-1.32q.87-.66.66-.66c-.45,0-.66-.29-.66-.88s-.37-.81-1.1-.22c-.3.29-.52.44-.66.44s-.08-.07.21-.22a4.12,4.12,0,0,0,.34-1.21,15,15,0,0,1,.33-1.65q.43-5.28.76-6.93t1-1.65c.45,0,.52-.15.22-.44s-.58-1.17-.43-2.64a25.15,25.15,0,0,0,.43-2.53c.15-1.1.3-2.16.45-3.19s.29-2,.44-3a17.73,17.73,0,0,0,.22-1.87,10,10,0,0,0,.33-2q.11-1.32.33-2.64.21-1.1.33-2.31a5,5,0,0,1,.33-1.65,20.92,20.92,0,0,1,.22-2.09,28,28,0,0,1,.66-3.41,24.19,24.19,0,0,1,.88-5.06c0-.59-.37-.88-1.11-.88a2.32,2.32,0,0,1-1.87-.66c-.36-.44-.25-.81.33-1.1s.23-.37-.65-.66q-1.11,0-1.11-2c0-1.17-.14-1.61-.43-1.32-.59.29-.74-.15-.44-1.32a2.56,2.56,0,0,0-1.1-2.64c-.88-.58-1.32-1.17-1.32-1.76q0-.66-.45-.66c-.29,0-.73-.51-1.31-1.54s-1.84-3.37-3.74-7q-1.55-4-1.1-4.18a.7.7,0,0,0,.43-.66q-1.1-1.55,8.14-1.76c1.91-.15,3.64-.29,5.18-.44a24.85,24.85,0,0,0,3.18-.44l1.54-.44,1.33-8.58q.87-5.72,2.42-14.74t3-17.6q1.44-8.58,2.54-14.74a47.67,47.67,0,0,1,1.32-6.38c.14,0,.69-.07,1.64-.22a20.8,20.8,0,0,1,3.2-.22,19.24,19.24,0,0,1,4.06,0,11.78,11.78,0,0,1,2.53.66,3.06,3.06,0,0,0,3.09.44c.44-.44,1.39-.22,2.86.66l2,1.54-.43-1.32a1.16,1.16,0,0,1,1.31-1.32,3.86,3.86,0,0,1,3.08.44,11.83,11.83,0,0,0,2.42.44,2.15,2.15,0,0,1,1.54.44,5.23,5.23,0,0,1,.88,2.53,29.92,29.92,0,0,1-.33,6.27q-.54,4.62-1.76,13.53t-3.41,24.31c-.43,2.93-.76,5.43-1,7.48s-.26,3.08-.11,3.08q.21.44,1.65.33c.95-.07,2.09-.18,3.4-.33,2.65-.44,5.28-.77,7.92-1s6.09-.48,10.35-.77c1.61,0,3.26-.07,4.94-.22s3-.29,3.86-.44l3.3-.22.87-5.06q1.77-8.81,3.63-18.37t3.53-17.71c1.09-5.43,2-10,2.75-13.86a42.74,42.74,0,0,1,1.54-6.6c.73-3.37,1.54-4.77,2.42-4.18.29.29.43.22.43-.22,0-.14.41-.26,1.21-.33a19.53,19.53,0,0,1,2.87,0c1.09.07,2.16.19,3.19.33a8,8,0,0,1,2,.44,3.51,3.51,0,0,0,2,.22c.73-.29,1.61.07,2.64,1.1l1.75,1.1-.21-1.1c-.15-.73-.12-1.14.11-1.21a10.74,10.74,0,0,1,2.09-.11c1.61,0,2.42.22,2.42.66s.21.51.66.22,1-.18,1.64.33A7.22,7.22,0,0,1,777.5,178ZM669.26,323a2.07,2.07,0,0,0,.66-1.54c-.14-.29-.36-.22-.66.22a5,5,0,0,0-.43,1.65C668.83,323.71,669,323.6,669.26,323Zm2.42-9.68c.15-.15.08-.51-.22-1.1a.59.59,0,0,0-.66.66C670.8,313.77,671.1,313.92,671.68,313.33Zm2.65,5.06c.88.44.8.66-.22.66-.59,0-.81-.15-.66-.44A.72.72,0,0,1,674.33,318.39Zm.88-8.58a3.88,3.88,0,0,0-.12-1.43c-.07-.07-.25.11-.55.55-1,1.61-1,2.42,0,2.42C675,311.35,675.21,310.84,675.21,309.81Zm-.67,4.84c.45-.29.74-.07.88.66,0,.29,0,.48.12.55a.45.45,0,0,1,.11.33.19.19,0,0,0,.22.22,1.83,1.83,0,0,1-1.11-.66C674.18,315.46,674.11,315.09,674.54,314.65Zm.22,7.7a.9.9,0,0,1,.23-.66c.14-.15.22-.07.22.22a1.6,1.6,0,0,1-.22,1.32C674.69,323.52,674.62,323.23,674.76,322.35Zm1.32-18.26a1.59,1.59,0,0,0,0-1.65q-.44-.56-.87.33a2.33,2.33,0,0,0-.45,1.32q0,.66.45.66C675.35,304.75,675.65,304.53,676.08,304.09Zm-.66,3.52c.3,0,.45-.07.45-.22a.19.19,0,0,1-.22-.22c0-.15,0-.22-.11-.22s-.12-.07-.12-.22c-.43-.44-.66-.37-.66.22A.59.59,0,0,0,675.42,307.61Zm1.11-6.82a.38.38,0,0,0,.43-.44c0-.44-.29-.66-.88-.66s-.87.22-.43.66A.88.88,0,0,0,676.53,300.79Zm1.1-6.38c.29-.44.29-.81,0-1.1-1-.29-1.33.07-.88,1.1C677,295,677.33,295,677.63,294.41Zm-.67,4.84c.45,0,.67-.15.67-.44s0-.22-.12-.22-.1-.07-.1-.22v-.22q-.45,0-.66.66C676.6,299.1,676.67,299.25,677,299.25ZM682,318.17c0,.29-.23.44-.66.44s-.45-.29-.45-.88.15-.73.45-.44S682,317.88,682,318.17Zm3.73-9c.45,0,.59.44.45,1.32a2.12,2.12,0,0,0-.22,1v.77c0,.59-.3.59-.88,0-.3-.15-.3,0,0,.44.29.29.4,1,.32,2.09s-.32,1.65-.76,1.65-.52.73-.22,2.2c.14,1.47-.08,2.27-.66,2.42s-.66.07-.22.22.65.37.22.66a2.52,2.52,0,0,0-.88,1.76c0,.59-.12.95-.33,1.1s-.48,0-.78-.44a6.66,6.66,0,0,0-.1-.88,3.8,3.8,0,0,1,.1-1.54c0-1.47-.14-2.2-.43-2.2-.59,0-.3-.44.88-1.32a3.47,3.47,0,0,0,1.21-1.54,14.18,14.18,0,0,0,.54-3.08,16.13,16.13,0,0,1,.55-3.85A1.22,1.22,0,0,1,685.76,309.15Zm-3.08,3.74c-.58.29-.73-.07-.43-1.1a5.38,5.38,0,0,0-.45-2.42q-.43-.66.45-.66c.58,0,.91.62,1,1.87S683.13,312.6,682.68,312.89ZM682.46,294c-.14.29-.21,0-.21-.88q0-.88.21-.66A1.42,1.42,0,0,1,682.46,294Zm2.21-14.3a3.78,3.78,0,0,0-.77,3.41c.22,1.54.69,2.31,1.43,2.31.43,0,.66-.37.66-1.1s.07-.81-.23-.66-.36,0-.22-.44a1.26,1.26,0,0,0,.45-.88v-.88c0-.59.14-.88.43-.88.74,0,.66-.29-.21-.88-.45-.59-.74-.88-.88-.88S685,279.08,684.67,279.67Zm.44,25.08c.29.44.51.62.65.55s.08-.33-.22-.77-.51-.59-.66-.44-.21.07-.21.22S684.81,304.6,685.11,304.75Zm1.31-6.6c.59-.73.52-1-.21-.88-.45,0-.67.81-.67,2.42s-.14,2.13-.43,2-.3.22,0,.66c.29.73.58.81.88.22a2.36,2.36,0,0,0,0-2v-1.21A1.64,1.64,0,0,1,686.42,298.15Zm0-21.12a8.14,8.14,0,0,0,.45-2.64v-1a9,9,0,0,1-.45,1.21,21.88,21.88,0,0,0-.43,2.64V278A5.5,5.5,0,0,1,686.42,277Zm1.76,32.78a3.3,3.3,0,0,1,.66-1.65c.45-.66.81-.84,1.11-.55q.21.22,0,1.32c-.15.73-.3,1.54-.45,2.42s-.33,1.72-.54,2.53-.41,1.21-.55,1.21c-.15.15-.3.07-.45-.22a1,1,0,0,1-.1-.88,9.05,9.05,0,0,1,.32-1.32A4.65,4.65,0,0,0,688.18,309.81Zm1.32-27.28c.3-.29.3-.66,0-1.1-.14-.29-.21-.15-.21.44S689.36,282.68,689.5,282.53Zm2.87,9.46c1-.59,1.24-.22.66,1.1a15.12,15.12,0,0,0-.45,1.76,11.71,11.71,0,0,0-.21,2.2q-.23,1.09-.45,2.31a7.34,7.34,0,0,1-.66,2.09,19.31,19.31,0,0,0-.43,2.86c0,.73-.15,1.1-.45,1.1s-.51-1.17-.21-3.52a18.21,18.21,0,0,0,.21-2.86v-2.2a8,8,0,0,0,.33-1.32,2,2,0,0,1,.55-1.1c.59-.59.74-1.1.45-1.54C691.41,292.28,691.63,292,692.37,292Zm-.66-50.38c-.15.59-.08.66.21.22.74-.29.88-.66.45-1.1l-.22.22C691.85,241.24,691.71,241.46,691.71,241.61Zm1.75,40.48c0-.29-.21-.37-.66-.22-.88.44-.95.66-.22.66A.88.88,0,0,0,693.46,282.09Zm.45-4q0-.44-.45,0c-.58.15-.88.29-.88.44s.15.22.45.22C693.61,278.79,693.91,278.57,693.91,278.13Zm-.88,2.64c.29.29.43.07.43-.66s-.14-.88-.43-.88-.45.18-.45.55A1.34,1.34,0,0,0,693,280.77Zm0-3.74c-.45.44-.37.51.22.22a.59.59,0,0,0,.66-.66h-.23C693.54,276.59,693.32,276.74,693,277Zm.43-44.66c-.29-.88-.43-.81-.43.22,0,.73.14.95.43.66A.54.54,0,0,0,693.46,232.37ZM720.53,266c.29-.29.22-.44-.23-.44s-.65.15-.65.44v.44a.19.19,0,0,0,.22.22Q720.08,266.69,720.53,266Zm5.5-7-.66-.66q-.89-.66-.45,0c.3.44.08.59-.66.44a2.84,2.84,0,0,0-2.19,0L721,259l.67.44a3.51,3.51,0,0,0,2.3.22A4.1,4.1,0,0,0,726,259Zm-1.32,86.68c0-.59.14-.81.44-.66v1.32C724.85,346.62,724.71,346.4,724.71,345.67Zm1.09-7.92c.3.29.3.66,0,1.1-.14.73-.29,1.06-.43,1s-.15-.48,0-1.21S725.51,337.75,725.8,337.75ZM726,334c-.15.14-.23-.08-.23-.66s.08-.74.23-.44A.8.8,0,0,1,726,334Zm1.54-77.44c-.3-.29-.48-.4-.56-.33s0,.18.12.33a1.38,1.38,0,0,0,.77.66c.36.15.55.07.55-.22l-.23-.22a.44.44,0,0,1-.32-.11A.49.49,0,0,0,727.57,256.57Zm5.27,2.42,1.54-.66c.3,0,.52-.29.66-.88s-.21-1.1-.66-1.1q-1.1,0-.66.66c.3.44.26.7-.1.77a1.06,1.06,0,0,1-1-.33,1.4,1.4,0,0,0-1.43-.55c-.66.07-1,.26-1,.55,0,.44-.22.51-.67.22-.43-.44-.66-.37-.66.22-.43.29-.73.37-.88.22a.71.71,0,0,0-.87.22c-.3.3,0,.51.87.66a4.44,4.44,0,0,0,2.42-.22c1.33-.44,1.76-.14,1.33.88C731.75,260.24,732.11,260,732.84,259Zm-3.3,6.6c-.73.44-1.09.44-1.09,0q-.45-.66-.45,0c0,.73.15,1.1.45,1.1S729.25,266.32,729.54,265.59Zm-1.32,54.56c.3,1,.59,1.36.89,1a3.46,3.46,0,0,0,.22-2.31c-.3-.73-.59-1-.88-.88C728,318.39,727.93,319.12,728.22,320.15Zm1.32-8.8c.45,0,.67-.15.67-.44s0-.22-.12-.22-.1-.07-.1-.22v-.22q-.45,0-.66.66C729.33,311.2,729.4,311.35,729.54,311.35Zm1.76,31a.39.39,0,0,0,.45-.44,1.24,1.24,0,0,0-.45-.88c-.43-.15-.65,0-.65.44S730.87,342.37,731.3,342.37Zm-.43,2.2c.58-.3.66-.66.21-1.1-.29-.59-.43-.52-.43.22a2.57,2.57,0,0,0,.1.77C730.83,344.68,730.87,344.71,730.87,344.57Zm.88-4.62c.43-.15.51-.52.21-1.1-.14-.59-.36-.66-.66-.22a1.3,1.3,0,0,0-.22,1.21C731.23,340.2,731.45,340.24,731.75,340Zm0-8.58c-.45,0-.52.14-.22.44a.85.85,0,0,0,.88.66c.29,0,.36-.22.22-.66A1.26,1.26,0,0,0,731.75,331.37Zm1.75,15.18c-.58-.59-1-.88-1.21-.88s-.18.36.12,1.1.88,1,1.31.88C733.87,347.5,733.8,347.13,733.5,346.55ZM735,272c-.14,0-.21-.07-.21-.22s0-.22-.12-.22-.1-.07-.1-.22c-.3-.29-.44-.22-.44.22a.39.39,0,0,0,.44.44Zm0,71.5a1.76,1.76,0,0,1,.45-1.32.54.54,0,0,1,.88,0c.29.29.29.69,0,1.21s-.59.77-.88.77S735,343.91,735,343.47Zm1.54-9c.45,0,.67.44.67,1.32s.14,1.1,0,1.1-.37-.37-.67-1.1Zm1.33-4.18c.88-.59,1-.44.43.44-.29.73-.62,1.13-1,1.21s-.56-.11-.56-.55c0-.15.12-.3.33-.44A5.59,5.59,0,0,0,737.91,330.27Zm-.66-1.1c-.45,0-.52-.44-.22-1.32a7.21,7.21,0,0,0,.43-1.76c0-.15,0-.22.12-.22s.1.15.1.44a1.82,1.82,0,0,1,.45,1.76C738,328.8,737.68,329.17,737.25,329.17Zm1.54-12.54a5.08,5.08,0,0,0,.11-1.65c-.08-.07-.33.18-.77.77a1.9,1.9,0,0,0-.55,1.1,1.78,1.78,0,0,0,.1,1.1c.3.73.48,1.06.56,1A15,15,0,0,0,738.79,316.63Zm.21-5.72a.59.59,0,0,0,.67-.66c0-.29-.22-.44-.67-.44a.38.38,0,0,0-.43.44C738.57,310.69,738.71,310.91,739,310.91Zm4.41,7a.59.59,0,0,1,.66.66c0,.29-.3.44-.89.44-.43,0-.65-.15-.65-.44C743,318.17,743.26,318,743.41,318Zm.88-16.28c0-1.17-.08-1.8-.22-1.87s-.37.4-.66,1.43a1.64,1.64,0,0,0,.22,1.54c.29,0,.29.07,0,.22-.45.15-.7.59-.77,1.32s.1,1.1.55,1.1.66-.37.66-1.1a9.12,9.12,0,0,1,.1-1A10.66,10.66,0,0,0,744.29,301.67Zm0,4.84c1,0,1.46.51,1.32,1.54-.3.29-.52.37-.66.22-.15,0-.37.29-.66.88,0,.73.07,1.1.21,1.1.3,0,.45.59.45,1.76-.3,1-.52,1.54-.66,1.54v-.22a.91.91,0,0,0-.12-.44.79.79,0,0,1,.12-.66c0-.88-.08-1.32-.22-1.32-.3,0-.44-.51-.44-1.54q.43-1.55.66-1.32l.21-.44q0-.66-.87-.66C742.75,306.66,743,306.51,744.29,306.51Zm.21-9.46a.59.59,0,0,0,.67-.66,1.87,1.87,0,0,0-.45-1.21c-.29-.37-.58-.48-.88-.33a1.16,1.16,0,0,0-.1,1.32C744,296.76,744.21,297.05,744.5,297.05Zm2.65-19.14c.29.29.43.4.43.33s.08-.55.22-1.43-.14-1.32-.43-1.32-.48.33-.55,1A1.64,1.64,0,0,0,747.15,277.91Zm.65-7.26a3.85,3.85,0,0,0,1.11-2.86c0-.73-.08-.88-.23-.44-.29,1-.58,1.61-.88,1.76a17.36,17.36,0,0,0-.65,1.76C746.56,271.9,746.78,271.82,747.8,270.65Zm.45,3.74q0-.66-.45-.66c-.29,0-.43.22-.43.66v.44h.21A.72.72,0,0,0,748.25,274.39Zm.66,46.2c0-1,.14-1.1.43-.22.3.29.23.59-.21.88q0,.22-.12,0A1.63,1.63,0,0,1,748.91,320.59Zm2.63.88.22.44c0,.29-.22.44-.65.44s-.37-.15-.23-.44C751.18,321.62,751.4,321.47,751.54,321.47Zm.45-15q.87,0,.66-2c0-.73-.08-.95-.23-.66,0,.59-.21.88-.66.88s-.65.29-.65.88A.78.78,0,0,0,752,306.51Zm-.88,13.86a1.18,1.18,0,0,1,.55-.88.89.89,0,0,1,1-.22,1.86,1.86,0,0,1-.66,1.1C751.4,320.66,751.11,320.66,751.11,320.37Zm2-19.58a1.72,1.72,0,0,0,.22-1.1c-.29-.59-.43-.44-.43.44a1.63,1.63,0,0,0,.1.66C753.05,300.94,753.08,300.94,753.08,300.79Zm.45-2.2c.58,0,.88-.15.88-.44s-.15-.66-.45-.66c-.14,0-.43.22-.88.66A.39.39,0,0,0,753.53,298.59Zm.43-1.54c.3,0,.45-.37.45-1.1s-.3-.88-.88-.44C752.94,296.54,753.08,297.05,754,297.05Zm.88-3.52c.15,0,.23-.11.23-.33a.75.75,0,0,0-.23-.55c-.29-.88-.43-.81-.43.22S754.55,294.12,754.84,293.53Zm1.33,18.7c.29-.73.47-1,.54-.77a14.91,14.91,0,0,1,.33,2.09c.15,1,.08,1.61-.21,1.76s-.59-.22-.88-1.1A3.13,3.13,0,0,1,756.17,312.23Zm1.75-37.4c.15,0,.23-.15.23-.44-.3-.44-.66-.48-1.11-.11a1.06,1.06,0,0,0-.21,1.43c.43.59.73.88.88.88s.14-.29,0-.88C757.41,275.12,757.49,274.83,757.92,274.83Zm-.88,3.74c.15,0,.22-.29.22-.88-.29-.44-.43-.37-.43.22S756.9,278.86,757,278.57Zm2.64-40.92q.45,0,.45-.33a.78.78,0,0,0-.22-.55c-.3-.88-.45-.81-.45.22a1.44,1.44,0,0,0,.12.66C759.65,237.8,759.68,237.8,759.68,237.65ZM763,266c.29-.29.22-.44-.23-.44a3.64,3.64,0,0,0-1.54.44c-.43.44-.29.66.45.66a3.7,3.7,0,0,0,.87-.11A.52.52,0,0,0,763,266Zm4.18-5.5a.86.86,0,0,1,.66-.88,1,1,0,0,1,1.09.22c.45.44.23.73-.66.88C767.53,261.19,767.17,261.12,767.17,260.53Zm3.08-2.2c.58.3.88.63.88,1s-.15.55-.45.55-.58-.37-.88-1.1C769.66,258,769.8,257.89,770.25,258.33Zm2-.22a.19.19,0,0,1-.22.22h-.21c-.45,0-.66-.15-.66-.44s.21-.44.66-.44c0,.29.07.44.21.44A.2.2,0,0,0,772.22,258.11ZM772,259a.8.8,0,0,1,.67-.11.87.87,0,0,0,.44.11c.29.29.07.44-.66.44S771.71,259.28,772,259Z" transform="translate(-283.7 -173.47)" style="fill:#2b354f"/></svg>