<svg data-v-1084b650="" xmlns="http://www.w3.org/2000/svg" viewBox="0 0 300 300"><!----> <!----> <rect data-v-1084b650="" fill="#ffffff" x="0" y="0" width="300px" height="300px" class="logo-background-square"></rect> <!----> <g data-v-1084b650="" id="8d38f1b1-ee8b-1e6a-e4d0-1128118200d8" fill="#000000" transform="matrix(6.099999999999998,0,0,6.099999999999998,121.32382462024691,117.94449574947359)"><path d="M4.54 8.86L6.43 8.86L6.43 1.44L4.54 1.44L4.54 4.02L4.54 4.02Q3.85 3.33 2.90 3.33L2.90 3.33L2.90 3.33Q2.16 3.33 1.61 3.70L1.61 3.70L1.61 3.70Q1.06 4.07 0.78 4.71L0.78 4.71L0.78 4.71Q0.49 5.35 0.49 6.17L0.49 6.17L0.49 6.17Q0.49 7.00 0.78 7.64L0.78 7.64L0.78 7.64Q1.06 8.27 1.61 8.64L1.61 8.64L1.61 8.64Q2.16 9.00 2.90 9.00L2.90 9.00L2.90 9.00Q3.37 9.00 3.79 8.81L3.79 8.81L3.79 8.81Q4.21 8.61 4.54 8.27L4.54 8.27L4.54 8.86ZM4.54 5.35L4.54 5.35L4.54 7.00L4.54 7.00Q4.12 7.53 3.46 7.53L3.46 7.53L3.46 7.53Q2.95 7.53 2.67 7.15L2.67 7.15L2.67 7.15Q2.38 6.78 2.38 6.17L2.38 6.17L2.38 6.17Q2.38 5.57 2.67 5.19L2.67 5.19L2.67 5.19Q2.95 4.80 3.46 4.80L3.46 4.80L3.46 4.80Q4.10 4.80 4.54 5.35ZM10.61 5.89L10.61 6.09L10.61 6.09Q10.35 5.94 9.98 5.82L9.98 5.82L9.98 5.82Q9.62 5.71 9.18 5.71L9.18 5.71L9.18 5.71Q8.37 5.71 7.82 6.10L7.82 6.10L7.82 6.10Q7.27 6.48 7.27 7.29L7.27 7.29L7.27 7.29Q7.27 7.98 7.52 8.34L7.52 8.34L7.52 8.34Q7.78 8.71 8.18 8.86L8.18 8.86L8.18 8.86Q8.58 9.00 8.97 9.00L8.97 9.00L8.97 9.00Q9.52 9.00 9.93 8.80L9.93 8.80L9.93 8.80Q10.35 8.60 10.61 8.30L10.61 8.30L10.61 8.86L12.50 8.86L12.50 5.47L12.50 5.47Q12.50 4.45 11.96 3.89L11.96 3.89L11.96 3.89Q11.42 3.33 10.51 3.33L10.51 3.33L10.51 3.33Q9.70 3.33 8.97 3.65L8.97 3.65L8.97 3.65Q8.25 3.96 7.62 4.35L7.62 4.35L8.32 5.33L8.32 5.33Q8.74 5.04 9.18 4.92L9.18 4.92L9.18 4.92Q9.62 4.80 9.81 4.80L9.81 4.80L9.81 4.80Q10.32 4.80 10.46 5.05L10.46 5.05L10.46 5.05Q10.61 5.29 10.61 5.89L10.61 5.89ZM10.61 7.00L10.61 7.00L10.61 7.56L10.61 7.56Q10.47 7.71 10.27 7.83L10.27 7.83L10.27 7.83Q10.07 7.94 9.81 7.94L9.81 7.94L9.81 7.94Q9.52 7.94 9.41 7.72L9.41 7.72L9.41 7.72Q9.30 7.50 9.30 7.31L9.30 7.31L9.30 7.31Q9.30 7.11 9.44 6.93L9.44 6.93L9.44 6.93Q9.59 6.75 9.88 6.75L9.88 6.75L9.88 6.75Q10.19 6.75 10.35 6.83L10.35 6.83L10.35 6.83Q10.51 6.92 10.61 7.00ZM16.06 7.29L16.06 7.29L16.06 7.29Q16.06 7.52 15.88 7.60L15.88 7.60L15.88 7.60Q15.69 7.67 15.40 7.67L15.40 7.67L15.40 7.67Q15.22 7.67 14.77 7.50L14.77 7.50L14.77 7.50Q14.32 7.34 13.90 6.94L13.90 6.94L13.34 8.20L13.34 8.20Q13.87 8.69 14.43 8.88L14.43 8.88L14.43 8.88Q14.98 9.07 15.68 9.07L15.68 9.07L15.68 9.07Q16.23 9.07 16.74 8.88L16.74 8.88L16.74 8.88Q17.26 8.68 17.61 8.26L17.61 8.26L17.61 8.26Q17.95 7.84 17.95 7.15L17.95 7.15L17.95 7.15Q17.95 6.72 17.71 6.43L17.71 6.43L17.71 6.43Q17.47 6.15 17.12 5.96L17.12 5.96L17.12 5.96Q16.77 5.77 16.42 5.62L16.42 5.62L16.42 5.62Q16.07 5.47 15.83 5.33L15.83 5.33L15.83 5.33Q15.60 5.18 15.60 4.97L15.60 4.97L15.60 4.97Q15.60 4.66 15.99 4.66L15.99 4.66L15.99 4.66Q16.17 4.66 16.47 4.82L16.47 4.82L16.47 4.82Q16.77 4.98 17.19 5.39L17.19 5.39L17.75 4.13L17.75 4.13Q17.23 3.64 16.73 3.45L16.73 3.45L16.73 3.45Q16.23 3.26 15.83 3.26L15.83 3.26L15.83 3.26Q15.30 3.26 14.81 3.41L14.81 3.41L14.81 3.41Q14.32 3.56 14.01 3.92L14.01 3.92L14.01 3.92Q13.71 4.28 13.71 4.97L13.71 4.97L13.71 4.97Q13.71 5.47 13.94 5.80L13.94 5.80L13.94 5.80Q14.18 6.12 14.53 6.31L14.53 6.31L14.53 6.31Q14.88 6.51 15.23 6.66L15.23 6.66L15.23 6.66Q15.58 6.80 15.82 6.94L15.82 6.94L15.82 6.94Q16.06 7.08 16.06 7.29ZM18.86 1.44L18.86 8.86L20.75 8.86L20.75 5.50L20.75 5.50Q20.94 5.21 21.23 5.01L21.23 5.01L21.23 5.01Q21.52 4.80 21.83 4.80L21.83 4.80L21.83 4.80Q22.12 4.80 22.30 5.05L22.30 5.05L22.30 5.05Q22.48 5.29 22.48 5.89L22.48 5.89L22.48 8.86L24.37 8.86L24.37 5.47L24.37 5.47Q24.37 4.45 23.91 3.89L23.91 3.89L23.91 3.89Q23.44 3.33 22.53 3.33L22.53 3.33L22.53 3.33Q22.05 3.33 21.57 3.64L21.57 3.64L21.57 3.64Q21.10 3.95 20.75 4.48L20.75 4.48L20.75 1.44L18.86 1.44Z"></path></g> <linearGradient data-v-1084b650="" gradientTransform="rotate(25)" id="2691c93d-7985-3a4e-bcce-396bf7216f2e" x1="0%" y1="0%" x2="100%" y2="0%"><stop data-v-1084b650="" offset="0%" style="stop-color: rgb(81, 6, 255); stop-opacity: 1;"></stop> <stop data-v-1084b650="" offset="100%" style="stop-color: rgb(97, 203, 242); stop-opacity: 1;"></stop></linearGradient> <g data-v-1084b650="" id="24e08679-3d87-3ffb-9f35-d0716050f0c1" fill="url(#2691c93d-7985-3a4e-bcce-396bf7216f2e)" stroke="none" transform="matrix(0.33780870532935675,0,0,0.33780870532935675,23.376209927357884,99.12600949285405)"><svg xmlns="http://www.w3.org/2000/svg" viewBox="0 0 100 100"><path d="M38.7 50.3c-.3-.7-.1-1.8.3-2.5l5.3-6.9c.5-.6 1.5-1.1 2.3-.9l8.7 1.2c.8.1 1.7.8 2 1.5l3.3 8.1c.3.7.1 1.8-.3 2.5L55 60.2c-.5.6-1.5 1.1-2.3.9L44 59.9c-.8-.1-1.7-.8-2-1.5l-3.3-8.1zM58.1 63.9c-.3-.7-.1-1.8.3-2.5l5.4-6.9c.5-.6 1.5-1.1 2.3-.9l8.7 1.2c.8.1 1.7.8 2 1.5l3.3 8.1c.3.7.1 1.8-.3 2.5l-5.3 6.9c-.5.6-1.5 1.1-2.3.9l-8.7-1.2c-.8-.1-1.7-.8-2-1.5l-3.4-8.1zM19.6 34.6c-.3-.7-.2-1.8.3-2.5l5.3-6.9c.5-.6 1.5-1.1 2.3-.9l8.7 1.2c.8.1 1.7.8 2 1.5l3.3 8.1c.3.7.1 1.8-.3 2.5L36 44.3c-.5.6-1.5 1.1-2.3 1L25 44.2c-.8-.1-1.7-.8-2-1.5l-3.4-8.1zM42.1 26.1c-.3-.7-.1-1.8.3-2.5l5.4-6.9c.5-.6 1.5-1.1 2.3-.9l8.7 1.2c.8.1 1.7.8 2 1.5l3.3 8.1c.3.7.1 1.8-.3 2.5L58.4 36c-.5.6-1.5 1.1-2.3.9l-8.7-1.2c-.8-.1-1.7-.8-2-1.5l-3.3-8.1zM61.6 40c-.3-.7-.1-1.8.3-2.5l5.3-6.9c.5-.6 1.5-1.1 2.3-.9l8.7 1.2c.8.1 1.7.8 2 1.5l3.3 8.1c.3.7.1 1.8-.3 2.5l-5.4 6.9c-.5.6-1.5 1.1-2.3.9l-8.7-1.2c-.8-.1-1.7-.8-2-1.5L61.6 40zM16.4 58.5c-.3-.7-.1-1.8.3-2.5l5.3-6.9c.5-.6 1.5-1.1 2.3-.9l8.7 1.2c.8.1 1.7.8 2 1.5l3.3 8.1c.3.7.1 1.8-.3 2.5l-5.3 6.9c-.5.6-1.5 1.1-2.3.9l-8.7-1.2c-.8-.1-1.7-.8-2-1.5l-3.3-8.1zM35.3 73.8c-.3-.7-.1-1.8.3-2.5l5.4-6.9c.5-.6 1.5-1.1 2.3-.9l8.7 1.2c.8.1 1.7.8 2 1.5l3.3 8.1c.3.7.1 1.8-.3 2.5l-5.4 6.9c-.5.6-1.5 1.1-2.3.9l-8.7-1.2c-.8-.1-1.7-.8-2-1.5l-3.3-8.1z"></path></svg></g></svg>