<svg id="Layer_1" data-name="Layer 1" xmlns="http://www.w3.org/2000/svg" xmlns:xlink="http://www.w3.org/1999/xlink" viewBox="0 0 300 300"><defs><style>.cls-1{fill:url(#linear-gradient);}</style><linearGradient id="linear-gradient" x1="-153.8" y1="546.01" x2="-152.8" y2="546.01" gradientTransform="matrix(183.23, 87.34, 85.44, -187.31, -18441.48, 115795.77)" gradientUnits="userSpaceOnUse"><stop offset="0" stop-color="#5106ff"/><stop offset="1" stop-color="#61cbf2"/></linearGradient></defs><title>Artboard 1</title><g id="a01e7766-6515-3674-a6c2-ade2e4bd4fba"><path class="cls-1" d="M116.25,150.3c-.9-2.1-.3-5.4.9-7.5l15.9-20.7c1.5-1.8,4.5-3.3,6.9-2.7l26.1,3.6a8.45,8.45,0,0,1,6,4.5l9.9,24.3c.9,2.1.3,5.4-.9,7.5L165.15,180c-1.5,1.8-4.5,3.3-6.9,2.7l-26.1-3.6a8.45,8.45,0,0,1-6-4.5l-9.9-24.3Zm58.2,40.8c-.9-2.1-.3-5.4.9-7.5l16.2-20.7c1.5-1.8,4.5-3.3,6.9-2.7l26.1,3.6a8.45,8.45,0,0,1,6,4.5l9.9,24.3c.9,2.1.3,5.4-.9,7.5l-15.9,20.7c-1.5,1.8-4.5,3.3-6.9,2.7l-26.1-3.6a8.45,8.45,0,0,1-6-4.5l-10.2-24.3ZM59,103.2a8.42,8.42,0,0,1,.9-7.5L75.75,75c1.5-1.8,4.5-3.3,6.9-2.7l26.1,3.6a8.45,8.45,0,0,1,6,4.5l9.9,24.3c.9,2.1.3,5.4-.9,7.5l-15.6,20.1a8.69,8.69,0,0,1-6.9,3L75.15,132a8.45,8.45,0,0,1-6-4.5Zm67.5-25.5c-.9-2.1-.3-5.4.9-7.5l16.2-20.7c1.5-1.8,4.5-3.3,6.9-2.7l26.1,3.6a8.45,8.45,0,0,1,6,4.5l9.9,24.3c.9,2.1.3,5.4-.9,7.5l-16.2,20.7c-1.5,1.8-4.5,3.3-6.9,2.7l-26.1-3.6a8.45,8.45,0,0,1-6-4.5l-9.9-24.3ZM185,119.4c-.9-2.1-.3-5.4.9-7.5l15.9-20.7c1.5-1.8,4.5-3.3,6.9-2.7l26.1,3.6a8.45,8.45,0,0,1,6,4.5l9.9,24.3c.9,2.1.3,5.4-.9,7.5l-16.2,20.7c-1.5,1.8-4.5,3.3-6.9,2.7l-26.1-3.6a8.45,8.45,0,0,1-6-4.5ZM49.35,174.9c-.9-2.1-.3-5.4.9-7.5l15.9-20.7c1.5-1.8,4.5-3.3,6.9-2.7l26.1,3.6a8.45,8.45,0,0,1,6,4.5l9.9,24.3c.9,2.1.3,5.4-.9,7.5l-15.9,20.7c-1.5,1.8-4.5,3.3-6.9,2.7l-26.1-3.6a8.45,8.45,0,0,1-6-4.5l-9.9-24.3Zm56.7,45.9c-.9-2.1-.3-5.4.9-7.5l16.2-20.7c1.5-1.8,4.5-3.3,6.9-2.7l26.1,3.6a8.45,8.45,0,0,1,6,4.5l9.9,24.3c.9,2.1.3,5.4-.9,7.5L155,250.5c-1.5,1.8-4.5,3.3-6.9,2.7L122,249.6a8.45,8.45,0,0,1-6-4.5Z"/></g></svg>