<svg id="Layer_1" data-name="Layer 1" xmlns="http://www.w3.org/2000/svg" xmlns:xlink="http://www.w3.org/1999/xlink" viewBox="0 0 226.67 73"><defs><style>.cls-1{fill:url(#linear-gradient);}</style><linearGradient id="linear-gradient" x1="-854.56" y1="539.17" x2="-853.39" y2="539.17" gradientTransform="matrix(45.36, 19.87, 21.15, -42.61, 27367.16, 39975.3)" gradientUnits="userSpaceOnUse"><stop offset="0" stop-color="#5106ff"/><stop offset="1" stop-color="#61cbf2"/></linearGradient></defs><title>Artboard 1</title><g id="_5dc1469c-bd61-9b75-8fd0-977050be2c4f" data-name="5dc1469c-bd61-9b75-8fd0-977050be2c4f"><path d="M78.23,53.14H89c7.72,0,12.8-5,12.8-15.16S96.68,22.86,89,22.86H78.23Zm4.93-4.34V27.2H89c4.53,0,7.56,2.91,7.56,8.37v4.87c0,5.46-3,8.37-7.56,8.37Zm47.77,4.34L120.61,22.86h-6.17L104.12,53.14h5l2.64-8.22h11.35l2.73,8.22Zm-9.08-12.4h-8.93l4.37-13.39h.22ZM144.7,53.67c6.94,0,11-3.78,11-9.42,0-4.8-2.73-7.5-8.77-8.68L144.2,35c-3.25-.65-4.8-1.74-4.8-4.25,0-2.67,2-4.09,5.46-4.09A8.34,8.34,0,0,1,152,30l3.41-3c-2.32-3-5.67-4.65-10.23-4.65-6.42,0-10.6,3.29-10.6,8.68,0,4.81,3,7.56,8.87,8.65l2.7.46c3.5.68,4.71,2,4.71,4.37,0,2.91-2,4.84-5.86,4.84a9.77,9.77,0,0,1-7.94-4l-3.38,3.19A13.41,13.41,0,0,0,144.7,53.67Zm35.5-.53h4.9V22.86h-4.9V35.6h-13.7V22.86h-4.93V53.14h4.93V39.94h13.7Zm20.09,0,5.44-16.36H203l-2.6,8.09-1.59,5.69h-.1l-1.57-5.69-2.6-8.09h-2.75l5.37,16.36Zm18.55-2.24h-8.25l3.83-3.32c2.16-1.84,3.92-3.58,3.92-6.23,0-2.85-1.93-4.86-5.24-4.86a5.52,5.52,0,0,0-5.61,4l2.33.89a3,3,0,0,1,3.06-2.58,2.42,2.42,0,0,1,2.65,2.56v.3c0,1.51-.94,2.81-2.58,4.29l-5.22,4.67v2.53h11.12Z"/></g><g id="e5553ebb-a350-be1f-a892-37df31de300a"><path class="cls-1" d="M40.84,52.83l7.67,13.26L67.81,32.75H51V22.27L29.51,9.91,8,22.27V47L29.51,59.33ZM61.32,36.48,48.51,58.62,35.7,36.48Z"/></g></svg>