<?xml version="1.0" encoding="UTF-8" standalone="no"?>
<!DOCTYPE svg PUBLIC "-//W3C//DTD SVG 1.1//EN" "http://www.w3.org/Graphics/SVG/1.1/DTD/svg11.dtd">
<svg width="100%" height="100%" viewBox="0 0 691 136" version="1.1" xmlns="http://www.w3.org/2000/svg" xmlns:xlink="http://www.w3.org/1999/xlink" xml:space="preserve" xmlns:serif="http://www.serif.com/" style="fill-rule:evenodd;clip-rule:evenodd;stroke-linejoin:round;stroke-miterlimit:2;">
    <g transform="matrix(1,0,0,1,-249.588,-247.381)">
        <g transform="matrix(1,0,0,1,5.57546,6.53165)">
            <g id="Icon" transform="matrix(0.565971,0,0,0.565971,326.162,308.468)">
                <g transform="matrix(1,0,0,1,-145.149,-119.474)">
                    <clipPath id="_clip1">
                        <rect x="0" y="0" width="290.297" height="238.947"/>
                    </clipPath>
                    <g clip-path="url(#_clip1)">
                        <g id="Artboard1" transform="matrix(0.961961,0,0,0.960723,-336.339,-279.348)">
                            <rect x="349.64" y="290.769" width="301.777" height="248.716" style="fill:none;"/>
                            <g transform="matrix(1.03954,0,0,1.04088,-22.1976,-18.1087)">
                                <path d="M414.45,485.7C391.5,467.1 372.1,451.3 371.35,450.7L369.9,449.5L415.3,449.5L440.05,468.55C453.65,479.05 466,488.6 467.55,489.8L470.3,492L500.3,492C530.9,492 533.85,491.85 541.75,489.9C556.05,486.45 568.25,479.3 579,468.15C584.8,462.15 588.65,456.7 592.4,449.2C603.1,427.9 603.05,402.2 592.4,381C580.2,356.8 557.55,341.15 530.9,338.5C527.15,338.15 513.55,338 490.1,338.1L454.9,338.25L568.4,430.25L546.2,430.4L524,430.5L508.4,418.1C499.8,411.25 473.95,390.75 451,372.55C428.05,354.35 401.95,333.65 393.05,326.6L376.9,313.75L385.05,313.6C389.55,313.55 425.75,313.55 465.5,313.6L537.75,313.75L544,314.95C573,320.35 596.8,335.6 612.45,358.9C628.9,383.35 634.1,413.6 626.75,442.25C621,464.8 607.5,484.9 588.8,498.85C575.6,508.7 561.15,514.9 544,518.05C537.85,519.2 537,519.2 496.95,519.4L456.1,519.55L414.45,485.7Z" style="fill:rgb(14,209,143);fill-rule:nonzero;"/>
                                <path d="M472.25,458.65C454.35,444.55 427.05,423.15 398.5,400.8C384.9,390.1 373.25,380.9 372.65,380.3L371.5,379.25L394.3,379.4L417.05,379.5L428.4,388.65C434.65,393.7 454.8,409.95 473.25,424.75C524.8,466.2 526.45,467.55 526.8,468.05C526.95,468.3 518.65,468.5 505.9,468.5L484.75,468.5L472.25,458.65Z" style="fill:rgb(14,209,143);fill-rule:nonzero;"/>
                            </g>
                        </g>
                    </g>
                </g>
            </g>
            <g transform="matrix(1,-9.57972e-17,0,1,22.2595,30.9703)">
                <g transform="matrix(100,0,0,100,441.968,312.118)">
                    <path d="M0.185,-0.11L0.495,-0.11L0.495,-0L0.07,-0L0.07,-0.7L0.49,-0.7L0.49,-0.59L0.185,-0.59L0.185,-0.408L0.465,-0.408L0.465,-0.299L0.185,-0.299L0.185,-0.11Z" style="fill:rgb(33,33,33);fill-rule:nonzero;"/>
                </g>
                <g transform="matrix(100,0,0,100,494.968,312.118)">
                    <path d="M0.303,0.013C0.236,0.013 0.179,-0.002 0.132,-0.033C0.085,-0.064 0.052,-0.106 0.033,-0.159L0.132,-0.217C0.16,-0.138 0.218,-0.099 0.306,-0.099C0.349,-0.099 0.382,-0.108 0.404,-0.125C0.425,-0.141 0.436,-0.164 0.436,-0.191C0.436,-0.22 0.424,-0.242 0.401,-0.257C0.378,-0.272 0.336,-0.288 0.277,-0.306C0.244,-0.316 0.217,-0.325 0.196,-0.334C0.175,-0.343 0.154,-0.355 0.131,-0.371C0.108,-0.386 0.09,-0.406 0.079,-0.429C0.068,-0.452 0.062,-0.48 0.062,-0.511C0.062,-0.573 0.084,-0.622 0.128,-0.659C0.172,-0.695 0.225,-0.713 0.287,-0.713C0.343,-0.713 0.392,-0.699 0.434,-0.672C0.476,-0.645 0.508,-0.607 0.531,-0.559L0.434,-0.503C0.405,-0.568 0.356,-0.601 0.287,-0.601C0.254,-0.601 0.227,-0.593 0.207,-0.578C0.187,-0.562 0.177,-0.541 0.177,-0.514C0.177,-0.488 0.187,-0.468 0.208,-0.453C0.228,-0.438 0.265,-0.422 0.318,-0.405C0.345,-0.396 0.364,-0.39 0.377,-0.386C0.389,-0.381 0.406,-0.374 0.429,-0.365C0.451,-0.356 0.468,-0.346 0.479,-0.337C0.49,-0.328 0.502,-0.316 0.516,-0.302C0.529,-0.288 0.538,-0.272 0.543,-0.254C0.548,-0.236 0.551,-0.216 0.551,-0.193C0.551,-0.13 0.528,-0.08 0.483,-0.043C0.437,-0.006 0.377,0.013 0.303,0.013Z" style="fill:rgb(33,33,33);fill-rule:nonzero;"/>
                </g>
                <g transform="matrix(100,0,0,100,552.468,312.118)">
                    <path d="M0.328,-0.7C0.394,-0.7 0.449,-0.678 0.494,-0.634C0.538,-0.59 0.56,-0.535 0.56,-0.47C0.56,-0.405 0.538,-0.351 0.494,-0.307C0.449,-0.262 0.394,-0.24 0.328,-0.24L0.185,-0.24L0.185,-0L0.07,-0L0.07,-0.7L0.328,-0.7ZM0.328,-0.348C0.362,-0.348 0.39,-0.36 0.412,-0.383C0.434,-0.405 0.445,-0.435 0.445,-0.47C0.445,-0.505 0.434,-0.535 0.412,-0.558C0.39,-0.58 0.362,-0.592 0.328,-0.592L0.185,-0.592L0.185,-0.348L0.328,-0.348Z" style="fill:rgb(33,33,33);fill-rule:nonzero;"/>
                </g>
                <g transform="matrix(100,0,0,100,611.468,312.118)">
                    <rect x="0.07" y="-0.356" width="0.37" height="0.104" style="fill:rgb(33,33,33);fill-rule:nonzero;"/>
                </g>
                <g transform="matrix(100,0,0,100,662.468,312.118)">
                    <path d="M0.345,-0.7C0.441,-0.7 0.521,-0.666 0.585,-0.599C0.648,-0.532 0.68,-0.449 0.68,-0.35C0.68,-0.252 0.648,-0.169 0.585,-0.102C0.521,-0.034 0.441,-0 0.345,-0L0.07,-0L0.07,-0.7L0.345,-0.7ZM0.345,-0.11C0.411,-0.11 0.465,-0.133 0.507,-0.178C0.548,-0.223 0.569,-0.281 0.569,-0.35C0.569,-0.42 0.548,-0.478 0.507,-0.523C0.465,-0.568 0.411,-0.59 0.345,-0.59L0.185,-0.59L0.185,-0.11L0.345,-0.11Z" style="fill:rgb(33,33,33);fill-rule:nonzero;"/>
                </g>
                <g transform="matrix(100,0,0,100,731.368,312.118)">
                    <path d="M0.526,-0L0.477,-0.141L0.179,-0.141L0.13,-0L0.005,-0L0.259,-0.7L0.397,-0.7L0.65,-0L0.526,-0ZM0.217,-0.249L0.439,-0.249L0.328,-0.565L0.217,-0.249Z" style="fill:rgb(33,33,33);fill-rule:nonzero;"/>
                </g>
                <g transform="matrix(100,0,0,100,795.068,312.118)">
                    <path d="M0.303,0.013C0.236,0.013 0.179,-0.002 0.132,-0.033C0.085,-0.064 0.052,-0.106 0.033,-0.159L0.132,-0.217C0.16,-0.138 0.218,-0.099 0.306,-0.099C0.349,-0.099 0.382,-0.108 0.404,-0.125C0.425,-0.141 0.436,-0.164 0.436,-0.191C0.436,-0.22 0.424,-0.242 0.401,-0.257C0.378,-0.272 0.336,-0.288 0.277,-0.306C0.244,-0.316 0.217,-0.325 0.196,-0.334C0.175,-0.343 0.154,-0.355 0.131,-0.371C0.108,-0.386 0.09,-0.406 0.079,-0.429C0.068,-0.452 0.062,-0.48 0.062,-0.511C0.062,-0.573 0.084,-0.622 0.128,-0.659C0.172,-0.695 0.225,-0.713 0.287,-0.713C0.343,-0.713 0.392,-0.699 0.434,-0.672C0.476,-0.645 0.508,-0.607 0.531,-0.559L0.434,-0.503C0.405,-0.568 0.356,-0.601 0.287,-0.601C0.254,-0.601 0.227,-0.593 0.207,-0.578C0.187,-0.562 0.177,-0.541 0.177,-0.514C0.177,-0.488 0.187,-0.468 0.208,-0.453C0.228,-0.438 0.265,-0.422 0.318,-0.405C0.345,-0.396 0.364,-0.39 0.377,-0.386C0.389,-0.381 0.406,-0.374 0.429,-0.365C0.451,-0.356 0.468,-0.346 0.479,-0.337C0.49,-0.328 0.502,-0.316 0.516,-0.302C0.529,-0.288 0.538,-0.272 0.543,-0.254C0.548,-0.236 0.551,-0.216 0.551,-0.193C0.551,-0.13 0.528,-0.08 0.483,-0.043C0.437,-0.006 0.377,0.013 0.303,0.013Z" style="fill:rgb(33,33,33);fill-rule:nonzero;"/>
                </g>
                <g transform="matrix(100,0,0,100,852.568,312.118)">
                    <path d="M0.485,-0.7L0.6,-0.7L0.6,-0L0.485,-0L0.485,-0.303L0.185,-0.303L0.185,-0L0.07,-0L0.07,-0.7L0.185,-0.7L0.185,-0.413L0.485,-0.413L0.485,-0.7Z" style="fill:rgb(33,33,33);fill-rule:nonzero;"/>
                </g>
            </g>
        </g>
    </g>
</svg>
