<svg id="Layer_1" data-name="Layer 1" xmlns="http://www.w3.org/2000/svg" xmlns:xlink="http://www.w3.org/1999/xlink" viewBox="0 0 300 300"><defs><style>.cls-1{fill:url(#linear-gradient);}</style><linearGradient id="linear-gradient" x1="-153.22" y1="545.64" x2="-152.22" y2="545.64" gradientTransform="matrix(123.11, 58.69, 57.41, -125.86, -12393.1, 77730.44)" gradientUnits="userSpaceOnUse"><stop offset="0" stop-color="#5106ff"/><stop offset="1" stop-color="#61cbf2"/></linearGradient></defs><title>Artboard 1</title><g id="_3cb2ce44-8dad-b004-7dae-1c8d022704bb" data-name="3cb2ce44-8dad-b004-7dae-1c8d022704bb"><path d="M78.2,262.65H95.4V195.13H78.2v23.48h0a20.39,20.39,0,0,0-14.92-6.28h0a20.53,20.53,0,0,0-11.74,3.37h0A20.89,20.89,0,0,0,44,224.89h0a31.87,31.87,0,0,0-2.64,13.29h0A32.1,32.1,0,0,0,44,251.55h0a21,21,0,0,0,7.55,9.1h0a21,21,0,0,0,11.74,3.28h0a19.42,19.42,0,0,0,8.1-1.73h0a23.57,23.57,0,0,0,6.83-4.91h0Zm0-31.94h0v15h0a12,12,0,0,1-9.83,4.82h0a8.41,8.41,0,0,1-7.19-3.46h0a14.05,14.05,0,0,1-2.64-8.92h0a14.29,14.29,0,0,1,2.64-8.92h0a8.33,8.33,0,0,1,7.19-3.55h0A12.16,12.16,0,0,1,78.2,230.71Zm55.24,4.91v1.82h0A30.1,30.1,0,0,0,127.7,235h0a24.85,24.85,0,0,0-7.28-1h0A20.85,20.85,0,0,0,108,237.54h0q-5,3.46-5,10.83h0q0,6.28,2.28,9.56h0a12.67,12.67,0,0,0,6,4.73h0a21.66,21.66,0,0,0,7.19,1.27h0a19.71,19.71,0,0,0,8.74-1.82h0a18.65,18.65,0,0,0,6.19-4.55h0v5.1h17.2V231.8h0q0-9.28-4.91-14.38h0q-4.91-5.1-13.19-5.1h0a34.53,34.53,0,0,0-14,2.91h0a93.68,93.68,0,0,0-12.29,6.37h0l6.37,8.92h0a25.65,25.65,0,0,1,7.83-3.73h0a25.26,25.26,0,0,1,5.73-1.09h0q4.64,0,5.91,2.28h0q1.37,2.18,1.36,7.64Zm0,10.1h0v5.1h0a14.16,14.16,0,0,1-3.09,2.46h0a8.54,8.54,0,0,1-4.19,1h0a3.7,3.7,0,0,1-3.64-2h0a8.4,8.4,0,0,1-1-3.73h0a5.55,5.55,0,0,1,1.27-3.46h0a4.91,4.91,0,0,1,4-1.64h0a9.87,9.87,0,0,1,4.28.73h0A17.83,17.83,0,0,1,133.44,245.73Zm49.6,2.64h0a2.79,2.79,0,0,1-1.64,2.82h0a12.78,12.78,0,0,1-4.37.64h0a19.65,19.65,0,0,1-5.73-1.55h0a22.53,22.53,0,0,1-7.92-5.1h0l-5.1,11.47h0a28,28,0,0,0,9.92,6.19h0a34.74,34.74,0,0,0,11.38,1.73h0a27.41,27.41,0,0,0,9.65-1.73h0a19,19,0,0,0,7.92-5.64h0q3.09-3.82,3.09-10.1h0a9.93,9.93,0,0,0-2.18-6.55h0a18.79,18.79,0,0,0-5.37-4.28h0q-3.19-1.73-6.37-3.09h0a49.46,49.46,0,0,1-5.37-2.64h0a3.91,3.91,0,0,1-2.09-3.28h0q0-2.82,3.55-2.82h0a10.1,10.1,0,0,1,4.37,1.46h0a31.13,31.13,0,0,1,6.55,5.19h0l5.1-11.47h0a28.78,28.78,0,0,0-9.28-6.19h0a23.36,23.36,0,0,0-8.19-1.73h0a31.53,31.53,0,0,0-9.28,1.37h0a15.26,15.26,0,0,0-7.28,4.64h0q-2.73,3.28-2.73,9.55h0a12.9,12.9,0,0,0,2.09,7.55h0a16.44,16.44,0,0,0,5.37,4.64h0a62.35,62.35,0,0,0,6.37,3.18h0a41,41,0,0,1,5.37,2.55h0A3.7,3.7,0,0,1,183,248.37Zm25.48-53.24v67.52h17.2V232.08h0a16.08,16.08,0,0,1,4.37-4.46h0a9.2,9.2,0,0,1,5.46-1.91h0a5,5,0,0,1,4.28,2.28h0q1.64,2.18,1.64,7.64h0v27h17.2V231.8h0q0-9.28-4.19-14.38h0q-4.28-5.1-12.56-5.1h0a16,16,0,0,0-8.74,2.82h0a26.42,26.42,0,0,0-7.46,7.64h0V195.13Z"/></g><g id="_2b1a0c7f-d701-5e01-af5a-300b748d7c43" data-name="2b1a0c7f-d701-5e01-af5a-300b748d7c43"><path class="cls-1" d="M127.17,105.67a6.39,6.39,0,0,1,.6-5l10.68-13.91a5.12,5.12,0,0,1,4.64-1.81l17.54,2.42a5.68,5.68,0,0,1,4,3l6.65,16.33a6.39,6.39,0,0,1-.6,5L160,125.63a5.12,5.12,0,0,1-4.64,1.81L137.86,125a5.68,5.68,0,0,1-4-3Zm39.11,27.41a6.39,6.39,0,0,1,.6-5l10.89-13.91a5.12,5.12,0,0,1,4.64-1.81l17.54,2.42a5.68,5.68,0,0,1,4,3l6.65,16.33a6.39,6.39,0,0,1-.6,5L199.34,153a5.12,5.12,0,0,1-4.64,1.81l-17.54-2.42a5.68,5.68,0,0,1-4-3l-6.85-16.33ZM88.67,74a5.66,5.66,0,0,1,.6-5L100,55.07a5.12,5.12,0,0,1,4.64-1.81l17.54,2.42a5.68,5.68,0,0,1,4,3L132.82,75a6.39,6.39,0,0,1-.6,5L121.73,93.58a5.84,5.84,0,0,1-4.64,2L99.56,93.37a5.68,5.68,0,0,1-4-3ZM134,56.89a6.39,6.39,0,0,1,.6-5l10.89-13.91a5.12,5.12,0,0,1,4.64-1.81l17.54,2.42a5.68,5.68,0,0,1,4,3l6.65,16.33a6.39,6.39,0,0,1-.6,5L166.88,76.84a5.12,5.12,0,0,1-4.64,1.81l-17.54-2.42a5.68,5.68,0,0,1-4-3Zm39.31,28a6.39,6.39,0,0,1,.6-5L184.62,66a5.12,5.12,0,0,1,4.64-1.81l17.54,2.42a5.68,5.68,0,0,1,4,3l6.65,16.33a6.39,6.39,0,0,1-.6,5L206,104.86a5.12,5.12,0,0,1-4.64,1.81l-17.54-2.42a5.68,5.68,0,0,1-4-3ZM82.22,122.2a6.39,6.39,0,0,1,.6-5l10.68-13.91a5.12,5.12,0,0,1,4.64-1.81l17.54,2.42a5.68,5.68,0,0,1,4,3l6.65,16.33a6.39,6.39,0,0,1-.6,5l-10.68,13.91a5.12,5.12,0,0,1-4.64,1.81L92.9,141.55a5.68,5.68,0,0,1-4-3L82.22,122.2ZM120.32,153a6.39,6.39,0,0,1,.6-5l10.89-13.91a5.12,5.12,0,0,1,4.64-1.81L154,134.7a5.68,5.68,0,0,1,4,3L164.67,154a6.39,6.39,0,0,1-.6,5L153.18,173a5.12,5.12,0,0,1-4.64,1.81L131,172.39a5.68,5.68,0,0,1-4-3Z"/></g></svg>