<svg id="Layer_1" data-name="Layer 1" xmlns="http://www.w3.org/2000/svg" xmlns:xlink="http://www.w3.org/1999/xlink" viewBox="0 0 266 93"><defs><style>.cls-1{fill:url(#linear-gradient);}</style><linearGradient id="linear-gradient" x1="-174.46" y1="441.54" x2="-173.46" y2="441.54" gradientTransform="matrix(61.9, 29.5, 28.86, -63.27, -1935.62, 33112.36)" gradientUnits="userSpaceOnUse"><stop offset="0" stop-color="#5106ff"/><stop offset="1" stop-color="#61cbf2"/></linearGradient></defs><title>Artboard 1</title><g id="_8d38f1b1-ee8b-1e6a-e4d0-1128118200d8" data-name="8d38f1b1-ee8b-1e6a-e4d0-1128118200d8"><path d="M126,69h11.53V23.73H126V39.47h0a13.67,13.67,0,0,0-10-4.21h0a13.76,13.76,0,0,0-7.87,2.26h0a14,14,0,0,0-5.06,6.16h0a21.36,21.36,0,0,0-1.77,8.91h0a21.52,21.52,0,0,0,1.77,9h0a14.06,14.06,0,0,0,5.06,6.1h0a14,14,0,0,0,7.87,2.2h0a13,13,0,0,0,5.43-1.16h0A15.8,15.8,0,0,0,126,65.39h0Zm0-21.41h0V57.64h0a8,8,0,0,1-6.59,3.23h0a5.64,5.64,0,0,1-4.82-2.32h0a9.42,9.42,0,0,1-1.77-6h0a9.58,9.58,0,0,1,1.77-6h0a5.59,5.59,0,0,1,4.82-2.38h0A8.15,8.15,0,0,1,126,47.58Zm37,3.29v1.22h0a20.18,20.18,0,0,0-3.84-1.65h0a16.66,16.66,0,0,0-4.88-.67h0a14,14,0,0,0-8.3,2.38h0q-3.36,2.32-3.36,7.26h0a11.2,11.2,0,0,0,1.53,6.41h0a8.5,8.5,0,0,0,4,3.17h0a14.52,14.52,0,0,0,4.82.85h0a13.21,13.21,0,0,0,5.86-1.22h0a12.5,12.5,0,0,0,4.15-3h0V69h11.53V48.31h0q0-6.22-3.29-9.64h0a11.72,11.72,0,0,0-8.84-3.42h0a23.15,23.15,0,0,0-9.39,2h0a62.8,62.8,0,0,0-8.24,4.27h0l4.27,6h0a17.19,17.19,0,0,1,5.25-2.5h0a16.93,16.93,0,0,1,3.84-.73h0q3.11,0,4,1.52h0q.92,1.46.91,5.12Zm0,6.77h0v3.42h0A9.49,9.49,0,0,1,161,62.71h0a5.73,5.73,0,0,1-2.81.67h0A2.48,2.48,0,0,1,155.72,62h0a5.63,5.63,0,0,1-.67-2.5h0a3.72,3.72,0,0,1,.85-2.32h0a3.29,3.29,0,0,1,2.68-1.1h0a6.61,6.61,0,0,1,2.87.49h0A12,12,0,0,1,163,57.64Zm33.24,1.77h0a1.87,1.87,0,0,1-1.1,1.89h0a8.57,8.57,0,0,1-2.93.43h0a13.17,13.17,0,0,1-3.84-1h0a15.1,15.1,0,0,1-5.31-3.42h0L179.7,65h0a18.77,18.77,0,0,0,6.65,4.15h0A23.28,23.28,0,0,0,194,70.27h0a18.37,18.37,0,0,0,6.47-1.16h0a12.74,12.74,0,0,0,5.31-3.78h0a10.43,10.43,0,0,0,2.07-6.77h0a6.66,6.66,0,0,0-1.46-4.39h0a12.59,12.59,0,0,0-3.6-2.87h0q-2.14-1.16-4.27-2.07h0a33.16,33.16,0,0,1-3.6-1.77h0a2.62,2.62,0,0,1-1.4-2.2h0q0-1.89,2.38-1.89h0a6.77,6.77,0,0,1,2.93,1h0a20.87,20.87,0,0,1,4.39,3.48h0l3.42-7.69h0A19.29,19.29,0,0,0,200.38,36h0a15.66,15.66,0,0,0-5.49-1.16h0a21.14,21.14,0,0,0-6.22.92h0a10.23,10.23,0,0,0-4.88,3.11h0q-1.83,2.2-1.83,6.4h0a8.65,8.65,0,0,0,1.4,5.06h0a11,11,0,0,0,3.6,3.11h0a41.8,41.8,0,0,0,4.27,2.13h0a27.46,27.46,0,0,1,3.6,1.71h0A2.48,2.48,0,0,1,196.29,59.41Zm17.08-35.68V69H224.9V48.49h0a10.78,10.78,0,0,1,2.93-3h0a6.16,6.16,0,0,1,3.66-1.28h0a3.38,3.38,0,0,1,2.87,1.52h0q1.1,1.46,1.1,5.12h0V69H247V48.31h0q0-6.22-2.81-9.64h0q-2.87-3.42-8.42-3.42h0a10.72,10.72,0,0,0-5.86,1.89h0a17.71,17.71,0,0,0-5,5.12h0V23.73Z"/></g><g id="_24e08679-3d87-3ffb-9f35-d0716050f0c1" data-name="24e08679-3d87-3ffb-9f35-d0716050f0c1"><path class="cls-1" d="M39.6,47.1a3.21,3.21,0,0,1,.3-2.53l5.37-7a2.57,2.57,0,0,1,2.33-.91l8.82,1.22a2.85,2.85,0,0,1,2,1.52l3.34,8.21a3.21,3.21,0,0,1-.3,2.53l-5.37,7a2.57,2.57,0,0,1-2.33.91L45,56.83a2.85,2.85,0,0,1-2-1.52ZM59.26,60.88a3.21,3.21,0,0,1,.3-2.53l5.47-7a2.57,2.57,0,0,1,2.33-.91l8.82,1.22a2.85,2.85,0,0,1,2,1.52l3.34,8.21a3.21,3.21,0,0,1-.3,2.53l-5.37,7a2.57,2.57,0,0,1-2.33.91l-8.82-1.22a2.85,2.85,0,0,1-2-1.52l-3.45-8.21Zm-39-29.69a2.85,2.85,0,0,1,.3-2.53l5.37-7a2.57,2.57,0,0,1,2.33-.91L37.06,22a2.85,2.85,0,0,1,2,1.52l3.34,8.21a3.21,3.21,0,0,1-.3,2.53L36.86,41a2.93,2.93,0,0,1-2.33,1l-8.82-1.11a2.85,2.85,0,0,1-2-1.52ZM43,22.58a3.21,3.21,0,0,1,.3-2.53l5.47-7a2.57,2.57,0,0,1,2.33-.91L60,13.35a2.85,2.85,0,0,1,2,1.52l3.34,8.21a3.21,3.21,0,0,1-.3,2.53l-5.47,7a2.57,2.57,0,0,1-2.33.91l-8.82-1.22a2.85,2.85,0,0,1-2-1.52ZM62.8,36.66a3.21,3.21,0,0,1,.3-2.53l5.37-7a2.57,2.57,0,0,1,2.33-.91l8.82,1.22a2.85,2.85,0,0,1,2,1.52L85,37.17a3.21,3.21,0,0,1-.3,2.53l-5.47,7a2.57,2.57,0,0,1-2.33.91l-8.82-1.22a2.85,2.85,0,0,1-2-1.52ZM17,55.41a3.21,3.21,0,0,1,.3-2.53l5.37-7A2.57,2.57,0,0,1,25,45l8.82,1.22a2.85,2.85,0,0,1,2,1.52l3.34,8.21a3.21,3.21,0,0,1-.3,2.53l-5.37,7a2.57,2.57,0,0,1-2.33.91l-8.82-1.22a2.85,2.85,0,0,1-2-1.52ZM36.15,70.92a3.21,3.21,0,0,1,.3-2.53l5.47-7a2.57,2.57,0,0,1,2.33-.91l8.82,1.22a2.85,2.85,0,0,1,2,1.52l3.34,8.21a3.21,3.21,0,0,1-.3,2.53l-5.47,7a2.57,2.57,0,0,1-2.33.91l-8.82-1.22a2.85,2.85,0,0,1-2-1.52Z"/></g></svg>