<svg xmlns="http://www.w3.org/2000/svg" viewBox="0 0 431.67 146.3"><path d="M112.15,21.35v108.1L96.23,146.3H13.5V46.61L54.34,40v77.18H69.92v-81H0L6.58,0H93.8Z"/><path d="M217.86,117.22h7.33L220.8,146.3H175.63V64.61H163.86v52.61h10l-5.84,29.08H137.79l-16.15-16.84V54.69l16.15-18.46h87.4L220.8,64.61h-2.94Z"/><path d="M284.73,70.84V65.3H273V79.15h54v50.31L310.81,146.3H246.65l-15.92-16.84V111.69H273v5.53h11.77V103.38h-54V53.07l16.16-16.84H311L327,53.07V70.84Z"/><path d="M431.67,54.69v91.52l-16.16.09H389.44V64.61H377.67V146.3H335.44V0h67.44l-4.79,28.15H377.67v8l37.84.09Z"/></svg>