<svg version="1.2" xmlns="http://www.w3.org/2000/svg" viewBox="0 0 1129 663" width="1129" height="663"><style>.a{fill:#f2f2f2}.b{fill:#3f3d56}.c{opacity:.2}.d{fill:#606060}.e{fill:#2e8555}.f{fill:#3ecc5f}.g{opacity:.1}</style><path class="a" d="m321 642c-177.5 0-321-143.5-321-321 0-177.5 143.5-321 321-321 177.5 0 321 143.5 321 321 0 177.5-143.5 321-321 321z"/><path class="b" d="m559 663c-284.2 0-514-12.3-514-27.5 0-15.2 229.8-27.5 514-27.5 284.2 0 514 12.3 514 27.5 0 15.2-229.8 27.5-514 27.5z"/><path class="c" d="m558 649c-254.4 0-460-9.8-460-22 0-12.2 205.6-22 460-22 254.4 0 460 9.8 460 22 0 12.2-205.6 22-460 22z"/><path class="b" d="m131 152.5h840v50h-840z"/><path class="b" d="m131 177.5h840v431.3c0 2.9-0.6 5.7-1.6 8.3-1.1 2.7-2.7 5-4.7 7.1-2.1 2-4.4 3.6-7.1 4.7-2.6 1-5.4 1.6-8.3 1.6h-796.6c-2.9 0-5.7-0.6-8.3-1.6-2.7-1.1-5-2.7-7.1-4.7-2-2.1-3.6-4.4-4.7-7.1-1-2.6-1.6-5.4-1.6-8.3zm826.6-58.3c2.7 1.1 5 2.7 7.1 4.7 2 2 3.6 4.4 4.7 7 1 2.6 1.6 5.5 1.6 8.3v38.3h-840v-38.3c0-2.8 0.6-5.7 1.6-8.3 1.1-2.6 2.7-5 4.7-7 2.1-2 4.4-3.6 7.1-4.7 2.6-1.1 5.4-1.7 8.3-1.7h796.6c2.9 0 5.7 0.6 8.3 1.7z"/><path class="c" d="m957.6 119.1c2.7 1.1 5 2.7 7.1 4.7 2 2.1 3.6 4.4 4.7 7.1 1 2.6 1.6 5.4 1.6 8.3v38.3h-840v-38.3c0-2.9 0.6-5.7 1.6-8.3 1.1-2.7 2.7-5 4.7-7.1 2.1-2 4.4-3.6 7.1-4.7 2.6-1 5.4-1.6 8.3-1.6h796.6c2.9 0 5.7 0.6 8.3 1.6z"/><path class="b" d="m181 160.5c-7.2 0-13-5.8-13-13 0-7.2 5.8-13 13-13 7.2 0 13 5.8 13 13 0 7.2-5.8 13-13 13z"/><path class="b" d="m217 160.5c-7.2 0-13-5.8-13-13 0-7.2 5.8-13 13-13 7.2 0 13 5.8 13 13 0 7.2-5.8 13-13 13z"/><path class="b" d="m253 160.5c-7.2 0-13-5.8-13-13 0-7.2 5.8-13 13-13 7.2 0 13 5.8 13 13 0 7.2-5.8 13-13 13z"/><path class="d" d="m168 218.8c0-2.9 2.4-5.3 5.3-5.3h326.4c2.9 0 5.3 2.4 5.3 5.3v375.4c0 2.9-2.4 5.3-5.3 5.3h-326.4c-2.9 0-5.3-2.4-5.3-5.3z"/><path class="e" d="m603 278c0-3 2.5-5.5 5.5-5.5h273c3 0 5.5 2.5 5.5 5.5v11c0 3-2.5 5.5-5.5 5.5h-273c-3 0-5.5-2.5-5.5-5.5z"/><path class="e" d="m537 358c0-3 2.5-5.5 5.5-5.5h405c3 0 5.5 2.5 5.5 5.5v4c0 3-2.5 5.5-5.5 5.5h-405c-3 0-5.5-2.5-5.5-5.5z"/><path class="e" d="m537 402c0-3 2.5-5.5 5.5-5.5h405c3 0 5.5 2.5 5.5 5.5v4c0 3-2.5 5.5-5.5 5.5h-405c-3 0-5.5-2.5-5.5-5.5z"/><path class="e" d="m537 446c0-3 2.5-5.5 5.5-5.5h405c3 0 5.5 2.5 5.5 5.5v4c0 3-2.5 5.5-5.5 5.5h-405c-3 0-5.5-2.5-5.5-5.5z"/><path class="e" d="m537 490c0-3 2.5-5.5 5.5-5.5h405c3 0 5.5 2.5 5.5 5.5v4c0 3-2.5 5.5-5.5 5.5h-405c-3 0-5.5-2.5-5.5-5.5z"/><path class="f" d="m865 559.5c0-3.9 3.1-7 7-7h74c3.9 0 7 3.1 7 7v12c0 3.9-3.1 7-7 7h-74c-3.9 0-7-3.1-7-7z"/><path class="b" d="m1056.1 513.5c0.6 2.6 1 5.2 1 7.9 0 2.6-0.4 5.3-1 7.9-0.7 2.5-1.7 5-3 7.3 1.3 2.4 2.3 4.8 3 7.4 0.6 2.6 1 5.3 1 7.9 0 2.7-0.4 5.3-1 7.9-0.7 2.6-1.7 5.1-3 7.4 1.3 2.3 2.3 4.8 3 7.4 0.6 2.5 1 5.2 1 7.8 0 2.7-0.4 5.4-1 7.9-0.7 2.6-1.7 5.1-3 7.4q1 1.7 1.8 3.6 0.7 1.8 1.2 3.8 0.5 1.9 0.8 3.9 0.2 2 0.2 4c0 13.8-8.6 25-19.1 25-10.5 0-19.1-11.2-19.1-25q0-2 0.2-4 0.3-2 0.8-3.9 0.5-2 1.3-3.8 0.7-1.9 1.7-3.6c-1.3-2.3-2.3-4.8-3-7.4-0.6-2.5-1-5.2-1-7.9 0-2.6 0.4-5.3 1-7.8 0.7-2.6 1.7-5.1 3-7.4-1.3-2.3-2.3-4.8-3-7.4-0.6-2.6-1-5.2-1-7.9 0-2.6 0.4-5.3 1-7.9 0.7-2.6 1.7-5 3-7.4-1.3-2.3-2.3-4.8-3-7.3-0.6-2.6-1-5.3-1-7.9 0-2.7 0.4-5.3 1-7.9 0.7-2.6 1.7-5.1 3-7.4q-1-1.7-1.7-3.6-0.8-1.8-1.3-3.8-0.5-1.9-0.8-3.9-0.2-2-0.2-4c0-13.7 8.6-24.9 19.1-24.9 10.5 0 19.1 11.2 19.1 24.9q0 2-0.2 4-0.3 2-0.8 3.9-0.5 2-1.2 3.8-0.8 1.9-1.8 3.6c1.3 2.3 2.3 4.8 3 7.4z"/><path class="b" d="m1038 485.3c-10.5 0-19.1-11.2-19.1-25 0-13.8 8.6-25 19.1-25 10.6 0 19.1 11.2 19.1 25 0 13.8-8.5 25-19.1 25z"/><path class="b" d="m1038 454.8c-10.5 0-19.1-11.2-19.1-25 0-13.8 8.6-25 19.1-25 10.6 0 19.1 11.2 19.1 25 0 13.8-8.5 25-19.1 25z"/><path fill-rule="evenodd" class="f" d="m1124 247.5c3.3 9.6 5 19.7 5 29.9 0 10.1-1.7 20.2-5 29.9-3.4 9.6-8.3 18.6-14.6 26.6 21.7 27.5 25.7 64.9 10.4 96.4-15.3 31.5-47.2 51.5-82.2 51.5-35 0-66.9-20-82.2-51.5-15.3-31.5-11.3-68.9 10.4-96.4-4.7-6-8.7-12.5-11.7-19.4-3.1-6.9-5.3-14.2-6.6-21.7-1.3-7.4-1.6-15-1-22.6 0.6-7.5 2.1-15 4.5-22.2l69.4 23.3-65.1-33.8q1.1-2.2 2.3-4.4 1.2-2.1 2.5-4.2 1.3-2.1 2.7-4.1 1.4-2 2.9-4c-15.6-19.9-22.3-45.5-18.4-70.5 3.9-25.1 18-47.4 39-61.6 21-14.3 47-19.1 71.7-13.5 24.8 5.7 46 21.4 58.7 43.3l-67.1 49.4 72.8-37.8c2.3 5.8 4 11.8 5.1 17.9 1.1 6.1 1.6 12.3 1.5 18.5-0.2 6.2-1 12.4-2.4 18.5-1.4 6-3.4 11.9-6 17.6l-54.2-0.5 50.1 8.3q-0.8 1.4-1.6 2.7-0.8 1.3-1.7 2.6-0.9 1.3-1.9 2.6-0.9 1.3-1.9 2.5c6.3 8 11.2 17 14.6 26.7z"/><path class="g" d="m1109.4 333.9c21.7 27.5 25.7 64.9 10.4 96.4-15.3 31.5-47.2 51.5-82.2 51.5-35 0-66.9-20-82.2-51.5-15.3-31.5-11.3-68.9 10.3-96.4q-4.7-6-8.3-12.7-3.7-6.7-6.2-13.9-2.5-7.2-3.8-14.8-1.2-7.5-1.2-15.1c0-10.3 175.5 40.9 163.2 56.5z"/><path class="f" d="m380 314h-104.4l-7.9 43.3h83.7v96.9h-18.6v-92.3l-48.9 7.9v119.2h99l19-20.2v-129.3z"/></svg>