<svg version="1.2" xmlns="http://www.w3.org/2000/svg" viewBox="0 0 767 675" width="767" height="675"><style>.a{fill:#72c766}</style><path class="a" d="m156.8 504.5l-97 7.7-4.1 40.8 77.7-6.1 7.2 90-17.3 1.4-6.9-85.8-44.8 10.9 8.8 110.8 92-7.3 16.2-20.1-9.5-120.2zm68.5 91.9l-29 2.3-1.2-14.4 29.1-2.3-2.3-29.3 15.8-1.3 2.4 29.3 28.9-2.3 1.1 14.4-28.9 2.3 2.3 29.4-15.8 1.3zm84-6.7l-29.1 2.3-1.1-14.4 29-2.3-2.3-29.3 15.9-1.3 2.3 29.3 28.9-2.3 1.2 14.5-28.9 2.3 2.3 29.4-15.9 1.2z"/><path class="a" d="m366.1 121l-38-13-8.3 14.8 30.5 10.4-12.1 35.3-6.8-2.3 11.5-33.6-18.8-3.3-14.8 43.5 36.1 12.4 9.4-5 16.1-47.2zm11 46.2l-11.4-3.9 1.9-5.7 11.4 3.9 3.9-11.5 6.3 2.1-4 11.5 11.4 3.9-1.9 5.7-11.4-3.9-3.9 11.5-6.3-2.1zm33 11.3l-11.4-3.9 1.9-5.7 11.4 3.9 4-11.5 6.2 2.1-3.9 11.5 11.3 3.9-1.9 5.7-11.4-3.9-3.9 11.5-6.2-2.1z"/><path class="a" d="m632.4 506.4l-62.9-21.5-13.7 24.6 50.5 17.2-20 58.4-11.2-3.9 19-55.6-31.1-5.3-24.5 71.8 59.6 20.4 15.7-8.2 26.6-78zm18 76.3l-18.8-6.4 3.2-9.4 18.8 6.4 6.5-19 10.3 3.6-6.5 18.9 18.8 6.5-3.2 9.3-18.8-6.4-6.5 19.1-10.3-3.5zm54.5 18.6l-18.8-6.4 3.2-9.4 18.8 6.4 6.5-19 10.3 3.5-6.5 19 18.8 6.5-3.2 9.3-18.8-6.4-6.5 19.1-10.3-3.5z"/><path class="a" d="m183.5 283.5l-66.2 6-2.5 28 53.1-4.9 5.6 61.5-11.8 1.1-5.4-58.6-30.5 7.8 6.9 75.7 62.7-5.7 11-13.9-7.5-82.1zm47.6 62.3l-19.9 1.8-0.9-9.9 19.9-1.8-1.8-19.9 10.8-1 1.8 20 19.8-1.8 0.9 9.8-19.8 1.8 1.8 20.1-10.8 1zm57.4-5.2l-19.9 1.8-0.9-9.9 19.9-1.8-1.8-20 10.8-1 1.8 20 19.8-1.8 0.9 9.9-19.8 1.8 1.8 20.1-10.8 0.9z"/><path class="a" d="m508.4 314.3l-23.2 33.7 12.2 12.2 18.6-27 31.4 21.6-4.2 6-29.8-20.6-8.4 17.5 38.6 26.6 22-32-2.3-10.6-41.7-28.8zm48.2 2l-7 10.1-5-3.5 7-10.1-10.2-7 3.8-5.5 10.2 7 6.9-10.1 5.1 3.5-7 10.1 10.2 7-3.8 5.5zm20.2-29.2l-7 10.1-5-3.4 7-10.1-10.2-7.1 3.8-5.5 10.2 7 6.9-10 5 3.4-6.9 10.1 10.2 7.1-3.8 5.5z"/><path class="a" d="m635.3 21.8l-76.7-21.8-14.9 30.2 61.5 17.5-20.3 71.3-13.7-3.9 19.3-67.9-37.5-4.5-25 87.7 72.8 20.7 18.2-10.8 27.1-95.1zm26.4 90.3l-23-6.6 3.2-11.4 23 6.5 6.6-23.1 12.6 3.6-6.6 23.1 22.9 6.5-3.3 11.5-22.9-6.6-6.6 23.3-12.6-3.6zm66.5 19l-23-6.6 3.3-11.4 23 6.5 6.6-23.1 12.5 3.5-6.6 23.2 22.9 6.5-3.2 11.4-22.9-6.5-6.6 23.3-12.6-3.6z"/><path class="a" d="m63.4 36.7l-63.3 20.4 3.7 27.8 50.7-16.4 18.9 58.8-11.3 3.6-18-56-28.1 14.4 23.3 72.3 60-19.4 7.6-15.9-25.2-78.4zm60 50.3l-18.9 6.1-3.1-9.4 19-6.1-6.1-19.1 10.3-3.3 6.2 19.1 18.8-6.1 3.1 9.4-18.9 6.1 6.2 19.2-10.4 3.3zm54.8-17.7l-18.9 6.2-3.1-9.5 19-6.1-6.1-19.1 10.3-3.3 6.2 19.1 18.8-6.1 3.1 9.4-18.9 6.1 6.2 19.2-10.4 3.3z"/></svg>