<svg version="1.2" xmlns="http://www.w3.org/2000/svg" viewBox="0 0 3710 3710" width="3710" height="3710"><defs><linearGradient id="P" gradientUnits="userSpaceOnUse"/><linearGradient id="g1" x1="2172.8" y1="835.1" x2="2551.4" y2="1047.2" href="#P"><stop stop-color="#444b8c"/><stop offset="1" stop-color="#26264f"/></linearGradient><linearGradient id="g2" x1="2022.2" y1="1072.5" x2="2031.6" y2="1216.3" href="#P"><stop stop-color="#ff9085"/><stop offset="1" stop-color="#fb6fbb"/></linearGradient><linearGradient id="g3" x1="2053.3" y1="1162.1" x2="2054.6" y2="1181.3" href="#P"><stop stop-color="#ff9085"/><stop offset="1" stop-color="#fb6fbb"/></linearGradient><linearGradient id="g4" x1="2084.9" y1="1104.2" x2="2091.4" y2="1203" href="#P"><stop stop-color="#ff9085"/><stop offset="1" stop-color="#fb6fbb"/></linearGradient><linearGradient id="g5" x1="2116.1" y1="1145.1" x2="2119" y2="1189" href="#P"><stop stop-color="#ff9085"/><stop offset="1" stop-color="#fb6fbb"/></linearGradient><linearGradient id="g6" x1="2147.4" y1="1096.3" x2="2154.5" y2="1205" href="#P"><stop stop-color="#ff9085"/><stop offset="1" stop-color="#fb6fbb"/></linearGradient><linearGradient id="g7" x1="2178.5" y1="1121.5" x2="2183.4" y2="1197.1" href="#P"><stop stop-color="#ff9085"/><stop offset="1" stop-color="#fb6fbb"/></linearGradient><linearGradient id="g8" x1="2209.4" y1="1079.4" x2="2217.9" y2="1208.9" href="#P"><stop stop-color="#ff9085"/><stop offset="1" stop-color="#fb6fbb"/></linearGradient><linearGradient id="g9" x1="2240.3" y1="1068.7" x2="2249.7" y2="1211" href="#P"><stop stop-color="#ff9085"/><stop offset="1" stop-color="#fb6fbb"/></linearGradient><linearGradient id="g10" x1="2271.4" y1="1124.4" x2="2276.1" y2="1196.6" href="#P"><stop stop-color="#ff9085"/><stop offset="1" stop-color="#fb6fbb"/></linearGradient><linearGradient id="g11" x1="2301.8" y1="1056.8" x2="2312" y2="1211.9" href="#P"><stop stop-color="#ff9085"/><stop offset="1" stop-color="#fb6fbb"/></linearGradient><linearGradient id="g12" x1="2332.6" y1="1074.8" x2="2341.2" y2="1207.1" href="#P"><stop stop-color="#ff9085"/><stop offset="1" stop-color="#fb6fbb"/></linearGradient><linearGradient id="g13" x1="2363.6" y1="1154.2" x2="2366.1" y2="1191.2" href="#P"><stop stop-color="#ff9085"/><stop offset="1" stop-color="#fb6fbb"/></linearGradient><linearGradient id="g14" x1="2393.9" y1="1114.7" x2="2399.4" y2="1198.7" href="#P"><stop stop-color="#ff9085"/><stop offset="1" stop-color="#fb6fbb"/></linearGradient><linearGradient id="g15" x1="2424.1" y1="1083.7" x2="2431.9" y2="1203.6" href="#P"><stop stop-color="#ff9085"/><stop offset="1" stop-color="#fb6fbb"/></linearGradient><linearGradient id="g16" x1="2454.6" y1="1111.2" x2="2460.4" y2="1199.1" href="#P"><stop stop-color="#ff9085"/><stop offset="1" stop-color="#fb6fbb"/></linearGradient><linearGradient id="g17" x1="2484.5" y1="1069.5" x2="2493.4" y2="1204.4" href="#P"><stop stop-color="#ff9085"/><stop offset="1" stop-color="#fb6fbb"/></linearGradient><linearGradient id="g18" x1="2514.5" y1="1055.7" x2="2524.3" y2="1205.2" href="#P"><stop stop-color="#ff9085"/><stop offset="1" stop-color="#fb6fbb"/></linearGradient><linearGradient id="g19" x1="2175.2" y1="1077.8" x2="2551.7" y2="1288.8" href="#P"><stop stop-color="#444b8c"/><stop offset="1" stop-color="#26264f"/></linearGradient><linearGradient id="g20" x1="2022.2" y1="1320" x2="2031.6" y2="1463.6" href="#P"><stop stop-color="#ff9085"/><stop offset="1" stop-color="#fb6fbb"/></linearGradient><linearGradient id="g21" x1="2053.4" y1="1409.3" x2="2054.6" y2="1428.2" href="#P"><stop stop-color="#ff9085"/><stop offset="1" stop-color="#fb6fbb"/></linearGradient><linearGradient id="g22" x1="2084.9" y1="1351" x2="2091.4" y2="1449.6" href="#P"><stop stop-color="#ff9085"/><stop offset="1" stop-color="#fb6fbb"/></linearGradient><linearGradient id="g23" x1="2116.1" y1="1391.6" x2="2119" y2="1435.2" href="#P"><stop stop-color="#ff9085"/><stop offset="1" stop-color="#fb6fbb"/></linearGradient><linearGradient id="g24" x1="2147.4" y1="1342.4" x2="2154.5" y2="1450.9" href="#P"><stop stop-color="#ff9085"/><stop offset="1" stop-color="#fb6fbb"/></linearGradient><linearGradient id="g25" x1="2178.5" y1="1367.3" x2="2183.4" y2="1442.6" href="#P"><stop stop-color="#ff9085"/><stop offset="1" stop-color="#fb6fbb"/></linearGradient><linearGradient id="g26" x1="2209.5" y1="1324.9" x2="2217.9" y2="1454.1" href="#P"><stop stop-color="#ff9085"/><stop offset="1" stop-color="#fb6fbb"/></linearGradient><linearGradient id="g27" x1="2240.3" y1="1313.8" x2="2249.7" y2="1455.8" href="#P"><stop stop-color="#ff9085"/><stop offset="1" stop-color="#fb6fbb"/></linearGradient><linearGradient id="g28" x1="2271.4" y1="1369.2" x2="2276.1" y2="1441.1" href="#P"><stop stop-color="#ff9085"/><stop offset="1" stop-color="#fb6fbb"/></linearGradient><linearGradient id="g29" x1="2301.8" y1="1301.2" x2="2312" y2="1456.1" href="#P"><stop stop-color="#ff9085"/><stop offset="1" stop-color="#fb6fbb"/></linearGradient><linearGradient id="g30" x1="2332.6" y1="1318.9" x2="2341.2" y2="1451" href="#P"><stop stop-color="#ff9085"/><stop offset="1" stop-color="#fb6fbb"/></linearGradient><linearGradient id="g31" x1="2363.6" y1="1397.9" x2="2366.1" y2="1434.7" href="#P"><stop stop-color="#ff9085"/><stop offset="1" stop-color="#fb6fbb"/></linearGradient><linearGradient id="g32" x1="2393.9" y1="1358.2" x2="2399.4" y2="1441.8" href="#P"><stop stop-color="#ff9085"/><stop offset="1" stop-color="#fb6fbb"/></linearGradient><linearGradient id="g33" x1="2424.1" y1="1326.8" x2="2431.9" y2="1446.4" href="#P"><stop stop-color="#ff9085"/><stop offset="1" stop-color="#fb6fbb"/></linearGradient><linearGradient id="g34" x1="2454.7" y1="1353.9" x2="2460.4" y2="1441.6" href="#P"><stop stop-color="#ff9085"/><stop offset="1" stop-color="#fb6fbb"/></linearGradient><linearGradient id="g35" x1="2484.5" y1="1311.9" x2="2493.3" y2="1446.5" href="#P"><stop stop-color="#ff9085"/><stop offset="1" stop-color="#fb6fbb"/></linearGradient><linearGradient id="g36" x1="2514.5" y1="1297.8" x2="2524.3" y2="1447.1" href="#P"><stop stop-color="#ff9085"/><stop offset="1" stop-color="#fb6fbb"/></linearGradient><linearGradient id="g37" x1="2177.6" y1="1320.6" x2="2552.1" y2="1530.5" href="#P"><stop stop-color="#444b8c"/><stop offset="1" stop-color="#26264f"/></linearGradient><linearGradient id="g38" x1="2022.2" y1="1567.5" x2="2031.6" y2="1710.8" href="#P"><stop stop-color="#ff9085"/><stop offset="1" stop-color="#fb6fbb"/></linearGradient><linearGradient id="g39" x1="2053.4" y1="1656.4" x2="2054.6" y2="1675.1" href="#P"><stop stop-color="#ff9085"/><stop offset="1" stop-color="#fb6fbb"/></linearGradient><linearGradient id="g40" x1="2084.9" y1="1597.8" x2="2091.4" y2="1696.1" href="#P"><stop stop-color="#ff9085"/><stop offset="1" stop-color="#fb6fbb"/></linearGradient><linearGradient id="g41" x1="2116.2" y1="1638" x2="2119" y2="1681.4" href="#P"><stop stop-color="#ff9085"/><stop offset="1" stop-color="#fb6fbb"/></linearGradient><linearGradient id="g42" x1="2147.4" y1="1588.5" x2="2154.5" y2="1696.8" href="#P"><stop stop-color="#ff9085"/><stop offset="1" stop-color="#fb6fbb"/></linearGradient><linearGradient id="g43" x1="2178.5" y1="1613.1" x2="2183.4" y2="1688.1" href="#P"><stop stop-color="#ff9085"/><stop offset="1" stop-color="#fb6fbb"/></linearGradient><linearGradient id="g44" x1="2209.5" y1="1570.3" x2="2217.9" y2="1699.3" href="#P"><stop stop-color="#ff9085"/><stop offset="1" stop-color="#fb6fbb"/></linearGradient><linearGradient id="g45" x1="2240.3" y1="1558.9" x2="2249.6" y2="1700.7" href="#P"><stop stop-color="#ff9085"/><stop offset="1" stop-color="#fb6fbb"/></linearGradient><linearGradient id="g46" x1="2271.4" y1="1613.9" x2="2276.1" y2="1685.6" href="#P"><stop stop-color="#ff9085"/><stop offset="1" stop-color="#fb6fbb"/></linearGradient><linearGradient id="g47" x1="2301.8" y1="1545.6" x2="2312" y2="1700.3" href="#P"><stop stop-color="#ff9085"/><stop offset="1" stop-color="#fb6fbb"/></linearGradient><linearGradient id="g48" x1="2332.6" y1="1563" x2="2341.2" y2="1694.8" href="#P"><stop stop-color="#ff9085"/><stop offset="1" stop-color="#fb6fbb"/></linearGradient><linearGradient id="g49" x1="2363.7" y1="1641.7" x2="2366" y2="1678.2" href="#P"><stop stop-color="#ff9085"/><stop offset="1" stop-color="#fb6fbb"/></linearGradient><linearGradient id="g50" x1="2393.9" y1="1601.6" x2="2399.4" y2="1685" href="#P"><stop stop-color="#ff9085"/><stop offset="1" stop-color="#fb6fbb"/></linearGradient><linearGradient id="g51" x1="2424.1" y1="1569.9" x2="2431.9" y2="1689.2" href="#P"><stop stop-color="#ff9085"/><stop offset="1" stop-color="#fb6fbb"/></linearGradient><linearGradient id="g52" x1="2454.7" y1="1596.7" x2="2460.4" y2="1684" href="#P"><stop stop-color="#ff9085"/><stop offset="1" stop-color="#fb6fbb"/></linearGradient><linearGradient id="g53" x1="2484.5" y1="1554.3" x2="2493.3" y2="1688.7" href="#P"><stop stop-color="#ff9085"/><stop offset="1" stop-color="#fb6fbb"/></linearGradient><linearGradient id="g54" x1="2514.5" y1="1539.9" x2="2524.3" y2="1688.9" href="#P"><stop stop-color="#ff9085"/><stop offset="1" stop-color="#fb6fbb"/></linearGradient><linearGradient id="g55" x1="2179.9" y1="1563.4" x2="2552.4" y2="1772.1" href="#P"><stop stop-color="#444b8c"/><stop offset="1" stop-color="#26264f"/></linearGradient><linearGradient id="g56" x1="2022.2" y1="1815.1" x2="2031.6" y2="1958" href="#P"><stop stop-color="#ff9085"/><stop offset="1" stop-color="#fb6fbb"/></linearGradient><linearGradient id="g57" x1="2053.4" y1="1903.6" x2="2054.6" y2="1922" href="#P"><stop stop-color="#ff9085"/><stop offset="1" stop-color="#fb6fbb"/></linearGradient><linearGradient id="g58" x1="2084.9" y1="1844.6" x2="2091.4" y2="1942.7" href="#P"><stop stop-color="#ff9085"/><stop offset="1" stop-color="#fb6fbb"/></linearGradient><linearGradient id="g59" x1="2116.2" y1="1884.5" x2="2119" y2="1927.6" href="#P"><stop stop-color="#ff9085"/><stop offset="1" stop-color="#fb6fbb"/></linearGradient><linearGradient id="g60" x1="2147.4" y1="1834.6" x2="2154.5" y2="1942.6" href="#P"><stop stop-color="#ff9085"/><stop offset="1" stop-color="#fb6fbb"/></linearGradient><linearGradient id="g61" x1="2178.5" y1="1858.9" x2="2183.4" y2="1933.7" href="#P"><stop stop-color="#ff9085"/><stop offset="1" stop-color="#fb6fbb"/></linearGradient><linearGradient id="g62" x1="2209.5" y1="1815.8" x2="2217.9" y2="1944.4" href="#P"><stop stop-color="#ff9085"/><stop offset="1" stop-color="#fb6fbb"/></linearGradient><linearGradient id="g63" x1="2240.4" y1="1804" x2="2249.6" y2="1945.5" href="#P"><stop stop-color="#ff9085"/><stop offset="1" stop-color="#fb6fbb"/></linearGradient><linearGradient id="g64" x1="2271.4" y1="1858.7" x2="2276.1" y2="1930.1" href="#P"><stop stop-color="#ff9085"/><stop offset="1" stop-color="#fb6fbb"/></linearGradient><linearGradient id="g65" x1="2301.9" y1="1790" x2="2312" y2="1944.4" href="#P"><stop stop-color="#ff9085"/><stop offset="1" stop-color="#fb6fbb"/></linearGradient><linearGradient id="g66" x1="2332.6" y1="1807.1" x2="2341.2" y2="1938.6" href="#P"><stop stop-color="#ff9085"/><stop offset="1" stop-color="#fb6fbb"/></linearGradient><linearGradient id="g67" x1="2363.7" y1="1885.4" x2="2366" y2="1921.7" href="#P"><stop stop-color="#ff9085"/><stop offset="1" stop-color="#fb6fbb"/></linearGradient><linearGradient id="g68" x1="2393.9" y1="1845" x2="2399.4" y2="1928.2" href="#P"><stop stop-color="#ff9085"/><stop offset="1" stop-color="#fb6fbb"/></linearGradient><linearGradient id="g69" x1="2424.1" y1="1813" x2="2431.9" y2="1932.1" href="#P"><stop stop-color="#ff9085"/><stop offset="1" stop-color="#fb6fbb"/></linearGradient><linearGradient id="g70" x1="2454.7" y1="1839.4" x2="2460.4" y2="1926.5" href="#P"><stop stop-color="#ff9085"/><stop offset="1" stop-color="#fb6fbb"/></linearGradient><linearGradient id="g71" x1="2484.5" y1="1796.7" x2="2493.3" y2="1930.9" href="#P"><stop stop-color="#ff9085"/><stop offset="1" stop-color="#fb6fbb"/></linearGradient><linearGradient id="g72" x1="2514.6" y1="1782" x2="2524.3" y2="1930.7" href="#P"><stop stop-color="#ff9085"/><stop offset="1" stop-color="#fb6fbb"/></linearGradient><linearGradient id="g73" x1="2182.3" y1="1806.1" x2="2552.8" y2="2013.7" href="#P"><stop stop-color="#444b8c"/><stop offset="1" stop-color="#26264f"/></linearGradient><linearGradient id="g74" x1="2022.2" y1="2062.6" x2="2031.6" y2="2205.3" href="#P"><stop stop-color="#ff9085"/><stop offset="1" stop-color="#fb6fbb"/></linearGradient><linearGradient id="g75" x1="2053.4" y1="2150.7" x2="2054.6" y2="2168.9" href="#P"><stop stop-color="#ff9085"/><stop offset="1" stop-color="#fb6fbb"/></linearGradient><linearGradient id="g76" x1="2084.9" y1="2091.5" x2="2091.3" y2="2189.3" href="#P"><stop stop-color="#ff9085"/><stop offset="1" stop-color="#fb6fbb"/></linearGradient><linearGradient id="g77" x1="2116.2" y1="2131" x2="2119" y2="2173.8" href="#P"><stop stop-color="#ff9085"/><stop offset="1" stop-color="#fb6fbb"/></linearGradient><linearGradient id="g78" x1="2147.4" y1="2080.8" x2="2154.5" y2="2188.5" href="#P"><stop stop-color="#ff9085"/><stop offset="1" stop-color="#fb6fbb"/></linearGradient><linearGradient id="g79" x1="2178.5" y1="2104.6" x2="2183.4" y2="2179.2" href="#P"><stop stop-color="#ff9085"/><stop offset="1" stop-color="#fb6fbb"/></linearGradient><linearGradient id="g80" x1="2209.5" y1="2061.2" x2="2217.9" y2="2189.6" href="#P"><stop stop-color="#ff9085"/><stop offset="1" stop-color="#fb6fbb"/></linearGradient><linearGradient id="g81" x1="2240.4" y1="2049.1" x2="2249.6" y2="2190.4" href="#P"><stop stop-color="#ff9085"/><stop offset="1" stop-color="#fb6fbb"/></linearGradient><linearGradient id="g82" x1="2271.4" y1="2103.5" x2="2276.1" y2="2174.6" href="#P"><stop stop-color="#ff9085"/><stop offset="1" stop-color="#fb6fbb"/></linearGradient><linearGradient id="g83" x1="2301.9" y1="2034.4" x2="2312" y2="2188.6" href="#P"><stop stop-color="#ff9085"/><stop offset="1" stop-color="#fb6fbb"/></linearGradient><linearGradient id="g84" x1="2332.6" y1="2051.2" x2="2341.2" y2="2182.5" href="#P"><stop stop-color="#ff9085"/><stop offset="1" stop-color="#fb6fbb"/></linearGradient><linearGradient id="g85" x1="2363.7" y1="2129.2" x2="2366" y2="2165.2" href="#P"><stop stop-color="#ff9085"/><stop offset="1" stop-color="#fb6fbb"/></linearGradient><linearGradient id="g86" x1="2393.9" y1="2088.4" x2="2399.4" y2="2171.3" href="#P"><stop stop-color="#ff9085"/><stop offset="1" stop-color="#fb6fbb"/></linearGradient><linearGradient id="g87" x1="2424.1" y1="2056" x2="2431.9" y2="2174.9" href="#P"><stop stop-color="#ff9085"/><stop offset="1" stop-color="#fb6fbb"/></linearGradient><linearGradient id="g88" x1="2454.7" y1="2082.2" x2="2460.4" y2="2169" href="#P"><stop stop-color="#ff9085"/><stop offset="1" stop-color="#fb6fbb"/></linearGradient><linearGradient id="g89" x1="2484.6" y1="2039.1" x2="2493.3" y2="2173" href="#P"><stop stop-color="#ff9085"/><stop offset="1" stop-color="#fb6fbb"/></linearGradient><linearGradient id="g90" x1="2514.6" y1="2024.1" x2="2524.3" y2="2172.6" href="#P"><stop stop-color="#ff9085"/><stop offset="1" stop-color="#fb6fbb"/></linearGradient><linearGradient id="g91" x1="2184.7" y1="2048.9" x2="2553.1" y2="2255.4" href="#P"><stop stop-color="#444b8c"/><stop offset="1" stop-color="#26264f"/></linearGradient><linearGradient id="g92" x1="2022.2" y1="2310.1" x2="2031.6" y2="2452.5" href="#P"><stop stop-color="#ff9085"/><stop offset="1" stop-color="#fb6fbb"/></linearGradient><linearGradient id="g93" x1="2053.4" y1="2397.9" x2="2054.6" y2="2415.8" href="#P"><stop stop-color="#ff9085"/><stop offset="1" stop-color="#fb6fbb"/></linearGradient><linearGradient id="g94" x1="2084.9" y1="2338.3" x2="2091.3" y2="2435.8" href="#P"><stop stop-color="#ff9085"/><stop offset="1" stop-color="#fb6fbb"/></linearGradient><linearGradient id="g95" x1="2116.2" y1="2377.4" x2="2119" y2="2420" href="#P"><stop stop-color="#ff9085"/><stop offset="1" stop-color="#fb6fbb"/></linearGradient><linearGradient id="g96" x1="2147.4" y1="2326.9" x2="2154.5" y2="2434.4" href="#P"><stop stop-color="#ff9085"/><stop offset="1" stop-color="#fb6fbb"/></linearGradient><linearGradient id="g97" x1="2178.6" y1="2350.4" x2="2183.4" y2="2424.7" href="#P"><stop stop-color="#ff9085"/><stop offset="1" stop-color="#fb6fbb"/></linearGradient><linearGradient id="g98" x1="2209.5" y1="2306.6" x2="2217.9" y2="2434.8" href="#P"><stop stop-color="#ff9085"/><stop offset="1" stop-color="#fb6fbb"/></linearGradient><linearGradient id="g99" x1="2240.4" y1="2294.2" x2="2249.6" y2="2435.2" href="#P"><stop stop-color="#ff9085"/><stop offset="1" stop-color="#fb6fbb"/></linearGradient><linearGradient id="g100" x1="2271.4" y1="2348.2" x2="2276.1" y2="2419.1" href="#P"><stop stop-color="#ff9085"/><stop offset="1" stop-color="#fb6fbb"/></linearGradient><linearGradient id="g101" x1="2301.9" y1="2278.9" x2="2312" y2="2432.8" href="#P"><stop stop-color="#ff9085"/><stop offset="1" stop-color="#fb6fbb"/></linearGradient><linearGradient id="g102" x1="2332.6" y1="2295.3" x2="2341.2" y2="2426.3" href="#P"><stop stop-color="#ff9085"/><stop offset="1" stop-color="#fb6fbb"/></linearGradient><linearGradient id="g103" x1="2363.7" y1="2372.9" x2="2366" y2="2408.7" href="#P"><stop stop-color="#ff9085"/><stop offset="1" stop-color="#fb6fbb"/></linearGradient><linearGradient id="g104" x1="2394" y1="2331.8" x2="2399.4" y2="2414.5" href="#P"><stop stop-color="#ff9085"/><stop offset="1" stop-color="#fb6fbb"/></linearGradient><linearGradient id="g105" x1="2424.1" y1="2299.1" x2="2431.9" y2="2417.7" href="#P"><stop stop-color="#ff9085"/><stop offset="1" stop-color="#fb6fbb"/></linearGradient><linearGradient id="g106" x1="2454.7" y1="2324.9" x2="2460.4" y2="2411.5" href="#P"><stop stop-color="#ff9085"/><stop offset="1" stop-color="#fb6fbb"/></linearGradient><linearGradient id="g107" x1="2484.6" y1="2281.5" x2="2493.3" y2="2415.2" href="#P"><stop stop-color="#ff9085"/><stop offset="1" stop-color="#fb6fbb"/></linearGradient><linearGradient id="g108" x1="2514.6" y1="2266.1" x2="2524.3" y2="2414.4" href="#P"><stop stop-color="#ff9085"/><stop offset="1" stop-color="#fb6fbb"/></linearGradient><linearGradient id="g109" x1="2187" y1="2291.7" x2="2553.5" y2="2497" href="#P"><stop stop-color="#444b8c"/><stop offset="1" stop-color="#26264f"/></linearGradient><linearGradient id="g110" x1="2022.3" y1="2557.6" x2="2031.6" y2="2699.8" href="#P"><stop stop-color="#ff9085"/><stop offset="1" stop-color="#fb6fbb"/></linearGradient><linearGradient id="g111" x1="2053.4" y1="2645" x2="2054.6" y2="2662.7" href="#P"><stop stop-color="#ff9085"/><stop offset="1" stop-color="#fb6fbb"/></linearGradient><linearGradient id="g112" x1="2085" y1="2585.1" x2="2091.3" y2="2682.4" href="#P"><stop stop-color="#ff9085"/><stop offset="1" stop-color="#fb6fbb"/></linearGradient><linearGradient id="g113" x1="2116.2" y1="2623.9" x2="2119" y2="2666.2" href="#P"><stop stop-color="#ff9085"/><stop offset="1" stop-color="#fb6fbb"/></linearGradient><linearGradient id="g114" x1="2147.4" y1="2573" x2="2154.5" y2="2680.2" href="#P"><stop stop-color="#ff9085"/><stop offset="1" stop-color="#fb6fbb"/></linearGradient><linearGradient id="g115" x1="2178.6" y1="2596.2" x2="2183.4" y2="2670.2" href="#P"><stop stop-color="#ff9085"/><stop offset="1" stop-color="#fb6fbb"/></linearGradient><linearGradient id="g116" x1="2209.5" y1="2552.1" x2="2217.9" y2="2680" href="#P"><stop stop-color="#ff9085"/><stop offset="1" stop-color="#fb6fbb"/></linearGradient><linearGradient id="g117" x1="2240.4" y1="2539.3" x2="2249.6" y2="2680.1" href="#P"><stop stop-color="#ff9085"/><stop offset="1" stop-color="#fb6fbb"/></linearGradient><linearGradient id="g118" x1="2271.4" y1="2593" x2="2276.1" y2="2663.6" href="#P"><stop stop-color="#ff9085"/><stop offset="1" stop-color="#fb6fbb"/></linearGradient><linearGradient id="g119" x1="2301.9" y1="2523.3" x2="2312" y2="2676.9" href="#P"><stop stop-color="#ff9085"/><stop offset="1" stop-color="#fb6fbb"/></linearGradient><linearGradient id="g120" x1="2332.6" y1="2539.3" x2="2341.2" y2="2670.1" href="#P"><stop stop-color="#ff9085"/><stop offset="1" stop-color="#fb6fbb"/></linearGradient><linearGradient id="g121" x1="2363.7" y1="2616.7" x2="2366" y2="2652.2" href="#P"><stop stop-color="#ff9085"/><stop offset="1" stop-color="#fb6fbb"/></linearGradient><linearGradient id="g122" x1="2394" y1="2575.2" x2="2399.4" y2="2657.7" href="#P"><stop stop-color="#ff9085"/><stop offset="1" stop-color="#fb6fbb"/></linearGradient><linearGradient id="g123" x1="2424.2" y1="2542.2" x2="2431.9" y2="2660.6" href="#P"><stop stop-color="#ff9085"/><stop offset="1" stop-color="#fb6fbb"/></linearGradient><linearGradient id="g124" x1="2454.7" y1="2567.7" x2="2460.4" y2="2654" href="#P"><stop stop-color="#ff9085"/><stop offset="1" stop-color="#fb6fbb"/></linearGradient><linearGradient id="g125" x1="2484.6" y1="2523.9" x2="2493.3" y2="2657.4" href="#P"><stop stop-color="#ff9085"/><stop offset="1" stop-color="#fb6fbb"/></linearGradient><linearGradient id="g126" x1="2514.6" y1="2508.2" x2="2524.3" y2="2656.2" href="#P"><stop stop-color="#ff9085"/><stop offset="1" stop-color="#fb6fbb"/></linearGradient><linearGradient id="g127" x1="2189.4" y1="2534.4" x2="2553.8" y2="2738.7" href="#P"><stop stop-color="#444b8c"/><stop offset="1" stop-color="#26264f"/></linearGradient><linearGradient id="g128" x1="2022.3" y1="2805.1" x2="2031.6" y2="2947" href="#P"><stop stop-color="#ff9085"/><stop offset="1" stop-color="#fb6fbb"/></linearGradient><linearGradient id="g129" x1="2053.4" y1="2892.2" x2="2054.6" y2="2909.6" href="#P"><stop stop-color="#ff9085"/><stop offset="1" stop-color="#fb6fbb"/></linearGradient><linearGradient id="g130" x1="2085" y1="2831.9" x2="2091.3" y2="2928.9" href="#P"><stop stop-color="#ff9085"/><stop offset="1" stop-color="#fb6fbb"/></linearGradient><linearGradient id="g131" x1="2116.2" y1="2870.4" x2="2119" y2="2912.4" href="#P"><stop stop-color="#ff9085"/><stop offset="1" stop-color="#fb6fbb"/></linearGradient><linearGradient id="g132" x1="2147.5" y1="2819.1" x2="2154.5" y2="2926.1" href="#P"><stop stop-color="#ff9085"/><stop offset="1" stop-color="#fb6fbb"/></linearGradient><linearGradient id="g133" x1="2178.6" y1="2842" x2="2183.4" y2="2915.8" href="#P"><stop stop-color="#ff9085"/><stop offset="1" stop-color="#fb6fbb"/></linearGradient><linearGradient id="g134" x1="2209.5" y1="2797.5" x2="2217.9" y2="2925.2" href="#P"><stop stop-color="#ff9085"/><stop offset="1" stop-color="#fb6fbb"/></linearGradient><linearGradient id="g135" x1="2240.4" y1="2784.4" x2="2249.6" y2="2924.9" href="#P"><stop stop-color="#ff9085"/><stop offset="1" stop-color="#fb6fbb"/></linearGradient><linearGradient id="g136" x1="2271.4" y1="2837.8" x2="2276.1" y2="2908.1" href="#P"><stop stop-color="#ff9085"/><stop offset="1" stop-color="#fb6fbb"/></linearGradient><linearGradient id="g137" x1="2301.9" y1="2767.7" x2="2312" y2="2921.1" href="#P"><stop stop-color="#ff9085"/><stop offset="1" stop-color="#fb6fbb"/></linearGradient><linearGradient id="g138" x1="2332.6" y1="2783.4" x2="2341.2" y2="2914" href="#P"><stop stop-color="#ff9085"/><stop offset="1" stop-color="#fb6fbb"/></linearGradient><linearGradient id="g139" x1="2363.7" y1="2860.4" x2="2366" y2="2895.7" href="#P"><stop stop-color="#ff9085"/><stop offset="1" stop-color="#fb6fbb"/></linearGradient><linearGradient id="g140" x1="2394" y1="2818.6" x2="2399.4" y2="2900.8" href="#P"><stop stop-color="#ff9085"/><stop offset="1" stop-color="#fb6fbb"/></linearGradient><linearGradient id="g141" x1="2424.2" y1="2785.3" x2="2431.9" y2="2903.4" href="#P"><stop stop-color="#ff9085"/><stop offset="1" stop-color="#fb6fbb"/></linearGradient><linearGradient id="g142" x1="2454.7" y1="2810.4" x2="2460.4" y2="2896.5" href="#P"><stop stop-color="#ff9085"/><stop offset="1" stop-color="#fb6fbb"/></linearGradient><linearGradient id="g143" x1="2484.6" y1="2766.3" x2="2493.3" y2="2899.5" href="#P"><stop stop-color="#ff9085"/><stop offset="1" stop-color="#fb6fbb"/></linearGradient><linearGradient id="g144" x1="2514.6" y1="2750.3" x2="2524.3" y2="2898.1" href="#P"><stop stop-color="#ff9085"/><stop offset="1" stop-color="#fb6fbb"/></linearGradient><linearGradient id="g145" x1="3276.5" y1="387.1" x2="2066.8" y2="1501.9" href="#P"><stop stop-color="#444b8c"/><stop offset="1" stop-color="#26264f"/></linearGradient><linearGradient id="g146" x1="1330.4" y1="488.9" x2="5413.5" y2="524.2" href="#P"><stop stop-color="#72c766"/><stop offset="1" stop-color="#67b35c"/><stop offset="1" stop-color="#67b35c"/></linearGradient><linearGradient id="g147" x1="1314.2" y1="830.9" x2="5325.3" y2="865.6" href="#P"><stop stop-color="#72c766"/><stop offset="1" stop-color="#67b35c"/><stop offset="1" stop-color="#67b35c"/></linearGradient><linearGradient id="g148" x1="3001.3" y1="2289.5" x2="2704.3" y2="2289.5" href="#P"><stop stop-color="#444b8c"/><stop offset="1" stop-color="#3e4177"/></linearGradient><linearGradient id="g149" x1="2878.9" y1="2857.7" x2="2923.7" y2="3122.6" href="#P"><stop stop-color="#444b8c"/><stop offset="1" stop-color="#26264f"/></linearGradient><linearGradient id="g150" x1="2765.1" y1="2912.4" x2="2803.9" y2="3155" href="#P"><stop stop-color="#311944"/><stop offset="1" stop-color="#a03976"/></linearGradient><linearGradient id="g151" x1="3005.2" y1="2289.4" x2="2704.5" y2="2289.4" href="#P"><stop stop-color="#444b8c"/><stop offset="1" stop-color="#3e4177"/></linearGradient><linearGradient id="g152" x1="2830.3" y1="2315.4" x2="2559.5" y2="2315.4" href="#P"><stop stop-color="#444b8c"/><stop offset="1" stop-color="#3e4177"/></linearGradient><linearGradient id="g153" x1="2390" y1="1898.8" x2="2566.2" y2="2526.3" href="#P"><stop stop-color="#ffc444"/><stop offset="1" stop-color="#f36f56"/></linearGradient><linearGradient id="g154" x1="2902.9" y1="2103.5" x2="2868.8" y2="2214.1" href="#P"><stop stop-color="#ffc444"/><stop offset="1" stop-color="#f36f56"/></linearGradient><linearGradient id="g155" x1="2742.9" y1="2029.3" x2="2788.5" y2="2106.3" href="#P"><stop stop-color="#311944"/><stop offset="1" stop-color="#a03976"/></linearGradient><linearGradient id="g156" x1="2385.2" y1="1863.7" x2="2572.9" y2="2532.3" href="#P"><stop stop-color="#ffc444"/><stop offset="1" stop-color="#f36f56"/></linearGradient><linearGradient id="g157" x1="2565.9" y1="2287.1" x2="2090.9" y2="1896.7" href="#P"><stop stop-color="#ffc444"/><stop offset="1" stop-color="#f36f56"/></linearGradient><linearGradient id="g158" x1="2912.9" y1="2243.4" x2="2744.5" y2="2116.5" href="#P"><stop stop-color="#72c766"/><stop offset="1" stop-color="#67b35c"/><stop offset="1" stop-color="#67b35c"/></linearGradient><linearGradient id="g159" x1="2859.2" y1="1988.8" x2="2777.4" y2="2136.5" href="#P"><stop stop-color="#72c766"/><stop offset="1" stop-color="#67b35c"/><stop offset="1" stop-color="#67b35c"/></linearGradient><linearGradient id="g160" x1="2858.9" y1="1949.7" x2="2986.5" y2="2258.7" href="#P"><stop stop-color="#72c766"/><stop offset="1" stop-color="#67b35c"/><stop offset="1" stop-color="#67b35c"/></linearGradient><linearGradient id="g161" x1="2641.3" y1="1730.3" x2="2662.9" y2="1914.5" href="#P"><stop stop-color="#311944"/><stop offset="1" stop-color="#a03976"/></linearGradient><linearGradient id="g162" x1="2926.7" y1="2077" x2="2873.8" y2="2077" href="#P"><stop stop-color="#311944"/><stop offset="1" stop-color="#a03976"/></linearGradient><linearGradient id="g163" x1="2856.2" y1="1727.3" x2="2826.3" y2="1816.1" href="#P"><stop stop-color="#444b8c"/><stop offset="1" stop-color="#26264f"/></linearGradient><linearGradient id="g164" x1="2709" y1="1761.3" x2="2728.2" y2="1809.3" href="#P"><stop stop-color="#311944"/><stop offset="1" stop-color="#a03976"/></linearGradient><linearGradient id="g165" x1="1570" y1="2451.1" x2="1587.4" y2="3522.2" href="#P"><stop stop-color="#444b8c"/><stop offset="1" stop-color="#26264f"/></linearGradient><linearGradient id="g166" x1="855.5" y1="3003.4" x2="861.3" y2="3118" href="#P"><stop stop-color="#893976"/><stop offset="1" stop-color="#311944"/></linearGradient><linearGradient id="g167" x1="1446.3" y1="2551.7" x2="1379" y2="3317.4" href="#P"><stop stop-color="#ff9085"/><stop offset="1" stop-color="#fb6fbb"/></linearGradient><linearGradient id="g168" x1="1427.8" y1="2550.2" x2="1363.5" y2="3281.9" href="#P"><stop stop-color="#ff9085"/><stop offset="1" stop-color="#fb6fbb"/></linearGradient><linearGradient id="g169" x1="1180.5" y1="2676.5" x2="842.3" y2="2676.5" href="#P"><stop stop-color="#72c766"/><stop offset="1" stop-color="#67b35c"/><stop offset="1" stop-color="#67b35c"/></linearGradient><linearGradient id="g170" x1="1155.9" y1="2470.2" x2="1292.4" y2="3307.6" href="#P"><stop stop-color="#ffc444"/><stop offset="1" stop-color="#f36f56"/></linearGradient><linearGradient id="g171" x1="1100.9" y1="2472.2" x2="1244.5" y2="3352.4" href="#P"><stop stop-color="#ffc444"/><stop offset="1" stop-color="#f36f56"/></linearGradient><linearGradient id="g172" x1="1152.4" y1="2676.5" x2="842.3" y2="2676.5" href="#P"><stop stop-color="#72c766"/><stop offset="1" stop-color="#67b35c"/><stop offset="1" stop-color="#67b35c"/></linearGradient><linearGradient id="g173" x1="843.5" y1="2519.3" x2="989.3" y2="3413.7" href="#P"><stop stop-color="#ffc444"/><stop offset="1" stop-color="#f36f56"/></linearGradient><linearGradient id="g174" x1="1153.7" y1="2990.4" x2="828.2" y2="2990.4" href="#P"><stop stop-color="#893976"/><stop offset="1" stop-color="#311944"/></linearGradient><linearGradient id="g175" x1="1153.5" y1="2991.9" x2="828.2" y2="2991.9" href="#P"><stop stop-color="#893976"/><stop offset="1" stop-color="#311944"/></linearGradient><linearGradient id="g176" x1="1080.9" y1="3233.3" x2="1135.6" y2="3165.1" href="#P"><stop stop-color="#aa80f9"/><stop offset="1" stop-color="#6165d7"/></linearGradient><linearGradient id="g177" x1="1113.1" y1="3207.9" x2="1190.9" y2="3110" href="#P"><stop stop-color="#ffc444"/><stop offset="1" stop-color="#f36f56"/></linearGradient><linearGradient id="g178" x1="1111.4" y1="3168.1" x2="1181.2" y2="3313.3" href="#P"><stop stop-color="#893976"/><stop offset="1" stop-color="#311944"/></linearGradient><linearGradient id="g179" x1="916.9" y1="1816.5" x2="936.5" y2="3004.2" href="#P"><stop stop-color="#72c766"/><stop offset="1" stop-color="#67b35c"/><stop offset="1" stop-color="#67b35c"/></linearGradient><linearGradient id="g180" x1="1068" y1="1824.4" x2="1087.1" y2="2987.5" href="#P"><stop stop-color="#72c766"/><stop offset="1" stop-color="#67b35c"/><stop offset="1" stop-color="#67b35c"/></linearGradient><linearGradient id="g181" x1="1015.1" y1="1829.1" x2="1034.2" y2="2987.4" href="#P"><stop stop-color="#72c766"/><stop offset="1" stop-color="#67b35c"/><stop offset="1" stop-color="#67b35c"/></linearGradient><linearGradient id="g182" x1="962" y1="1837.4" x2="980.9" y2="2985.3" href="#P"><stop stop-color="#72c766"/><stop offset="1" stop-color="#67b35c"/><stop offset="1" stop-color="#67b35c"/></linearGradient><linearGradient id="g183" x1="3006.4" y1="1097.5" x2="3026" y2="2285.2" href="#P"><stop stop-color="#72c766"/><stop offset="1" stop-color="#67b35c"/><stop offset="1" stop-color="#67b35c"/></linearGradient><linearGradient id="g184" x1="3157.4" y1="1105.4" x2="3176.6" y2="2268.5" href="#P"><stop stop-color="#72c766"/><stop offset="1" stop-color="#67b35c"/><stop offset="1" stop-color="#67b35c"/></linearGradient><linearGradient id="g185" x1="3104.6" y1="1110.1" x2="3123.7" y2="2268.4" href="#P"><stop stop-color="#72c766"/><stop offset="1" stop-color="#67b35c"/><stop offset="1" stop-color="#67b35c"/></linearGradient><linearGradient id="g186" x1="3051.5" y1="1118.4" x2="3070.4" y2="2266.3" href="#P"><stop stop-color="#72c766"/><stop offset="1" stop-color="#67b35c"/><stop offset="1" stop-color="#67b35c"/></linearGradient></defs><style>.a{fill:#f4f7fa}.b{fill:#d8dee8}.c{fill:#bfc8d6}.d{fill:#fff}.e{fill:url(#g1)}.f{fill:url(#g2)}.g{fill:url(#g3)}.h{fill:url(#g4)}.i{fill:url(#g5)}.j{fill:url(#g6)}.k{fill:url(#g7)}.l{fill:url(#g8)}.m{fill:url(#g9)}.n{fill:url(#g10)}.o{fill:url(#g11)}.p{fill:url(#g12)}.q{fill:url(#g13)}.r{fill:url(#g14)}.s{fill:url(#g15)}.t{fill:url(#g16)}.u{fill:url(#g17)}.v{fill:url(#g18)}.w{fill:url(#g19)}.x{fill:url(#g20)}.y{fill:url(#g21)}.z{fill:url(#g22)}.A{fill:url(#g23)}.B{fill:url(#g24)}.C{fill:url(#g25)}.D{fill:url(#g26)}.E{fill:url(#g27)}.F{fill:url(#g28)}.G{fill:url(#g29)}.H{fill:url(#g30)}.I{fill:url(#g31)}.J{fill:url(#g32)}.K{fill:url(#g33)}.L{fill:url(#g34)}.M{fill:url(#g35)}.N{fill:url(#g36)}.O{fill:url(#g37)}.P{fill:url(#g38)}.Q{fill:url(#g39)}.R{fill:url(#g40)}.S{fill:url(#g41)}.T{fill:url(#g42)}.U{fill:url(#g43)}.V{fill:url(#g44)}.W{fill:url(#g45)}.X{fill:url(#g46)}.Y{fill:url(#g47)}.Z{fill:url(#g48)}.a0{fill:url(#g49)}.a1{fill:url(#g50)}.a2{fill:url(#g51)}.a3{fill:url(#g52)}.a4{fill:url(#g53)}.a5{fill:url(#g54)}.a6{fill:url(#g55)}.a7{fill:url(#g56)}.a8{fill:url(#g57)}.a9{fill:url(#g58)}.aa{fill:url(#g59)}.ab{fill:url(#g60)}.ac{fill:url(#g61)}.ad{fill:url(#g62)}.ae{fill:url(#g63)}.af{fill:url(#g64)}.ag{fill:url(#g65)}.ah{fill:url(#g66)}.ai{fill:url(#g67)}.aj{fill:url(#g68)}.ak{fill:url(#g69)}.al{fill:url(#g70)}.am{fill:url(#g71)}.an{fill:url(#g72)}.ao{fill:url(#g73)}.ap{fill:url(#g74)}.aq{fill:url(#g75)}.ar{fill:url(#g76)}.as{fill:url(#g77)}.at{fill:url(#g78)}.au{fill:url(#g79)}.av{fill:url(#g80)}.aw{fill:url(#g81)}.ax{fill:url(#g82)}.ay{fill:url(#g83)}.az{fill:url(#g84)}.aA{fill:url(#g85)}.aB{fill:url(#g86)}.aC{fill:url(#g87)}.aD{fill:url(#g88)}.aE{fill:url(#g89)}.aF{fill:url(#g90)}.aG{fill:url(#g91)}.aH{fill:url(#g92)}.aI{fill:url(#g93)}.aJ{fill:url(#g94)}.aK{fill:url(#g95)}.aL{fill:url(#g96)}.aM{fill:url(#g97)}.aN{fill:url(#g98)}.aO{fill:url(#g99)}.aP{fill:url(#g100)}.aQ{fill:url(#g101)}.aR{fill:url(#g102)}.aS{fill:url(#g103)}.aT{fill:url(#g104)}.aU{fill:url(#g105)}.aV{fill:url(#g106)}.aW{fill:url(#g107)}.aX{fill:url(#g108)}.aY{fill:url(#g109)}.aZ{fill:url(#g110)}.b0{fill:url(#g111)}.b1{fill:url(#g112)}.b2{fill:url(#g113)}.b3{fill:url(#g114)}.b4{fill:url(#g115)}.b5{fill:url(#g116)}.b6{fill:url(#g117)}.b7{fill:url(#g118)}.b8{fill:url(#g119)}.b9{fill:url(#g120)}.ba{fill:url(#g121)}.bb{fill:url(#g122)}.bc{fill:url(#g123)}.bd{fill:url(#g124)}.be{fill:url(#g125)}.bf{fill:url(#g126)}.bg{fill:url(#g127)}.bh{fill:url(#g128)}.bi{fill:url(#g129)}.bj{fill:url(#g130)}.bk{fill:url(#g131)}.bl{fill:url(#g132)}.bm{fill:url(#g133)}.bn{fill:url(#g134)}.bo{fill:url(#g135)}.bp{fill:url(#g136)}.bq{fill:url(#g137)}.br{fill:url(#g138)}.bs{fill:url(#g139)}.bt{fill:url(#g140)}.bu{fill:url(#g141)}.bv{fill:url(#g142)}.bw{fill:url(#g143)}.bx{fill:url(#g144)}.by{opacity:.3;mix-blend-mode:soft-light;fill:#fff}.bz{fill:url(#g145)}.bA{fill:url(#g146)}.bB{opacity:.3;mix-blend-mode:multiply;fill:url(#g147)}.bC{fill:url(#g148)}.bD{fill:url(#g149)}.bE{fill:url(#g150)}.bF{opacity:.3;mix-blend-mode:multiply;fill:url(#g151)}.bG{fill:url(#g152)}.bH{fill:url(#g153)}.bI{fill:url(#g154)}.bJ{fill:url(#g155)}.bK{opacity:.3;mix-blend-mode:multiply;fill:url(#g156)}.bL{fill:url(#g157)}.bM{fill:url(#g158)}.bN{fill:url(#g159)}.bO{opacity:.3;mix-blend-mode:multiply;fill:url(#g160)}.bP{fill:url(#g161)}.bQ{fill:url(#g162)}.bR{fill:url(#g163)}.bS{fill:url(#g164)}.bT{fill:url(#g165)}.bU{fill:url(#g166)}.bV{fill:url(#g167)}.bW{fill:url(#g168)}.bX{fill:url(#g169)}.bY{fill:url(#g170)}.bZ{fill:url(#g171)}.c0{opacity:.4;mix-blend-mode:multiply;fill:url(#g172)}.c1{fill:url(#g173)}.c2{fill:url(#g174)}.c3{opacity:.3;mix-blend-mode:multiply;fill:url(#g175)}.c4{fill:url(#g176)}.c5{fill:url(#g177)}.c6{fill:url(#g178)}.c7{fill:url(#g179)}.c8{fill:url(#g180)}.c9{fill:url(#g181)}.ca{fill:url(#g182)}.cb{fill:url(#g183)}.cc{fill:url(#g184)}.cd{fill:url(#g185)}.ce{fill:url(#g186)}</style><path class="a" d="m2350.1 3178.1c-201.6 54.5-436.2 81.3-645.5 64.7-307.8-24.3-630.5-163.3-886.9-320.8-287.2-176.5-294.6-452.7-281.7-748.6 7.4-170-19.6-341.3-59.6-506.7-61.6-254.8-10.8-522 141.1-741.1 152-219.1 392.1-371.6 666-422.8 461.5-86.3 929.6-29.4 929.6-29.4 616.6 64.1 928.7 676.2 1004.8 1174.4 76.1 498.3 159.8 1252.7-867.8 1530.3z"/><path fill-rule="evenodd" class="b" d="m814.7 1872.8c0 35.1-30.3 65.7-67.6 68.2-37.4 2.5-67.9-24.2-67.9-59.5 0-35.3 30.5-65.9 67.9-68.2 37.3-2.4 67.6 24.3 67.6 59.5zm-106.3 6.8c0 20.2 17.4 35.4 38.7 34 21.3-1.4 38.7-18.9 38.7-39 0-20-17.4-35.3-38.7-33.9-21.3 1.3-38.7 18.8-38.7 38.9z"/><path fill-rule="evenodd" class="b" d="m872.5 1563.2c0 35.1-30.2 65.4-67.4 67.6-37.3 2.2-67.7-24.7-67.7-60 0-35.2 30.4-65.5 67.7-67.6 37.2-2 67.4 24.9 67.4 60zm-106 6c0 20.1 17.3 35.4 38.6 34.2 21.3-1.2 38.5-18.5 38.5-38.6 0-20.1-17.2-35.4-38.5-34.2-21.3 1.2-38.6 18.5-38.6 38.6z"/><path fill-rule="evenodd" class="b" d="m649.2 1271.7c0 35.3-30.5 65.6-68.2 67.5-37.7 1.9-68.4-25.3-68.4-60.8 0-35.4 30.7-65.7 68.4-67.5 37.7-1.8 68.2 25.5 68.2 60.8zm-107.2 5.3c0 20.2 17.5 35.8 39 34.7 21.5-1.1 39-18.4 39-38.5 0-20.2-17.5-35.8-39-34.7-21.5 1-39 18.3-39 38.5z"/><path fill-rule="evenodd" class="b" d="m1053.3 1222.3c0 34.9-29.9 64.9-66.8 66.7-36.9 1.9-67.1-25.1-67.1-60.2 0-35.1 30.2-65 67.1-66.8 36.9-1.7 66.8 25.3 66.8 60.3zm-105.1 5.1c0 20 17.2 35.4 38.3 34.4 21.1-1.1 38.2-18.2 38.2-38.1 0-20-17.1-35.4-38.2-34.4-21.1 1-38.3 18.1-38.3 38.1z"/><path class="b" d="m1275 1679.5v27l-230.5 14.1-261.3 153.7-14.1-23 268-157.4z"/><path class="b" d="m1275 1519v27l-416.9 23.8v-27.3z"/><path class="b" d="m1275 1358.5v27l-273.5 14.5-217-121.3-149.9 7.5v-27.5l158.5-7.8 216.9 121.5z"/><path class="b" d="m1275 1198v27l-240.6 11.8v-27.2z"/><path fill-rule="evenodd" class="b" d="m2919.1 996.2c0-33.5 27.4-61.9 61-63.3 33.5-1.5 60.7 24.5 60.7 57.8 0 33.3-27.2 61.7-60.7 63.3-33.6 1.5-61-24.4-61-57.8zm95.7-4.3c0-19.1-15.6-33.9-34.7-33-19.2 0.8-34.8 17-34.8 36.1 0 19.1 15.6 33.9 34.8 33 19.1-0.9 34.7-17.1 34.7-36.1z"/><path fill-rule="evenodd" class="b" d="m2866.7 1290.2c0-33.5 27.4-62.1 61.1-63.8 33.6-1.7 61 24 61 57.4 0 33.4-27.4 62-61 63.8-33.7 1.8-61.1-23.9-61.1-57.4zm95.9-5c0-19.1-15.6-33.8-34.8-32.8-19.2 1-34.9 17.3-34.9 36.4 0 19.1 15.7 33.8 34.9 32.8 19.2-1 34.8-17.4 34.8-36.4z"/><path fill-rule="evenodd" class="b" d="m3067.6 1566.6c0-33.3 27.1-62 60.5-63.9 33.2-2 60.3 23.4 60.3 56.6 0 33.2-27.1 61.9-60.3 64-33.4 2-60.5-23.4-60.5-56.7zm94.9-5.7c0-19-15.4-33.5-34.4-32.4-19.1 1.2-34.6 17.5-34.6 36.5 0 19 15.5 33.5 34.6 32.4 19-1.2 34.4-17.5 34.4-36.5z"/><path fill-rule="evenodd" class="b" d="m2700.8 1616.9c0-33.6 27.7-62.6 61.7-64.6 33.9-2 61.4 23.6 61.4 57.2 0 33.5-27.5 62.5-61.4 64.6-34 2.1-61.7-23.5-61.7-57.2zm96.8-5.8c0-19.2-15.7-33.8-35.1-32.7-19.4 1.2-35.2 17.7-35.2 36.9 0 19.2 15.8 33.8 35.2 32.7 19.4-1.2 35.1-17.8 35.1-36.9z"/><path class="b" d="m2493.4 1174.4v-26.3l215.6-10.4 238.6-142.4 12.7 22.2-244.4 146z"/><path class="b" d="m2493.4 1330.5v-26.3l386.4-20.2v26z"/><path class="b" d="m2493.4 1486.6v-26.3l255.3-14.4 197.7 115 134.2-8v25.9l-141.9 8.5-197.8-114.8z"/><path class="b" d="m2493.4 1642.7v-26.3l224.9-13.6v26.2z"/><path class="c" d="m1202.8 994.1l503.8-66 132.5 913-136.8 1295.3-502.5-101.5c-20-4-34.3-21.6-34.3-42v-1956.3c0-21.5 15.9-39.7 37.3-42.5z"/><path class="b" d="m2653.1 1021v2006c0 30.5-25.9 56.8-58.1 58.7l-884.8 50.6c-34.9 2-63.2-22.3-63.2-54.2v-2098.9c0-31.9 28.3-56.7 63.2-55.3l884.8 35.4c32.2 1.3 58.1 27.1 58.1 57.7z"/><path class="d" d="m1708 1173.2v-148.6c0-22.7 20.1-40.3 44.8-39.4l802.7 30.2c23 0.8 41.6 19.2 41.6 41.1v142.7c0 21.8-18.6 39-41.6 38.4l-802.7-22.1c-24.7-0.6-44.8-19.6-44.8-42.3z"/><path class="b" d="m1791.6 1041.3c0 10.4-9.2 18.6-20.7 18.2-11.4-0.4-20.7-9.2-20.7-19.7 0-10.5 9.3-18.7 20.7-18.3 11.5 0.5 20.7 9.3 20.7 19.8z"/><path class="b" d="m1856.9 1043.6c0 10.4-9.2 18.6-20.6 18.2-11.3-0.4-20.6-9.2-20.6-19.7 0-10.5 9.3-18.6 20.6-18.2 11.4 0.4 20.6 9.2 20.6 19.7z"/><path class="b" d="m1921.8 1045.8c0 10.5-9.2 18.6-20.5 18.2-11.3-0.4-20.4-9.2-20.4-19.6 0-10.4 9.1-18.6 20.4-18.2 11.3 0.4 20.5 9.2 20.5 19.6z"/><path class="e" d="m2551.7 1201.7l-589.2-17.1v-156.2l589.2 21.3z"/><g style="opacity:.3;mix-blend-mode:soft-light"><path class="d" d="m2019.9 1175.2l-17.8-0.5v-126l17.8 0.6z"/><path class="d" d="m2051.4 1176.2l-17.7-0.6v-125.8l17.7 0.6z"/><path class="d" d="m2082.9 1177.1l-17.7-0.5v-125.7l17.7 0.6z"/><path class="d" d="m2114.2 1178l-17.6-0.5v-125.5l17.6 0.6z"/><path class="d" d="m2145.5 1178.9l-17.6-0.5v-125.3l17.6 0.6z"/><path class="d" d="m2176.7 1179.9l-17.6-0.5v-125.2l17.6 0.6z"/><path class="d" d="m2207.8 1180.8l-17.5-0.5v-125l17.5 0.6z"/><path class="d" d="m2238.8 1181.7l-17.5-0.5v-124.8l17.5 0.6z"/><path class="d" d="m2269.7 1182.6l-17.4-0.5v-124.6l17.4 0.6z"/><path class="d" d="m2300.5 1183.5l-17.3-0.5v-124.5l17.3 0.7z"/><path class="d" d="m2331.3 1184.4l-17.3-0.5v-124.3l17.3 0.6z"/><path class="d" d="m2361.9 1185.3l-17.2-0.5v-124.1l17.2 0.6z"/><path class="d" d="m2392.5 1186.2l-17.2-0.5v-123.9l17.2 0.6z"/><path class="d" d="m2423 1187.1l-17.1-0.5v-123.7l17.1 0.6z"/><path class="d" d="m2453.4 1188l-17.1-0.5v-123.6l17.1 0.6z"/><path class="d" d="m2483.7 1188.9l-17-0.5v-123.4l17 0.6z"/><path class="d" d="m2514 1189.8l-17-0.5v-123.2l17 0.6z"/></g><g style="opacity:.7"><path class="f" d="m2019.9 1175.2l-17.8-0.5v-107.2l17.8 0.6z"/><path class="g" d="m2051.4 1176.2l-17.7-0.6v-12.9l17.7 0.6z"/><path class="h" d="m2082.9 1177.1l-17.7-0.5v-73.2l17.7 0.5z"/><path class="i" d="m2114.2 1178l-17.6-0.5v-31.6l17.6 0.6z"/><path class="j" d="m2145.5 1178.9l-17.6-0.5v-80.7l17.6 0.6z"/><path class="k" d="m2176.7 1179.9l-17.6-0.5v-55.7l17.6 0.6z"/><path class="l" d="m2207.8 1180.8l-17.5-0.5v-96.5l17.5 0.6z"/><path class="m" d="m2238.8 1181.7l-17.5-0.5v-106.2l17.5 0.6z"/><path class="n" d="m2269.7 1182.6l-17.4-0.5v-53l17.4 0.5z"/><path class="o" d="m2300.5 1183.5l-17.3-0.5v-115.9l17.3 0.6z"/><path class="p" d="m2331.3 1184.4l-17.3-0.5v-98.6l17.3 0.6z"/><path class="q" d="m2361.9 1185.3l-17.2-0.5v-26.4l17.2 0.6z"/><path class="r" d="m2392.5 1186.2l-17.2-0.5v-61.9l17.2 0.5z"/><path class="s" d="m2423 1187.1l-17.1-0.5v-89.2l17.1 0.6z"/><path class="t" d="m2453.4 1188l-17.1-0.5v-64.9l17.1 0.5z"/><path class="u" d="m2483.7 1188.9l-17-0.5v-100.6l17 0.6z"/><path class="v" d="m2514 1189.8l-17-0.5v-111.7l17 0.6z"/></g><path class="d" d="m1708 1423.9v-148.5c0-22.7 20.1-40.6 44.8-39.9l802.7 21.3c23 0.6 41.6 18.8 41.6 40.6v142.7c0 21.8-18.6 39.2-41.6 38.9l-802.7-13.2c-24.7-0.4-44.8-19.1-44.8-41.9z"/><path class="b" d="m1791.6 1291.1c0 10.5-9.2 18.8-20.7 18.5-11.4-0.3-20.7-9-20.7-19.5 0-10.5 9.3-18.8 20.7-18.5 11.5 0.3 20.7 9 20.7 19.5z"/><path class="b" d="m1856.9 1292.7c0 10.4-9.2 18.7-20.6 18.4-11.3-0.3-20.6-9-20.6-19.4 0-10.5 9.3-18.7 20.6-18.5 11.4 0.3 20.6 9 20.6 19.5z"/><path class="b" d="m1921.8 1294.2c0 10.5-9.2 18.7-20.5 18.4-11.3-0.2-20.4-8.9-20.4-19.3 0-10.5 9.1-18.7 20.4-18.4 11.3 0.2 20.5 8.9 20.5 19.3z"/><path class="w" d="m2551.7 1443.1l-589.2-10.6v-156.1l589.2 14.7z"/><g style="opacity:.3;mix-blend-mode:soft-light"><path class="d" d="m2019.9 1422.6l-17.8-0.4v-126l17.8 0.4z"/><path class="d" d="m2051.4 1423.1l-17.7-0.3v-125.9l17.7 0.5z"/><path class="d" d="m2082.9 1423.7l-17.7-0.3v-125.7l17.7 0.4z"/><path class="d" d="m2114.2 1424.3l-17.6-0.3v-125.5l17.6 0.4z"/><path class="d" d="m2145.5 1424.9l-17.6-0.3v-125.4l17.6 0.4z"/><path class="d" d="m2176.7 1425.5l-17.6-0.4v-125.1l17.6 0.4z"/><path class="d" d="m2207.8 1426l-17.5-0.3v-125l17.5 0.4z"/><path class="d" d="m2238.8 1426.6l-17.5-0.3v-124.8l17.5 0.4z"/><path class="d" d="m2269.7 1427.2l-17.4-0.3v-124.7l17.4 0.4z"/><path class="d" d="m2300.5 1427.7l-17.3-0.3v-124.4l17.3 0.4z"/><path class="d" d="m2331.3 1428.3l-17.3-0.3v-124.3l17.3 0.4z"/><path class="d" d="m2361.9 1428.9l-17.2-0.3v-124.2l17.2 0.5z"/><path class="d" d="m2392.5 1429.4l-17.2-0.3v-123.9l17.2 0.4z"/><path class="d" d="m2423 1430l-17.1-0.3v-123.8l17.1 0.4z"/><path class="d" d="m2453.4 1430.6l-17.1-0.3v-123.6l17.1 0.4z"/><path class="d" d="m2483.7 1431.1l-17-0.3v-123.4l17 0.4z"/><path class="d" d="m2514 1431.7l-17-0.3v-123.3l17 0.4z"/></g><g style="opacity:.7"><path class="x" d="m2019.9 1422.6l-17.8-0.4v-107.2l17.8 0.4z"/><path class="y" d="m2051.4 1423.1l-17.7-0.3v-12.9l17.7 0.4z"/><path class="z" d="m2082.9 1423.7l-17.7-0.3v-73.2l17.7 0.4z"/><path class="A" d="m2114.2 1424.3l-17.6-0.3v-31.6l17.6 0.4z"/><path class="B" d="m2145.5 1424.9l-17.6-0.3v-80.8l17.6 0.4z"/><path class="C" d="m2176.7 1425.5l-17.6-0.4v-55.6l17.6 0.4z"/><path class="D" d="m2207.8 1426l-17.5-0.3v-96.4l17.5 0.4z"/><path class="E" d="m2238.8 1426.6l-17.5-0.3v-106.2l17.5 0.4z"/><path class="F" d="m2269.7 1427.2l-17.4-0.3v-53.1l17.4 0.4z"/><path class="G" d="m2300.5 1427.7l-17.3-0.3v-115.9l17.3 0.4z"/><path class="H" d="m2331.3 1428.3l-17.3-0.3v-98.6l17.3 0.4z"/><path class="I" d="m2361.9 1428.9l-17.2-0.3v-26.4l17.2 0.3z"/><path class="J" d="m2392.5 1429.4l-17.2-0.3v-61.9l17.2 0.3z"/><path class="K" d="m2423 1430l-17.1-0.3v-89.2l17.1 0.4z"/><path class="L" d="m2453.4 1430.6l-17.1-0.3v-65l17.1 0.4z"/><path class="M" d="m2483.7 1431.1l-17-0.3v-100.6l17 0.4z"/><path class="N" d="m2514 1431.7l-17-0.3v-111.7l17 0.4z"/></g><path class="d" d="m1708 1674.7v-148.5c0-22.7 20.1-40.9 44.8-40.5l802.7 12.5c23 0.3 41.6 18.3 41.6 40.1v142.7c0 21.9-18.6 39.5-41.6 39.4l-802.7-4.3c-24.7-0.1-44.8-18.7-44.8-41.4z"/><path class="b" d="m1791.6 1540.9c0 10.5-9.2 18.9-20.7 18.8-11.4-0.2-20.7-8.8-20.7-19.3 0-10.5 9.3-18.9 20.7-18.7 11.5 0.1 20.7 8.8 20.7 19.2z"/><path class="b" d="m1856.9 1541.8c0 10.4-9.2 18.8-20.6 18.7-11.3-0.2-20.6-8.8-20.6-19.2 0-10.5 9.3-18.9 20.6-18.7 11.4 0.1 20.6 8.7 20.6 19.2z"/><path class="b" d="m1921.8 1542.6c0 10.5-9.2 18.8-20.5 18.7-11.3-0.2-20.4-8.8-20.4-19.2 0-10.4 9.1-18.8 20.4-18.6 11.3 0.2 20.5 8.7 20.5 19.1z"/><path class="O" d="m2551.7 1684.6l-589.2-4.1v-156.2l589.2 8.2z"/><g style="opacity:.3;mix-blend-mode:soft-light"><path class="d" d="m2019.9 1669.9l-17.8-0.2v-126l17.8 0.2z"/><path class="d" d="m2051.4 1670.1l-17.7-0.1v-125.9l17.7 0.2z"/><path class="d" d="m2082.9 1670.3l-17.7-0.1v-125.7l17.7 0.2z"/><path class="d" d="m2114.2 1670.6l-17.6-0.2v-125.5l17.6 0.3z"/><path class="d" d="m2145.5 1670.8l-17.6-0.1v-125.4l17.6 0.3z"/><path class="d" d="m2176.7 1671l-17.6-0.1v-125.2l17.6 0.3z"/><path class="d" d="m2207.8 1671.3l-17.5-0.2v-124.9l17.5 0.2z"/><path class="d" d="m2238.8 1671.5l-17.5-0.1v-124.8l17.5 0.2z"/><path class="d" d="m2269.7 1671.7l-17.4-0.1v-124.6l17.4 0.2z"/><path class="d" d="m2300.5 1672l-17.3-0.2v-124.4l17.3 0.2z"/><path class="d" d="m2331.3 1672.2l-17.3-0.1v-124.3l17.3 0.2z"/><path class="d" d="m2361.9 1672.4l-17.2-0.1v-124.1l17.2 0.2z"/><path class="d" d="m2392.5 1672.6l-17.2-0.1v-123.9l17.2 0.2z"/><path class="d" d="m2423 1672.9l-17.1-0.2v-123.7l17.1 0.2z"/><path class="d" d="m2453.4 1673.1l-17.1-0.1v-123.6l17.1 0.2z"/><path class="d" d="m2483.7 1673.3l-17-0.1v-123.4l17 0.2z"/><path class="d" d="m2514 1673.6l-17-0.2v-123.2l17 0.2z"/></g><g style="opacity:.7"><path class="P" d="m2019.9 1669.9l-17.8-0.2v-107.2l17.8 0.2z"/><path class="Q" d="m2051.4 1670.1l-17.7-0.1v-12.9l17.7 0.1z"/><path class="R" d="m2082.9 1670.3l-17.7-0.1v-73.2l17.7 0.2z"/><path class="S" d="m2114.2 1670.6l-17.6-0.2v-31.5l17.6 0.1z"/><path class="T" d="m2145.5 1670.8l-17.6-0.1v-80.8l17.6 0.2z"/><path class="U" d="m2176.7 1671l-17.6-0.1v-55.6l17.6 0.2z"/><path class="V" d="m2207.8 1671.3l-17.5-0.2v-96.4l17.5 0.2z"/><path class="W" d="m2238.8 1671.5l-17.5-0.1v-106.2l17.5 0.2z"/><path class="X" d="m2269.7 1671.7l-17.4-0.1v-53l17.4 0.1z"/><path class="Y" d="m2300.5 1672l-17.3-0.2v-115.9l17.3 0.2z"/><path class="Z" d="m2331.3 1672.2l-17.3-0.1v-98.6l17.3 0.2z"/><path class="a0" d="m2361.9 1672.4l-17.2-0.1v-26.4l17.2 0.1z"/><path class="a1" d="m2392.5 1672.6l-17.2-0.1v-62l17.2 0.2z"/><path class="a2" d="m2423 1672.9l-17.1-0.2v-89.1l17.1 0.1z"/><path class="a3" d="m2453.4 1673.1l-17.1-0.1v-65l17.1 0.2z"/><path class="a4" d="m2483.7 1673.3l-17-0.1v-100.6l17 0.2z"/><path class="a5" d="m2514 1673.6l-17-0.2v-111.7l17 0.3z"/></g><path class="d" d="m1708 1925.5v-148.6c0-22.7 20.1-41 44.8-40.9l802.7 3.6c23 0.1 41.6 17.8 41.6 39.7v142.7c0 21.8-18.6 39.6-41.6 39.8l-802.7 4.6c-24.7 0.1-44.8-18.2-44.8-40.9z"/><path class="b" d="m1791.6 1790.8c0 10.5-9.2 18.9-20.7 18.9-11.4 0-20.7-8.5-20.7-19 0-10.5 9.3-19 20.7-18.9 11.5 0 20.7 8.5 20.7 19z"/><path class="b" d="m1856.9 1790.9c0 10.5-9.2 18.9-20.6 18.9-11.3 0-20.6-8.5-20.6-19 0-10.4 9.3-18.9 20.6-18.9 11.4 0.1 20.6 8.6 20.6 19z"/><path class="b" d="m1921.8 1791c0 10.5-9.2 18.9-20.5 18.9-11.3 0-20.4-8.5-20.4-18.9 0-10.5 9.1-18.9 20.4-18.9 11.3 0.1 20.5 8.5 20.5 18.9z"/><path class="a6" d="m2551.7 1926l-589.2 2.4v-156.1l589.2 1.7z"/><g style="opacity:.3;mix-blend-mode:soft-light"><path class="d" d="m2019.9 1917.2l-17.8 0.1v-126.1h17.8z"/><path class="d" d="m2051.4 1917.1h-17.7v-125.8h17.7z"/><path class="d" d="m2082.9 1917h-17.7v-125.7l17.7 0.1z"/><path class="d" d="m2114.2 1916.9h-17.6v-125.5h17.6z"/><path class="d" d="m2145.5 1916.7l-17.6 0.1v-125.3h17.6z"/><path class="d" d="m2176.7 1916.6l-17.6 0.1v-125.2l17.6 0.1z"/><path class="d" d="m2207.8 1916.5l-17.5 0.1v-125h17.5z"/><path class="d" d="m2238.8 1916.4l-17.5 0.1v-124.8h17.5z"/><path class="d" d="m2269.7 1916.3l-17.4 0.1v-124.7h17.4z"/><path class="d" d="m2300.5 1916.2h-17.3v-124.4h17.3z"/><path class="d" d="m2331.3 1916.1h-17.3v-124.3l17.3 0.1z"/><path class="d" d="m2361.9 1916h-17.2v-124.1h17.2z"/><path class="d" d="m2392.5 1915.9h-17.2v-123.9h17.2z"/><path class="d" d="m2423 1915.7l-17.1 0.1v-123.8l17.1 0.1z"/><path class="d" d="m2453.4 1915.6l-17.1 0.1v-123.6h17.1z"/><path class="d" d="m2483.7 1915.5l-17 0.1v-123.5l17 0.1z"/><path class="d" d="m2514 1915.4l-17 0.1v-123.3h17z"/></g><g style="opacity:.7"><path class="a7" d="m2019.9 1917.2l-17.8 0.1v-107.3h17.8z"/><path class="a8" d="m2051.4 1917.1h-17.7v-12.9h17.7z"/><path class="a9" d="m2082.9 1917h-17.7v-73.2h17.7z"/><path class="aa" d="m2114.2 1916.9h-17.6v-31.6h17.6z"/><path class="ab" d="m2145.5 1916.7l-17.6 0.1v-80.7h17.6z"/><path class="ac" d="m2176.7 1916.6l-17.6 0.1v-55.6h17.6z"/><path class="ad" d="m2207.8 1916.5l-17.5 0.1v-96.5l17.5 0.1z"/><path class="ae" d="m2238.8 1916.4l-17.5 0.1v-106.2h17.5z"/><path class="af" d="m2269.7 1916.3l-17.4 0.1v-53.1h17.4z"/><path class="ag" d="m2300.5 1916.2h-17.3v-115.9h17.3z"/><path class="ah" d="m2331.3 1916.1h-17.3v-98.6h17.3z"/><path class="ai" d="m2361.9 1916h-17.2v-26.4h17.2z"/><path class="aj" d="m2392.5 1915.9h-17.2v-62h17.2z"/><path class="ak" d="m2423 1915.7l-17.1 0.1v-89.2h17.1z"/><path class="al" d="m2453.4 1915.6l-17.1 0.1v-65h17.1z"/><path class="am" d="m2483.7 1915.5l-17 0.1v-100.6h17z"/><path class="an" d="m2514 1915.4l-17 0.1v-111.7h17z"/></g><path class="d" d="m1708 2176.2v-148.5c0-22.7 20.1-41.3 44.8-41.4l802.7-5.3c23-0.2 41.6 17.4 41.6 39.2v142.7c0 21.9-18.6 39.9-41.6 40.3l-802.7 13.4c-24.7 0.4-44.8-17.6-44.8-40.4z"/><path class="b" d="m1791.6 2040.6c0 10.5-9.2 19.1-20.7 19.2-11.4 0.1-20.7-8.3-20.7-18.8 0-10.5 9.3-19.1 20.7-19.2 11.5-0.1 20.7 8.3 20.7 18.8z"/><path class="b" d="m1856.9 2040c0 10.5-9.2 19-20.6 19.1-11.3 0.2-20.6-8.2-20.6-18.7 0-10.5 9.3-19 20.6-19.1 11.4-0.1 20.6 8.3 20.6 18.7z"/><path class="b" d="m1921.8 2039.4c0 10.5-9.2 19-20.5 19.1-11.3 0.1-20.4-8.3-20.4-18.7 0-10.4 9.1-19 20.4-19 11.3-0.1 20.5 8.2 20.5 18.6z"/><path class="ao" d="m2551.7 2167.4l-589.2 9v-156.1l589.2-4.9z"/><g style="opacity:.3;mix-blend-mode:soft-light"><path class="d" d="m2019.9 2164.5l-17.8 0.3v-126.1l17.8-0.1z"/><path class="d" d="m2051.4 2164l-17.7 0.3v-125.9l17.7-0.1z"/><path class="d" d="m2082.9 2163.6l-17.7 0.2v-125.6l17.7-0.2z"/><path class="d" d="m2114.2 2163.1l-17.6 0.3v-125.5l17.6-0.2z"/><path class="d" d="m2145.5 2162.7l-17.6 0.2v-125.3l17.6-0.2z"/><path class="d" d="m2176.7 2162.2l-17.6 0.3v-125.2l17.6-0.2z"/><path class="d" d="m2207.8 2161.8l-17.5 0.2v-125l17.5-0.1z"/><path class="d" d="m2238.8 2161.3l-17.5 0.3v-124.9l17.5-0.1z"/><path class="d" d="m2269.7 2160.9l-17.4 0.2v-124.6l17.4-0.2z"/><path class="d" d="m2300.5 2160.4l-17.3 0.3v-124.5l17.3-0.2z"/><path class="d" d="m2331.3 2159.9l-17.3 0.3v-124.3l17.3-0.1z"/><path class="d" d="m2361.9 2159.5l-17.2 0.3v-124.2l17.2-0.1z"/><path class="d" d="m2392.5 2159.1l-17.2 0.2v-123.9l17.2-0.2z"/><path class="d" d="m2423 2158.6l-17.1 0.3v-123.8l17.1-0.2z"/><path class="d" d="m2453.4 2158.2l-17.1 0.2v-123.6l17.1-0.2z"/><path class="d" d="m2483.7 2157.7l-17 0.3v-123.5l17-0.1z"/><path class="d" d="m2514 2157.3l-17 0.2v-123.2l17-0.2z"/></g><g style="opacity:.7"><path class="ap" d="m2019.9 2164.5l-17.8 0.3v-107.3l17.8-0.2z"/><path class="aq" d="m2051.4 2164l-17.7 0.3v-12.9l17.7-0.2z"/><path class="ar" d="m2082.9 2163.6l-17.7 0.2v-73.2l17.7-0.2z"/><path class="as" d="m2114.2 2163.1l-17.6 0.3v-31.6l17.6-0.2z"/><path class="at" d="m2145.5 2162.7l-17.6 0.2v-80.7l17.6-0.2z"/><path class="au" d="m2176.7 2162.2l-17.6 0.3v-55.6l17.6-0.2z"/><path class="av" d="m2207.8 2161.8l-17.5 0.2v-96.4l17.5-0.2z"/><path class="aw" d="m2238.8 2161.3l-17.5 0.3v-106.2l17.5-0.2z"/><path class="ax" d="m2269.7 2160.9l-17.4 0.2v-53l17.4-0.2z"/><path class="ay" d="m2300.5 2160.4l-17.3 0.3v-116l17.3-0.2z"/><path class="az" d="m2331.3 2159.9l-17.3 0.3v-98.6l17.3-0.2z"/><path class="aA" d="m2361.9 2159.5l-17.2 0.3v-26.5l17.2-0.2z"/><path class="aB" d="m2392.5 2159.1l-17.2 0.2v-62l17.2-0.2z"/><path class="aC" d="m2423 2158.6l-17.1 0.3v-89.2l17.1-0.2z"/><path class="aD" d="m2453.4 2158.2l-17.1 0.2v-64.9l17.1-0.2z"/><path class="aE" d="m2483.7 2157.7l-17 0.3v-100.7l17-0.1z"/><path class="aF" d="m2514 2157.3l-17 0.2v-111.7l17-0.1z"/></g><path class="d" d="m1708 2427v-148.5c0-22.8 20.1-41.5 44.8-42l802.7-14.1c23-0.4 41.6 16.9 41.6 38.8v142.7c0 21.8-18.6 40-41.6 40.7l-802.7 22.3c-24.7 0.7-44.8-17.2-44.8-39.9z"/><path class="b" d="m1791.6 2290.5c0 10.4-9.2 19.1-20.7 19.4-11.4 0.2-20.7-8.1-20.7-18.6 0-10.5 9.3-19.2 20.7-19.4 11.5-0.2 20.7 8.1 20.7 18.6z"/><path class="b" d="m1856.9 2289.1c0 10.5-9.2 19.2-20.6 19.4-11.3 0.2-20.6-8.1-20.6-18.5 0-10.5 9.3-19.2 20.6-19.4 11.4-0.2 20.6 8.1 20.6 18.5z"/><path class="b" d="m1921.8 2287.8c0 10.5-9.2 19.1-20.5 19.3-11.3 0.3-20.4-8-20.4-18.4 0-10.5 9.1-19.1 20.4-19.3 11.3-0.2 20.5 8 20.5 18.4z"/><path class="aG" d="m2551.7 2408.9l-589.2 15.4v-156.1l589.2-11.3z"/><g style="opacity:.3;mix-blend-mode:soft-light"><path class="d" d="m2019.9 2411.8l-17.8 0.5v-126.1l17.8-0.3z"/><path class="d" d="m2051.4 2411l-17.7 0.5v-125.9l17.7-0.4z"/><path class="d" d="m2082.9 2410.2l-17.7 0.5v-125.7l17.7-0.4z"/><path class="d" d="m2114.2 2409.4l-17.6 0.5v-125.6l17.6-0.3z"/><path class="d" d="m2145.5 2408.6l-17.6 0.5v-125.4l17.6-0.3z"/><path class="d" d="m2176.7 2407.8l-17.6 0.4v-125.1l17.6-0.4z"/><path class="d" d="m2207.8 2407l-17.5 0.4v-124.9l17.5-0.4z"/><path class="d" d="m2238.8 2406.2l-17.5 0.5v-124.9l17.5-0.3z"/><path class="d" d="m2269.7 2405.4l-17.4 0.5v-124.7l17.4-0.3z"/><path class="d" d="m2300.5 2404.6l-17.3 0.5v-124.5l17.3-0.4z"/><path class="d" d="m2331.3 2403.8l-17.3 0.5v-124.3l17.3-0.4z"/><path class="d" d="m2361.9 2403l-17.2 0.5v-124.1l17.2-0.4z"/><path class="d" d="m2392.5 2402.3l-17.2 0.4v-124l17.2-0.3z"/><path class="d" d="m2423 2401.5l-17.1 0.4v-123.8l17.1-0.3z"/><path class="d" d="m2453.4 2400.7l-17.1 0.4v-123.6l17.1-0.3z"/><path class="d" d="m2483.7 2399.9l-17 0.4v-123.4l17-0.3z"/><path class="d" d="m2514 2399.1l-17 0.5v-123.3l17-0.3z"/></g><g style="opacity:.7"><path class="aH" d="m2019.9 2411.8l-17.8 0.5v-107.3l17.8-0.3z"/><path class="aI" d="m2051.4 2411l-17.7 0.5v-12.9l17.7-0.5z"/><path class="aJ" d="m2082.9 2410.2l-17.7 0.5v-73.2l17.7-0.4z"/><path class="aK" d="m2114.2 2409.4l-17.6 0.5v-31.6l17.6-0.4z"/><path class="aL" d="m2145.5 2408.6l-17.6 0.5v-80.8l17.6-0.4z"/><path class="aM" d="m2176.7 2407.8l-17.6 0.4v-55.6l17.6-0.4z"/><path class="aN" d="m2207.8 2407l-17.5 0.4v-96.4l17.5-0.4z"/><path class="aO" d="m2238.8 2406.2l-17.5 0.5v-106.3l17.5-0.3z"/><path class="aP" d="m2269.7 2405.4l-17.4 0.5v-53.1l17.4-0.4z"/><path class="aQ" d="m2300.5 2404.6l-17.3 0.5v-116l17.3-0.3z"/><path class="aR" d="m2331.3 2403.8l-17.3 0.5v-98.6l17.3-0.4z"/><path class="aS" d="m2361.9 2403l-17.2 0.5v-26.4l17.2-0.4z"/><path class="aT" d="m2392.5 2402.3l-17.2 0.4v-62l17.2-0.4z"/><path class="aU" d="m2423 2401.5l-17.1 0.4v-89.2l17.1-0.4z"/><path class="aV" d="m2453.4 2400.7l-17.1 0.4v-64.9l17.1-0.4z"/><path class="aW" d="m2483.7 2399.9l-17 0.4v-100.6l17-0.3z"/><path class="aX" d="m2514 2399.1l-17 0.5v-111.7l17-0.4z"/></g><path class="d" d="m1708 2677.8v-148.6c0-22.7 20.1-41.7 44.8-42.4l802.7-23c23-0.7 41.6 16.5 41.6 38.3v142.7c0 21.8-18.6 40.3-41.6 41.2l-802.7 31.2c-24.7 0.9-44.8-16.7-44.8-39.4z"/><path class="b" d="m1791.6 2540.3c0 10.5-9.2 19.3-20.7 19.6-11.4 0.4-20.7-7.8-20.7-18.3 0-10.5 9.3-19.3 20.7-19.6 11.5-0.4 20.7 7.8 20.7 18.3z"/><path class="b" d="m1856.9 2538.3c0 10.4-9.2 19.2-20.6 19.5-11.3 0.4-20.6-7.8-20.6-18.3 0-10.4 9.3-19.2 20.6-19.5 11.4-0.4 20.6 7.8 20.6 18.3z"/><path class="b" d="m1921.8 2536.2c0 10.5-9.2 19.2-20.5 19.6-11.3 0.3-20.4-7.8-20.4-18.3 0-10.4 9.1-19.1 20.4-19.5 11.3-0.3 20.5 7.8 20.5 18.2z"/><path class="aY" d="m2551.7 2650.3l-589.2 22v-156.1l589.2-17.9z"/><g style="opacity:.3;mix-blend-mode:soft-light"><path class="d" d="m2019.9 2659.1l-17.8 0.7v-126.1l17.8-0.5z"/><path class="d" d="m2051.4 2658l-17.7 0.6v-125.8l17.7-0.6z"/><path class="d" d="m2082.9 2656.8l-17.7 0.7v-125.7l17.7-0.6z"/><path class="d" d="m2114.2 2655.7l-17.6 0.6v-125.5l17.6-0.5z"/><path class="d" d="m2145.5 2654.5l-17.6 0.7v-125.4l17.6-0.5z"/><path class="d" d="m2176.7 2653.4l-17.6 0.6v-125.1l17.6-0.6z"/><path class="d" d="m2207.8 2652.2l-17.5 0.7v-125l17.5-0.6z"/><path class="d" d="m2238.8 2651.1l-17.5 0.6v-124.8l17.5-0.5z"/><path class="d" d="m2269.7 2650l-17.4 0.6v-124.6l17.4-0.6z"/><path class="d" d="m2300.5 2648.8l-17.3 0.7v-124.5l17.3-0.5z"/><path class="d" d="m2331.3 2647.7l-17.3 0.6v-124.3l17.3-0.5z"/><path class="d" d="m2361.9 2646.6l-17.2 0.6v-124.1l17.2-0.5z"/><path class="d" d="m2392.5 2645.5l-17.2 0.6v-124l17.2-0.5z"/><path class="d" d="m2423 2644.3l-17.1 0.7v-123.8l17.1-0.5z"/><path class="d" d="m2453.4 2643.2l-17.1 0.6v-123.6l17.1-0.5z"/><path class="d" d="m2483.7 2642.1l-17 0.6v-123.4l17-0.5z"/><path class="d" d="m2514 2641l-17 0.6v-123.3l17-0.5z"/></g><g style="opacity:.7"><path class="aZ" d="m2019.9 2659.1l-17.8 0.7v-107.3l17.8-0.5z"/><path class="b0" d="m2051.4 2658l-17.7 0.6v-12.9l17.7-0.6z"/><path class="b1" d="m2082.9 2656.8l-17.7 0.7v-73.2l17.7-0.6z"/><path class="b2" d="m2114.2 2655.7l-17.6 0.6v-31.5l17.6-0.7z"/><path class="b3" d="m2145.5 2654.5l-17.6 0.7v-80.8l17.6-0.6z"/><path class="b4" d="m2176.7 2653.4l-17.6 0.6v-55.6l17.6-0.6z"/><path class="b5" d="m2207.8 2652.2l-17.5 0.7v-96.4l17.5-0.6z"/><path class="b6" d="m2238.8 2651.1l-17.5 0.6v-106.2l17.5-0.5z"/><path class="b7" d="m2269.7 2650l-17.4 0.6v-53l17.4-0.6z"/><path class="b8" d="m2300.5 2648.8l-17.3 0.7v-116l17.3-0.5z"/><path class="b9" d="m2331.3 2647.7l-17.3 0.6v-98.6l17.3-0.5z"/><path class="ba" d="m2361.9 2646.6l-17.2 0.6v-26.4l17.2-0.6z"/><path class="bb" d="m2392.5 2645.5l-17.2 0.6v-62l17.2-0.6z"/><path class="bc" d="m2423 2644.3l-17.1 0.7v-89.2l17.1-0.6z"/><path class="bd" d="m2453.4 2643.2l-17.1 0.6v-64.9l17.1-0.6z"/><path class="be" d="m2483.7 2642.1l-17 0.6v-100.6l17-0.5z"/><path class="bf" d="m2514 2641l-17 0.6v-111.7l17-0.5z"/></g><path class="d" d="m1708 2928.5v-148.5c0-22.7 20.1-41.9 44.8-42.9l802.7-31.9c23-1 41.6 16 41.6 37.8v142.7c0 21.9-18.6 40.5-41.6 41.7l-802.7 40c-24.7 1.3-44.8-16.2-44.8-38.9z"/><path class="b" d="m1791.6 2790.1c0 10.5-9.2 19.4-20.7 19.9-11.4 0.5-20.7-7.6-20.7-18.1 0-10.5 9.3-19.4 20.7-19.9 11.5-0.4 20.7 7.7 20.7 18.1z"/><path class="b" d="m1856.9 2787.4c0 10.4-9.2 19.3-20.6 19.8-11.3 0.5-20.6-7.6-20.6-18.1 0-10.4 9.3-19.3 20.6-19.8 11.4-0.4 20.6 7.6 20.6 18.1z"/><path class="b" d="m1921.8 2784.7c0 10.4-9.2 19.2-20.5 19.7-11.3 0.5-20.4-7.6-20.4-18 0-10.5 9.1-19.3 20.4-19.8 11.3-0.4 20.5 7.6 20.5 18.1z"/><path class="bg" d="m2551.7 2891.8l-589.2 28.4v-156.1l589.2-24.3z"/><g style="opacity:.3;mix-blend-mode:soft-light"><path class="d" d="m2019.9 2906.5l-17.8 0.8v-126l17.8-0.8z"/><path class="d" d="m2051.4 2905l-17.7 0.8v-125.9l17.7-0.7z"/><path class="d" d="m2082.9 2903.5l-17.7 0.8v-125.7l17.7-0.7z"/><path class="d" d="m2114.2 2902l-17.6 0.8v-125.5l17.6-0.8z"/><path class="d" d="m2145.5 2900.5l-17.6 0.8v-125.3l17.6-0.8z"/><path class="d" d="m2176.7 2899l-17.6 0.8v-125.2l17.6-0.7z"/><path class="d" d="m2207.8 2897.5l-17.5 0.8v-125l17.5-0.7z"/><path class="d" d="m2238.8 2896l-17.5 0.8v-124.8l17.5-0.7z"/><path class="d" d="m2269.7 2894.5l-17.4 0.9v-124.7l17.4-0.7z"/><path class="d" d="m2300.5 2893.1l-17.3 0.8v-124.5l17.3-0.7z"/><path class="d" d="m2331.3 2891.6l-17.3 0.8v-124.3l17.3-0.7z"/><path class="d" d="m2361.9 2890.1l-17.2 0.8v-124.1l17.2-0.7z"/><path class="d" d="m2392.5 2888.7l-17.2 0.8v-124l17.2-0.7z"/><path class="d" d="m2423 2887.2l-17.1 0.8v-123.8l17.1-0.7z"/><path class="d" d="m2453.4 2885.7l-17.1 0.9v-123.6l17.1-0.8z"/><path class="d" d="m2483.7 2884.3l-17 0.8v-123.4l17-0.7z"/><path class="d" d="m2514 2882.8l-17 0.9v-123.3l17-0.7z"/></g><g style="opacity:.7"><path class="bh" d="m2019.9 2906.5l-17.8 0.8v-107.2l17.8-0.8z"/><path class="bi" d="m2051.4 2905l-17.7 0.8v-12.9l17.7-0.8z"/><path class="bj" d="m2082.9 2903.5l-17.7 0.8v-73.2l17.7-0.8z"/><path class="bk" d="m2114.2 2902l-17.6 0.8v-31.6l17.6-0.8z"/><path class="bl" d="m2145.5 2900.5l-17.6 0.8v-80.8l17.6-0.7z"/><path class="bm" d="m2176.7 2899l-17.6 0.8v-55.6l17.6-0.8z"/><path class="bn" d="m2207.8 2897.5l-17.5 0.8v-96.4l17.5-0.8z"/><path class="bo" d="m2238.8 2896l-17.5 0.8v-106.2l17.5-0.7z"/><path class="bp" d="m2269.7 2894.5l-17.4 0.9v-53.1l17.4-0.8z"/><path class="bq" d="m2300.5 2893.1l-17.3 0.8v-116l17.3-0.7z"/><path class="br" d="m2331.3 2891.6l-17.3 0.8v-98.6l17.3-0.8z"/><path class="bs" d="m2361.9 2890.1l-17.2 0.8v-26.4l17.2-0.8z"/><path class="bt" d="m2392.5 2888.7l-17.2 0.8v-62l17.2-0.8z"/><path class="bu" d="m2423 2887.2l-17.1 0.8v-89.2l17.1-0.7z"/><path class="bv" d="m2453.4 2885.7l-17.1 0.9v-65l17.1-0.8z"/><path class="bw" d="m2483.7 2884.3l-17 0.8v-100.6l17-0.7z"/><path class="bx" d="m2514 2882.8l-17 0.9v-111.7l17-0.8z"/></g><path class="by" d="m2620.1 3078.8c-7.6 3.9-16.1 6.3-25.1 6.9l-884.8 50.6c-34.9 2-63.2-22.3-63.2-54.2v-2098.9c0-31.9 28.3-56.7 63.2-55.3l96.7 3.8c-12.4 36.6-17.8 77.4-8.4 119.9 30.2 136.9 183.2 156.2 225.8 296 41.7 136.7-85.8 180.5-61.8 332.9 29.6 187.6 233.7 189.1 276.3 374.7 41.8 182.6-124.2 255.8-73.3 423.9 47.5 157.2 215.1 152.4 345.2 319.8 47.3 60.9 93.1 149 109.4 279.9z"/><path class="bz" d="m1195.6 1557.8c8.3 0 15.2-6.8 15.4-15.4l3-137.3c0.1-8.6-6.4-15.4-14.7-15.3l-179.6 2.6c-73.2 1-139.6-28.5-187.4-82.5-47.3-53.3-70.5-123.9-66-199.5 8.4-139.7 116.8-264 251-283.3 15.5-2.2 31.2-3.1 46.5-2.5 20.4 0.7 40.1-12.5 49-32.9 69.8-161.1 224.5-280.6 399.3-302.6 241.2-30.4 447.8 126.8 467.6 368.1 2.3 28.9 28.8 48.9 60.6 45.2q6-0.7 12.2-1.2c26.8-1.8 53.1 0.1 78 5.7 6.1 1.3 63.1 14.2 69.1 16 33.7 10.1 12.7 15.3 38.6 38.2 50 44.1 76.1 105.3 73.1 171.9-6 133.2-131.5 243.1-275.4 245.1l-331.4 21-51.9-15.6 3.3-137.7 102.1-3.1c6.8-0.2 13.1-4.3 16-10.4 3-6 2-13-2.5-17.7l-227.2-238.2c-6.1-6.3-17.9-5.6-24.2 1.6l-224.5 252.9c-4.2 4.7-5.4 11.3-3.1 16.9 2.3 5.6 7.8 9 13.9 8.9l93.5-2.9 48.7 14.4-55.3 275.3c-0.2 8.7 6.7 15.8 15.4 15.9l73.4 0.6 49.8 16.4-12.8 8.4-173.2 182.1-3.2 8.1-47.5-17.3-169.8-200.5z"/><path class="bA" d="m2372 1148.2c-1.7 37.3-12.8 72.8-31.1 104.6-47.3 82.5-142.9 140.4-248.1 141.6l-388.2 4.7 3.3-138.4 103.4-3c6.9-0.2 13.3-4.3 16.2-10.4 3-6.1 1.9-13.1-2.6-17.9l-230.1-240.1c-6.1-6.4-18-5.6-24.5 1.6l-227.3 254.1c-4.2 4.7-5.4 11.4-3.1 16.9 2.4 5.7 7.9 9.2 14 9l94.7-2.7-6.7 291.4c-0.2 8.8 6.8 16 15.7 16.1l74.3 0.7-189.3 198.6-171.9-202.1 71.2 0.7c8.3 0.1 15.3-6.8 15.5-15.4l3-138.2c0.2-8.6-6.5-15.5-14.9-15.3l-181.6 2.1c-74.1 0.9-141.3-28.8-189.7-83.2-47.7-53.7-71.2-124.8-66.7-200.8 8.5-140.4 118.2-265.2 253.9-284.5 15.8-2.2 31.6-3 47.1-2.5 7.6 0.3 15.1-1.3 22-4.5 11.9-5.4 21.9-15.5 27.6-28.4 70.6-162.1 227.2-282.1 404.2-304 244.2-30.2 453.5 128.2 473.5 371.2 2.5 29 29.3 49.2 61.5 45.5q6.1-0.7 12.3-1.1c71.1-4.8 138.2 16.5 188.3 60.5 50.7 44.5 77.1 106.2 74.1 173.2z"/><path class="bB" d="m2336.9 1252.8c-47.3 82.5-142.9 140.4-248.1 141.6l-388.2 4.7 3.3-138.4 103.4-3c6.9-0.2 13.3-4.3 16.2-10.4 3-6.1 1.9-13.1-2.6-17.9l-230.1-240.1c-6.1-6.4-18-5.6-24.5 1.6l-227.3 254.1c-4.2 4.7-5.4 11.4-3.1 16.9 2.4 5.7 7.9 9.2 14 9l94.7-2.7-6.7 291.4c-0.2 8.8 6.8 16 15.7 16.1l74.3 0.7-189.3 198.6-171.9-202.1 71.2 0.7c8.3 0.1 15.3-6.8 15.5-15.4l3-138.2c0.2-8.6-6.5-15.5-14.9-15.3l-181.6 2.1c-74.1 0.9-141.3-28.8-189.7-83.2-47.7-53.7-71.2-124.8-66.7-200.8 8.5-140.4 118.2-265.2 253.9-284.5 15.8-2.2 31.6-3 47.1-2.5 7.6 0.3 15.1-1.3 22-4.5q6.7 8.3 13.1 17c38.5 52 78 118.2 150.4 121.7 70.4 3.4 134.6-43.9 199.5-63.6 81.6-24.8 162.4-20.2 231.3 34.1 69.3 54.6 114.6 133.3 184.3 187.6 56.4 44 124 68.8 194.8 77 72.8 8.4 147.9 4.8 216.1 36.4q10.9 5 20.9 11.3z"/><path class="bC" d="m2735.2 2296.2c58.5-28.6 172.8 75 228.4 174.3 22.1 39.5 48.1 85.9 41.8 141.1-11.4 97.9-119.9 183.7-269.3 212.4q-6.3-22.6-12.6-45.1c16.3-17 40.7-41.6 72-69.7 47.9-43.2 57.8-46.1 60.1-59.8 7.5-44.7-107.5-82.1-148.4-160.7-35.1-67.6-17-170.5 28-192.5z"/><path class="bD" d="m2853.5 3082.7c38 7.1 70.5 33.7 67.2 42.1-1.7 4.2-11.2 0.9-53-0.7-40.9-1.5-55.4 1.4-60.4-8.4-4.8-9.3 4.8-33 4.8-33 10.1-1.8 24.6-3.1 41.4 0z"/><path class="bE" d="m2820.7 3047.3l22.8 35.4c0 0-10.5 10.4-28.3 6.5l-25-33.6z"/><path class="bF" d="m2707.2 2488.7c-35.1-67.6-17-170.5 28-192.5 11.8-5.7 25.9-6.1 41.2-2.2-8.1 23.4-6.5 40.3-2.5 52.3 17.9 53.4 94.9 47.3 119 108.1 15.2 38.5-9 57.6 12.6 88.4 22.4 31.9 59 26.5 70.3 57.6 8.5 23.2-8.2 36.4-1.8 55.9 1.8 5.5 5.3 10.9 11.2 16.1-39.6 71.2-131.7 129.1-249.1 151.6q-6.3-22.6-12.6-45.1c16.3-17 40.7-41.6 72-69.7 47.9-43.2 57.8-46.1 60.1-59.8 7.5-44.7-107.5-82.1-148.4-160.7z"/><path class="bG" d="m2775.1 2317.4c-2.5 102.5-1.1 213.2 6.3 331.1 9.5 150.5 27.3 288.8 48.9 413.1q-14.4 4.6-28.9 9.2c-99-96.6-128.7-181.5-136.8-242.6-5.8-43.2 2.9-46.9-4.8-101-14.8-102.9-53.2-138.2-80.3-234.5-10.1-36.2-21.4-90.8-20.7-162q108.2-6.7 216.3-13.3z"/><path class="bH" d="m2846.1 2134c-1.8 0.4-9.6 3-12.7 35.6-7.4 78.7 33.5 110.6 23.5 153.2-9.7 41-59.1 60.9-109.9 81.3-34 13.7-139.1 56-200.2 8.4-25.7-20-28.5-44.1-46.9-132.9-46.6-225.6-64.6-245-45-293.9 33.6-83.8 123.8-118.6 138.8-124.3 159.9-61.7 348.7 51.6 423.4 181.7 9.8 17.1 68.5 119.4 27.2 168-24.9 29.3-82.2 34.1-120.1 14.1-50.5-26.8-61.2-95.1-78.1-91.2z"/><path class="bI" d="m3017.6 2191.5c-0.3-0.7-33.2-71.1-106.6-98-1.8-0.7-2.8-2.7-2.1-4.6 0.7-1.9 2.7-2.8 4.6-2.2 76.3 28 109.3 98.8 110.7 101.8 0.8 1.9 0 4-1.8 4.8q-0.7 0.4-1.5 0.4c-1.4 0-2.7-0.8-3.3-2.2z"/><path class="bJ" d="m2721.4 2112.7c0.4-3.2 3.7-25.7 22.5-32.9 9.4-3.6 25.8-4.6 32.1 5.6 4.1 6.5 3.7 16.7-1.6 21.7-6.6 6.4-15.3-1.2-27.3 4-14.4 6.3-16.7 23.7-21.7 22.5-3.9-0.9-5.1-12.3-4-20.9z"/><path class="bK" d="m2559.4 1956.9c10.1 27.5-20.2 51.3-7.2 81.1 18.6 42.8 92.6 20.8 119 63.1 31.3 50.1-40.4 132.3-10.8 160.5 13.5 12.8 29-3.6 68.5 5.4 56.1 12.8 73 57.2 99.1 50.4 8.2-2.1 18.2-9.5 26.6-32.5 3.6 12.7 5.4 24.8 2.3 37.9-9.7 41-59.1 60.9-109.9 81.3-34 13.7-139.1 56-200.2 8.4-25.7-20-28.5-44.1-46.9-132.9-46.6-225.6-64.6-245-45-293.9 10.7-26.6 27.1-48.2 44.9-65.6 38.5 8.5 54.3 22.4 59.6 36.8z"/><path class="bL" d="m2735.7 2135.5c-108 119.3-209.2 120.6-274.6 71.3-48.4-36.6-50.3-109.8-50.6-121.3-2.9-113.9 105.2-181.8 130.9-198 31.5-19.7 76.3-39.4 84.8-28.8 14.3 18-101.9 92.9-90.2 182.1 5 37.5 33.1 82 78.9 93.5 52.7 13.1 101-38.8 105.4-42.7 5.9 17 9.4 26.9 15.4 43.9z"/><path class="bM" d="m2956.5 1982.3l-52.1 166.4c-1.7 5.4-6.7 9.2-12.4 9.4l-68.1 9.9c-8.8 0.3-15.5-7.7-13.7-16.3l46-170.3c1.3-6 6.5-10.4 12.7-10.6l74.3-6c9.2-0.3 16 8.7 13.3 17.5z"/><path class="bN" d="m2954 1987.8l-50.6 161.5c-1.7 5.3-6.5 8.9-12 9.1l-59.9 9.6c-8.5 0.3-15-7.5-13.2-15.8l44.8-165.4c1.3-5.9 6.4-10.1 12.4-10.3l65.6-5.7c9-0.3 15.5 8.4 12.9 17z"/><path class="bO" d="m2818.3 2152.2l42.8-158c3.2 1.5 7.8 4 12.1 7.7 16.9 14.5 26.6 40.7 21 61.6-7.1 26.8-34.4 27.6-38.1 49.8-3 17.4 11.1 35.9 22.8 47.1l-47.4 7.6c-8.5 0.3-15-7.5-13.2-15.8z"/><path class="bP" d="m2758.5 1845.3c-3 10.5 3.3 21.4 13.9 23.9 12.8 3.1 28.4 7.4 35.1 11.2 12.4 7.1-37.6-1.1-83.6-2.1-28.8-0.7-50.2-3.9-62.3-6.3-3.2-0.6-3.5-5.1-0.4-6.1 11.5-3.8 30.2-9.3 46-11.3 19.6-2.4 40.6-45.6 40.6-45.6l16.7 15.2z"/><path class="bQ" d="m2924.3 2122.5l-6.7 9.4c0 0-11.2-25.4-28.6-24.2-10.3 0.7-14.3-8.2-15.8-15.7-1.1-5.1 2.4-10.1 7.7-10.8l16.7-2c11-1.4 21.4 5.7 24.2 16.5l3.2 5.2c4.1 6.7 3.8 15.2-0.7 21.6z"/><path class="bR" d="m2770.7 1826.2c-6.1 2.4-11.4 6.4-12.7 7.5-3.6 2.7-6.3 5.4-8.4 7.7-5.1-12.6-6.5-21.6-6.9-26.8-0.2-2.2-0.1-1.8-0.5-9.1-0.6-8.2-0.5-12.4 0-15.3 1-5.5 4.1-11.9 8.8-15.5 4.5-3.4 11.3-4.8 27.3-1 15.9 3.8 47.5 11.4 47.9 25.2 0.3 10-15.9 22.2-30.3 24.3-8.8 1.3-14.8-1.2-25.2 3z"/><path class="bS" d="m2738.5 1809.1c1.3-0.8 2.9-1 3.4-0.9 3.3 0.2 6.4 3.4 7.8 8.3 2.7-12.5 6.3-15.7 9.1-16.3 2.2-0.4 3.4 0.9 9.2 2.4 6.3 1.6 8.2 0.8 12.1 1.7 6.6 1.5 13 6.5 15 11 6.2 13.5-16.3 49-33.3 41.1-19-8.9-19.9-29-19.9-29-7.1-7.9-8-15.4-3.4-18.3z"/><path class="bT" d="m1120.8 2672.2c-13.8-12.9-40.4-27.7-53.7-62.1-4.1-10.3-18.3-47 2.7-75.1 12.4-16.7 35.6-28 55.9-24 17.4 3.5 20.2 15.6 49.7 40 11.5 9.5 30.1 24.7 50.7 33.2 35.2 14.6 56.5 0.9 91.9 2.5 43.5 1.9 94.1 26.2 118.4 61.5 43.3 62.7-19.4 126.3 28 199.7 15.5 24.1 23.2 18.7 59.9 65.3 36.8 46.6 55.2 69.9 52 98.5-4.6 39.7-47.3 77.6-87.5 80.1-39.3 2.6-64.3-28.4-84.3-14.8-14.3 9.6-6.1 28.3-21.2 50.8-19.5 29-57.9 34.8-64.1 35.7-57.4 8.7-134.8-58.7-167.7-138.5-59.3-143.9 44.8-283-30.7-352.8z"/><path class="bU" d="m1423.3 3024.8l-118.4 116.1-196.1 48.5-247.7-114.4 13.6-65.7 270.5 67.7z"/><path class="bV" d="m885.1 2696.8c-0.3-33.4 90.9-60.2 132.6-68.8 65-13.4 117-5 129.6-2.7 81 14.3 131.5 54.7 150.4 71.8-15.5 8.4-58.4 34.1-79.7 82.9-20.5 47.2-5.8 90.6 1.8 115.8 6.7 21.9 16.8 55.3 46.8 79.4 15.8 12.8 33.2 19.2 68.2 32.2 41.2 15.2 66.7 19.4 66.6 27.7-0.3 10.5-42.1 19.1-40.7 25.7 0.1 0.4 0.4 0.5 0.5 0.8 0.5 4.6-46.5 15.9-105.9 24.8-69.5 10.5-104.2 15.7-137.4 10-51.8-8.9-43.1-24.8-95-33.7-60.3-10.4-87.7 8.5-142.4-12.5-9.2-3.6-46-17.8-45-32.5 1.3-18.2 62.1-12 115-58.7 23.3-20.6 34.5-42.2 38.4-50.3 5.1-10.4 26.2-64.6 5-123.5-0.9-2.6-2.1-4.9-3.6-7.4-31.1-52.8-104.8-50.9-105.2-81z"/><path class="bW" d="m1175.2 2814.5c76.1 37 95.7 42.8 97.4 39.7 1.4-2.4-9-10-25.7-25.7-23.8-22.3-46.2-47.5-54.2-59.6-7.7-11.5-19.2-44.3 13.9-127.1 44.4 20.1 142.8 62.5 176.8 181.3 6.5 22.5 26.7 84.9-3.8 115.1-36.9 36.6-119.6-1.4-131.1-6.7-56.6-26.1-107.5-80.8-96.4-104.3 3.8-8.1 14.2-11.3 23.1-12.7z"/><path class="bX" d="m856.5 2678.5c88.2 5.2 255.4 45.4 298.9 56.1 6.3 1.5 10.8 6.9 11.3 13.4l14.5 186c0.8 10-8.3 17.9-18.1 15.8l-273.9-58.7c-5.8-1.3-10.4-5.9-11.5-11.7l-36.8-182.9c-1.9-9.7 5.8-18.6 15.6-18z"/><path class="bY" d="m1114.1 2562.9c0 0 5.1 41.3 20.4 50.7 15.2 9.5 39.9 21.8 42.6 25.2 2.7 3.4-94.4 13.8-142.6-10.5 15.9-3.3 20.2-4.5 20.2-4.5 4.3-1.2 12.3-3.5 20.4-8.1 5.5-3.1 14.3-9.2 22.4-20.7l-0.2-22.9z"/><path class="bZ" d="m1113.9 2576.6c0 0-2 16.7-18.3 19.5-14.7 2.4-25.2-33.1-17.6-42.1 2.6-3 8.8-5.8 14.1-5.6 3.7 0.2 16.4 5.2 18 17.9 2.5-2.6 5.7-3.3 7.2-2.2 2 1.4 0.8 5.5 0.6 6.5-0.9 3.2-3 5.1-4 6z"/><path class="c0" d="m1152.4 2947.5l-263.2-56.4c-5.8-1.3-10.4-5.9-11.5-11.7l-36.8-182.9c-1.9-9.7 5.8-18.6 15.6-18 5.6 0.3 11.6 0.8 17.8 1.4 0.1 28.2 8.3 44.7 17.5 54.8 24.7 27.4 58.5 12.7 85.2 42.7 25 28 9.3 56.5 33.3 73.2 23.4 16.3 47.8-4.3 77.2 4 21.5 6 46.3 27.8 64.9 92.9z"/><path class="c1" d="m860.2 2793.8c0 0-17.5-16.2-19.4-34.9-1.9-18.8 11.3-33.8 24.1-37.6 12.7-3.9 19.6 1.8 11 20.2-8.6 18.5-22.2 30.5-15.7 52.3z"/><path class="c2" d="m1141.5 3190.1c-54.8 3.3-229.5 8-298.1-93.5-4.7-6.8-42.6-63.1-23.1-89.9 17.6-24.3 72.3-11.1 81.9-8.7 53.7 13 78 45.9 131.1 89.6 26.9 22.2 66.7 51.5 120.4 80.4q-6.1 11-12.2 22.1z"/><path class="c3" d="m820.3 3006.7c5.2-7.1 13.5-11 22.9-12.9-3.1 10.9-3.4 21.1 0.5 30 10.8 24.4 42.5 16.9 64.8 45.4 21.9 28.1 6.7 55.2 26.1 66.7 22.2 13.3 49.7-17.7 73.5-2.9 16.1 10.1 11.1 29.2 29.9 39.7 13 7.2 25.8 3.8 40.6 1.9 17-2.1 40.3-2.6 69.5 3.5q-3.3 6-6.6 12c-54.8 3.3-229.5 8-298.1-93.5-4.7-6.8-42.6-63.1-23.1-89.9z"/><path class="c4" d="m1090.4 3205.1c-15.7 2.9-38.4-1.5-38.4-8.5-0.1-7 22.6-10.9 36.9-15.7 14.3-4.8 24.2 2.2 24.2 2.2 4.1 6.2-7.7 19.2-22.7 22z"/><path class="c5" d="m1128.5 3186.3c0 0-20 9.5-25.8 5-5.8-4.5-1.5-11.6-1.5-11.6l26.3-8.5z"/><path class="c6" d="m1493.3 3049.9c7.7 45.2-89.9 94.2-112.2 105.4-45.6 22.8-131.3 55.1-258.5 42.7q-2.5-15.2-5.1-30.4c16.8-5.8 41.7-15.1 70.6-29.3 49.3-24.3 68.1-41.6 136.5-83 75.7-45.8 97.8-51.7 120.3-46 19.3 4.9 44.8 19.6 48.4 40.6z"/><path class="c7" d="m927.2 2580c0 17.4-14.1 31.5-31.5 31.5-17.4 0-31.5-14.1-31.5-31.5 0-17.4 14.1-31.5 31.5-31.5 17.4 0 31.5 14.1 31.5 31.5z"/><path class="c8" d="m1067.9 2379.9c9.5 8.2 10.2 22.6 1.3 31.5l-0.9 0.9c-7.8 7.9-20.5 8.4-28.9 1.2-38.6-33.3-88.7-53.5-143.7-53.5-54.9 0-105.1 20.2-143.6 53.5-8.4 7.2-21.1 6.7-29-1.2l-0.9-0.9c-8.8-8.9-8.1-23.3 1.4-31.5 46.2-39.8 106.3-63.9 172.1-63.9 65.8 0 126 24.1 172.2 63.9z"/><path class="c9" d="m1015.7 2431.8c9.8 8 10.4 22.7 1.5 31.7l-0.2 0.1c-7.8 7.8-20.2 8.3-28.8 1.3-25.3-20.3-57.5-32.5-92.5-32.5-35 0-67.1 12.2-92.4 32.5-8.6 7-21 6.5-28.8-1.3l-0.2-0.1c-8.9-9-8.3-23.7 1.5-31.7 32.8-26.5 74.5-42.5 119.9-42.5 45.5 0 87.2 16 120 42.5z"/><path class="ca" d="m826.7 2515.8c-9.5-9.5-8-25.2 3.1-32.8 18.8-12.8 41.5-20.3 65.9-20.3 24.5 0 47.2 7.5 66 20.3 11.1 7.6 12.6 23.3 3.1 32.8l-0.1 0.1c-7.7 7.8-19.7 8.6-28.9 2.7-11.5-7.6-25.3-11.9-40.1-11.9-14.7 0-28.5 4.3-40 11.9-9.2 5.9-21.2 5.1-28.9-2.7z"/><path class="cb" d="m3016.7 1861c0 17.4-14.1 31.5-31.5 31.5-17.4 0-31.5-14.1-31.5-31.5 0-17.4 14.1-31.5 31.5-31.5 17.4 0 31.5 14.1 31.5 31.5z"/><path class="cc" d="m3157.4 1660.9c9.5 8.2 10.2 22.6 1.3 31.5l-0.9 0.9c-7.9 7.8-20.5 8.4-28.9 1.1-38.6-33.2-88.8-53.4-143.7-53.4-54.9 0-105.1 20.2-143.6 53.4-8.5 7.3-21.1 6.7-29-1.1l-0.9-0.9c-8.8-8.9-8.2-23.3 1.3-31.5 46.3-39.8 106.4-63.9 172.2-63.9 65.8 0 126 24.1 172.2 63.9z"/><path class="cd" d="m3105.1 1712.8c9.8 8 10.5 22.7 1.5 31.7l-0.1 0.1c-7.8 7.8-20.2 8.3-28.8 1.3-25.3-20.4-57.5-32.6-92.5-32.6-35 0-67.1 12.2-92.4 32.6-8.7 7-21 6.5-28.9-1.3l-0.1-0.1c-8.9-9-8.3-23.7 1.5-31.7 32.7-26.5 74.5-42.5 119.9-42.5 45.5 0 87.2 16 119.9 42.5z"/><path class="ce" d="m2916.1 1796.8c-9.4-9.5-8-25.3 3.1-32.8 18.8-12.8 41.5-20.4 66-20.4 24.5 0 47.2 7.6 66 20.4 11.1 7.5 12.6 23.3 3.1 32.8l-0.1 0.1c-7.8 7.8-19.8 8.6-28.9 2.6-11.5-7.5-25.3-11.9-40.1-11.9-14.8 0-28.5 4.4-40 11.9-9.2 6-21.2 5.2-29-2.6z"/></svg>